<svg id="Logo" xmlns="http://www.w3.org/2000/svg" viewBox="0 0 250.04 342.29"><defs><style>.cls-1{fill:#fff;}.cls-2{fill:none;}.cls-3{fill:#002669;}.cls-4{fill:#c24200;}.cls-5{fill:#ffdb22;}.cls-6{fill:#83ac16;}</style></defs><path class="cls-1" d="M248.17,108.78a74.86,74.86,0,0,0-7.82-20.21,76.09,76.09,0,0,0-30.72-29.71,74.52,74.52,0,0,0-10.44-4.47c-.88-.3-1.76-.59-2.66-.86a5,5,0,0,1-1.21-.36,3.22,3.22,0,0,1-.32-.32l-4.59-4.68-8.2-8.34q-4.76-4.86-9.53-9.71l-8.49-8.64L159,16.2c-.2-.21-.44-.57-.71-.65a2.55,2.55,0,0,0-.73,0H150.4a.55.55,0,0,1-.47-.14c-.93-.65-1.76-1.51-2.62-2.25l-9.73-8.33-4.11-3.51-1.18-1c-.07-.06-.27-.3-.36-.31s-.63.41-.77.5l-2,1.33-7,4.61-9.83,6.47L101,20.33l-11.2,7.36L80.1,34.1l-6.89,4.53-1.89,1.25c-.15.1-.47.41-.66.43S70,40,69.8,40l-2-.84-6-2.44-5.39-2.2c-.38-.16-1.12-.64-1.51-.54a5.51,5.51,0,0,0-1.24.81L51,36.46l-8.23,5.4-10.74,7-11.4,7.49L10.6,63,3.72,67.5,2.06,68.59c-.13.08-.24.13-.29.24a2.15,2.15,0,0,0,0,.62V249.07c0,.06,0,.36,0,.4s.28,0,.34,0h198a2.12,2.12,0,0,0,.71,0c.18-.07,0,.08.12-.16a2.66,2.66,0,0,0,0-.69c0-.4,0-.79,0-1.19,0-2.91,0-5.82.07-8.73l.09-12.74q0-6.74.1-13.45,0-5.52.08-11l0-3.62v-1.15a2.29,2.29,0,0,1,0-.64s0-.09,0-.12.31-.12.4-.16l1.36-.53c1.79-.73,3.54-1.52,5.27-2.37a75,75,0,0,0,9.93-6,76,76,0,0,0,16.38-15.81,74.36,74.36,0,0,0,15.18-40.39A76.08,76.08,0,0,0,248.17,108.78ZM108,94.37l-.19.11Z"/><polygon class="cls-2" points="38.41 96.46 50.91 88.21 50.91 74.97 38.41 83.22 38.41 96.46"/><polygon class="cls-2" points="38.41 74.35 50.91 66.1 50.91 52.87 38.41 61.12 38.41 74.35"/><polygon class="cls-1" points="18.67 87.35 31.18 79.1 31.18 65.86 18.67 74.11 18.67 87.35"/><polygon class="cls-1" points="38.41 74.35 50.91 66.1 50.91 52.87 38.41 61.12 38.41 74.35"/><polygon class="cls-1" points="18.67 109.51 31.18 101.26 31.18 88.03 18.67 96.28 18.67 109.51"/><polygon class="cls-1" points="18.67 131.7 31.18 123.45 31.18 110.22 18.67 118.47 18.67 131.7"/><polygon class="cls-1" points="38.41 96.46 50.91 88.21 50.91 74.97 38.41 83.22 38.41 96.46"/><polygon class="cls-1" points="38.41 118.73 50.91 110.48 50.91 97.25 38.41 105.5 38.41 118.73"/><polygon class="cls-1" points="58.14 83.51 70.65 75.26 70.65 62.03 58.14 70.28 58.14 83.51"/><polygon class="cls-2" points="38.41 96.46 50.91 88.21 50.91 74.97 38.41 83.22 38.41 96.46"/><polygon class="cls-2" points="38.41 74.35 50.91 66.1 50.91 52.87 38.41 61.12 38.41 74.35"/><polygon class="cls-2" points="38.41 96.46 50.91 88.21 50.91 74.97 38.41 83.22 38.41 96.46"/><polygon class="cls-2" points="38.41 74.35 50.91 66.1 50.91 52.87 38.41 61.12 38.41 74.35"/><polygon class="cls-2" points="38.41 96.46 50.91 88.21 50.91 74.97 38.41 83.22 38.41 96.46"/><polygon class="cls-2" points="38.41 74.35 50.91 66.1 50.91 52.87 38.41 61.12 38.41 74.35"/><path class="cls-2" d="M230.31,80.55l.38.46Z"/><path class="cls-2" d="M228.24,78.11l.34.39Z"/><path class="cls-2" d="M227.21,77l.28.3Z"/><path class="cls-2" d="M231.32,81.82l.37.48Z"/><path class="cls-2" d="M226.23,75.94l.13.14Z"/><path class="cls-2" d="M232.31,83.12l.36.49Z"/><path class="cls-2" d="M229.29,79.31l.36.43Z"/><path class="cls-2" d="M234.19,85.79c.11.15.21.31.31.47C234.4,86.1,234.3,85.94,234.19,85.79Z"/><path class="cls-2" d="M233.26,84.44l.35.5Z"/><path class="cls-2" d="M226.15,117.89l.22.16Z"/><path class="cls-2" d="M226.86,118.45l.24.21Z"/><polygon class="cls-2" points="224.06 116.69 224.06 116.69 224.07 116.69 224.06 116.69"/><path class="cls-2" d="M225.52,117.46l.07.05Z"/><path class="cls-2" d="M227.55,119.08l.19.21Z"/><polygon class="cls-2" points="50.91 74.97 38.41 83.22 38.41 96.46 50.91 88.21 50.91 74.97"/><polygon class="cls-2" points="50.91 52.87 38.41 61.12 38.41 74.35 50.91 66.1 50.91 52.87"/><path class="cls-3" d="M42.24,156.38a29,29,0,0,0,27.06-29H79.52V118h9.67a44.64,44.64,0,0,1,16.52-22.1h0a75.94,75.94,0,0,1,26-31.91l.11-23.19-6.83-8,6.61-21.13,14.25,12.26,8.63.06,25.93,26.57c2.38.17,4.73.46,7.06.85L156.52,19.93h-8L131.58,5.47,71.15,45.24,55.42,38.82,6.16,71.15V244.79H36.74V156.38Zm15.9-86.1L70.65,62V75.26L58.14,83.51ZM38.41,61.12l12.51-8.25V66.1L38.41,74.35Zm0,22.11L50.92,75V88.21L38.41,96.46Zm0,22.27,12.51-8.25v13.23l-12.51,8.25Zm-7.23,18L18.67,131.7V118.47l12.51-8.25Zm0-22.19-12.51,8.25V96.28L31.18,88Zm0-22.16L18.67,87.35V74.12l12.51-8.26Z"/><path class="cls-4" d="M146,199.85a22.26,22.26,0,0,1-6.15-10.72L133.5,160a14.06,14.06,0,0,1,2.27-11,15.56,15.56,0,0,1,10.4-6.52,12.65,12.65,0,0,1,2-.16,10.42,10.42,0,0,1,8.74,4.59,23.36,23.36,0,0,1,3.47,8.83l3.5,16.75,0,.09,0,.09c.52,3.43,1.57,3.59,3.52,3.59.55,0,1.16-.05,1.8-.11l-.07-45.7h-8.56a29.25,29.25,0,0,0-58.22,0H92v9.44H81.67a29.27,29.27,0,0,1-29.09,29.12v75.73H67.46c15-7.24,35.9-13.9,47.41-19,1.23-.54,2.59-1.24,3-2.53.52-1.8-1.19-3.5-1.32-5.37-.16-2.15,1.75-3.84,3.57-5,7.8-5,18.62-7.85,27.72-11.46A23.06,23.06,0,0,1,146,199.85Z"/><path class="cls-4" d="M158,205.19l-.62,0a12.7,12.7,0,0,1-3.26-.46c-6,3.25-12.6,6.65-17.79,9.72-1.31.77-2.79,1.88-2.64,3.38s2,2.34,3.3,3.3a6.52,6.52,0,0,1,2,7.73,11.45,11.45,0,0,1-2.83,3.49c-3.44,3.19-9.46,8-15.3,12.42h48.56l-.06-40.86A85.21,85.21,0,0,1,158,205.19Z"/><path class="cls-5" d="M236.24,89a71.46,71.46,0,0,0-122.35-.76q-1.23,2-2.32,4.09a44.53,44.53,0,0,1,57.27,15.79q0-.84,0-1.68c.11.05.23.08.34.12v-4.25a16.55,16.55,0,0,1,33.1,0v0l-.41,44.09.86,0a4.67,4.67,0,0,0,2.65-.51,4.47,4.47,0,0,0,1-2.85v-.2L209,126.09a21.5,21.5,0,0,1,3-8.75,10,10,0,0,1,8.62-4.64c.41,0,.83,0,1.25.06A14.76,14.76,0,0,1,232,118.39a13.33,13.33,0,0,1,2.75,10.32h0l-4.58,28.51a21.12,21.12,0,0,1-5.43,10.66c-3.26,3.53-7.14,5.49-10.92,5.5h-.44a91.44,91.44,0,0,1-11.77-.66l-.18,19.15A71.48,71.48,0,0,0,236.24,89Z"/><path class="cls-6" d="M221.45,116.16c-.32,0-.63,0-.93,0-5.33,0-7.33,4.82-8.19,10.49l-2.63,16.85c-.51,5.24-3.12,6.45-7,6.45-1.3,0-2.74-.14-4.3-.3l.43-47.27a13.13,13.13,0,1,0-26.26,0l.11,76.83a34.25,34.25,0,0,1-5.22.56c-3.63,0-6.11-1.36-6.9-6.48L157,156.48c-1.22-5.81-3.53-10.7-8.86-10.7a9.84,9.84,0,0,0-1.49.12c-6.4,1-11.2,7.09-9.85,13.43l6.29,29.08c1.32,6.19,7.88,13.38,14.21,13.38h.44a74.08,74.08,0,0,0,14.92-2.09l.06,45.1h24.76l.7-76A83.4,83.4,0,0,0,213.37,170h.43c6.07,0,12.06-7.29,13-13.28l4.58-28.52C232.29,122.19,227.48,116.74,221.45,116.16Z"/><path class="cls-1" d="M39.24,301.17l-15-.18v40.54h-9.3V300.88L0,300.7v-7.41H39.24Z"/><path class="cls-1" d="M78.12,302.7v21.35c0,9.86-5.06,18.13-18.18,18.13-13,0-18-8.09-18-18.13V302.7h9v21.35c0,6.33,2.23,10.69,9,10.69s9.2-4.32,9.2-10.69V302.7Z"/><path class="cls-1" d="M93.08,322.4c0,6.79,4,11.91,12.16,11.91a18.25,18.25,0,0,0,10.48-3.16h.09l2.45,7.56a29.85,29.85,0,0,1-14,3.47c-13.34,0-20.38-9-20.38-20S90.78,302,105.22,302a27.46,27.46,0,0,1,12.57,2.76l-2.63,7.8h-.07a17.93,17.93,0,0,0-9.69-2.73C97.4,309.86,93.08,315.29,93.08,322.4Z"/><path class="cls-1" d="M152,312.2c-4.06-2.19-7.24-3.29-11-3.29-4.73,0-7.53,1.72-7.53,4.42,0,7.38,22,3.53,22,17.08,0,7.45-6.63,11.88-17.43,11.88a28.08,28.08,0,0,1-15.07-4l2.27-7.42h.11a18.19,18.19,0,0,0,12.48,4.39c5.52,0,8.45-1.71,8.45-4.71,0-8-22-3.17-22-17.08,0-7,5.65-11.57,16.53-11.57a30.45,30.45,0,0,1,13.59,3.16l-2.24,7.1Z"/><path class="cls-1" d="M202.43,322c0,12.21-8.56,20.23-21.27,20.23s-20.83-7.82-20.83-19.94,8.34-20.21,21-20.21S202.43,309.87,202.43,322Zm-9.26.07c.07-8-4.66-12.52-11.72-12.52s-11.82,4.67-11.84,12.67c-.05,7.85,4.37,12.57,11.52,12.57S193.13,330.09,193.17,322Z"/><path class="cls-1" d="M245.88,302.7v38.83h-7.52l-13.29-15.74c-3.09-3.6-6.73-8.39-8.57-10.86.15,3.15.41,9.34.41,14.12v12.48h-8.17V302.7h7.39l13.47,15.7c3.12,3.59,6.76,8.51,8.57,11-.18-3.15-.44-9.54-.44-14.2V302.7Z"/><path class="cls-1" d="M75.57,279.06a.79.79,0,0,1,.3.05.76.76,0,0,1,.29.2l1.67,1.76a7,7,0,0,1-2.75,2.17,9.67,9.67,0,0,1-3.93.73,9.35,9.35,0,0,1-3.72-.7,8,8,0,0,1-2.79-2,8.49,8.49,0,0,1-1.76-2.95,10.9,10.9,0,0,1-.62-3.71A9.75,9.75,0,0,1,63,270.9a8.54,8.54,0,0,1,5-4.87,10.49,10.49,0,0,1,3.87-.69,10,10,0,0,1,1.94.18,9.51,9.51,0,0,1,1.69.5,8,8,0,0,1,1.45.76,7.23,7.23,0,0,1,1.18,1l-1.43,1.92a1.94,1.94,0,0,1-.32.32.84.84,0,0,1-.53.14.87.87,0,0,1-.42-.1,2.69,2.69,0,0,1-.43-.24l-.49-.31a3.82,3.82,0,0,0-.64-.32,7,7,0,0,0-.86-.24,5.7,5.7,0,0,0-1.16-.1,5.19,5.19,0,0,0-2.11.41A4.72,4.72,0,0,0,68,270.4,5.4,5.4,0,0,0,67,272.23a7.1,7.1,0,0,0-.39,2.42,7.39,7.39,0,0,0,.39,2.49A5.25,5.25,0,0,0,68,279a4.27,4.27,0,0,0,1.53,1.14,4.55,4.55,0,0,0,1.88.38,8.6,8.6,0,0,0,1-.05,3.91,3.91,0,0,0,.88-.2,4.54,4.54,0,0,0,.78-.35,5.64,5.64,0,0,0,.74-.55,1.38,1.38,0,0,1,.33-.2A.73.73,0,0,1,75.57,279.06Z"/><path class="cls-1" d="M88.5,283.77H84.25V265.54H88.5Z"/><path class="cls-1" d="M109.13,265.54v3.35H104v14.88H99.77V268.89H94.64v-3.35Z"/><path class="cls-1" d="M125.1,276.84v6.93h-4.23v-6.93l-6.61-11.3H118a1.36,1.36,0,0,1,.87.25,1.82,1.82,0,0,1,.53.66l2.58,5.31c.21.42.4.82.57,1.17s.33.72.47,1.07a8.25,8.25,0,0,1,.45-1.08l.56-1.16,2.55-5.31a1.26,1.26,0,0,1,.21-.32,2.13,2.13,0,0,1,.3-.3,1.22,1.22,0,0,1,.39-.21,1.24,1.24,0,0,1,.48-.08h3.76Z"/><path class="cls-1" d="M165.2,274.65a9.91,9.91,0,0,1-.68,3.68,9.11,9.11,0,0,1-1.92,3,8.71,8.71,0,0,1-3,2,10.93,10.93,0,0,1-7.75,0,8.75,8.75,0,0,1-3-2,9,9,0,0,1-1.93-3,10.3,10.3,0,0,1,0-7.36,8.73,8.73,0,0,1,1.93-3,8.9,8.9,0,0,1,3-2,10.86,10.86,0,0,1,7.75,0,8.85,8.85,0,0,1,3,2,9,9,0,0,1,1.92,3A9.89,9.89,0,0,1,165.2,274.65Zm-4.33,0a8.08,8.08,0,0,0-.35-2.44,5.22,5.22,0,0,0-1-1.83,4.36,4.36,0,0,0-1.61-1.15,5.44,5.44,0,0,0-2.16-.4,5.59,5.59,0,0,0-2.19.4,4.36,4.36,0,0,0-1.61,1.15,5.07,5.07,0,0,0-1,1.83,8.72,8.72,0,0,0,0,4.89,5.07,5.07,0,0,0,1,1.83,4.36,4.36,0,0,0,1.61,1.15,5.78,5.78,0,0,0,2.19.39,5.62,5.62,0,0,0,2.16-.39,4.36,4.36,0,0,0,1.61-1.15,5.22,5.22,0,0,0,1-1.83A8.1,8.1,0,0,0,160.87,274.65Z"/><path class="cls-1" d="M183.61,265.54v3.25h-7.48v4.62h6.23v3.27h-6.23v7.09h-4.26V265.54Z"/></svg>