<?xml version="1.0" encoding="iso-8859-1"?>
<!-- Generator: Adobe Illustrator 26.0.2, SVG Export Plug-In . SVG Version: 6.00 Build 0)  -->
<svg version="1.1" id="Logo" xmlns="http://www.w3.org/2000/svg" xmlns:xlink="http://www.w3.org/1999/xlink" x="0px" y="0px"
	 viewBox="0 0 245.921 342.432" style="enable-background:new 0 0 245.921 342.432;" xml:space="preserve">
<g>
	<g>
		<g>
			<path style="fill:#FFFFFF;" d="M39.208,301.349l-14.991-0.18v40.501h-9.288v-40.612l-14.924-0.179v-7.399h39.202V301.349z"/>
			<path style="fill:#FFFFFF;" d="M78.053,302.879v21.323c0,9.851-5.057,18.118-18.169,18.118c-12.954,0-17.988-8.087-17.988-18.118
				v-21.323h8.996v21.323c0,6.325,2.231,10.679,8.972,10.679c6.694,0,9.193-4.308,9.193-10.679v-21.323H78.053z"/>
			<path style="fill:#FFFFFF;" d="M92.995,322.555c0,6.785,3.996,11.898,12.15,11.898c3.78,0,7.311-1.007,10.467-3.156h0.089
				l2.451,7.552c-3.289,1.744-8.035,3.472-14.021,3.472c-13.326,0-20.355-8.975-20.355-20.013c0-10.925,6.918-20.102,21.342-20.102
				c5.464,0,9.585,1.254,12.562,2.755l-2.628,7.798h-0.067c-3.021-1.969-6.576-2.729-9.683-2.729
				C97.304,310.03,92.995,315.456,92.995,322.555z"/>
			<path style="fill:#FFFFFF;" d="M151.816,312.371c-4.054-2.195-7.235-3.291-10.949-3.291c-4.731,0-7.524,1.723-7.524,4.418
				c0.023,7.369,21.946,3.522,21.946,17.065c0,7.437-6.621,11.868-17.41,11.868c-5.744,0-10.775-1.311-15.053-3.961l2.266-7.412
				h0.111c3.712,3.03,7.359,4.388,12.469,4.388c5.509,0,8.442-1.705,8.442-4.708c-0.023-7.992-22.013-3.164-22.013-17.067
				c0-6.985,5.644-11.554,16.516-11.554c4.774,0,8.47,0.873,13.576,3.156l-2.243,7.098H151.816z"/>
			<path style="fill:#FFFFFF;" d="M202.23,322.107c0,12.2-8.55,20.213-21.249,20.213c-12.565,0-20.804-7.812-20.804-19.923
				c0-12.221,8.327-20.192,21.027-20.192C193.837,302.206,202.23,310.042,202.23,322.107z M192.988,322.175
				c0.068-7.952-4.663-12.507-11.717-12.507c-7.121,0-11.806,4.667-11.829,12.663c-0.044,7.84,4.373,12.552,11.517,12.552
				C188.058,334.882,192.944,330.238,192.988,322.175z"/>
			<path style="fill:#FFFFFF;" d="M245.64,302.879v38.791h-7.509l-13.279-15.727c-3.087-3.594-6.721-8.381-8.562-10.846
				c0.15,3.142,0.415,9.333,0.415,14.101v12.472h-8.164v-38.791h7.377l13.456,15.682c3.117,3.583,6.76,8.498,8.564,10.981
				c-0.177-3.144-0.437-9.527-0.437-14.191v-12.472H245.64z"/>
		</g>
		<g>
			<path style="fill:#FFFFFF;" d="M75.5,279.256c0.1,0,0.2,0.019,0.3,0.056c0.1,0.037,0.195,0.102,0.287,0.194l1.675,1.763
				c-0.733,0.959-1.652,1.682-2.757,2.169c-1.105,0.488-2.411,0.732-3.92,0.732c-1.384,0-2.624-0.235-3.72-0.706
				c-1.096-0.471-2.026-1.121-2.789-1.951c-0.763-0.83-1.349-1.813-1.757-2.951c-0.408-1.138-0.613-2.374-0.613-3.708
				c0-1.359,0.233-2.607,0.7-3.745c0.467-1.138,1.119-2.12,1.957-2.945c0.838-0.825,1.84-1.467,3.008-1.926
				c1.167-0.458,2.454-0.688,3.864-0.688c0.684,0,1.327,0.061,1.932,0.181c0.604,0.121,1.169,0.288,1.694,0.5
				c0.526,0.212,1.009,0.467,1.451,0.762c0.441,0.296,0.833,0.624,1.175,0.982l-1.425,1.913c-0.092,0.117-0.2,0.223-0.325,0.319
				s-0.3,0.144-0.525,0.144c-0.15,0-0.292-0.033-0.425-0.1s-0.275-0.148-0.425-0.244c-0.15-0.096-0.315-0.2-0.494-0.312
				c-0.179-0.113-0.391-0.217-0.638-0.313c-0.246-0.096-0.533-0.177-0.862-0.244c-0.33-0.066-0.715-0.1-1.156-0.1
				c-0.767,0-1.468,0.135-2.102,0.406c-0.634,0.271-1.177,0.659-1.631,1.163c-0.455,0.505-0.809,1.115-1.062,1.832
				c-0.255,0.717-0.382,1.521-0.382,2.413c0,0.934,0.127,1.763,0.382,2.489c0.254,0.725,0.6,1.336,1.037,1.832
				c0.438,0.496,0.948,0.873,1.531,1.132c0.584,0.259,1.209,0.388,1.876,0.388c0.384,0,0.733-0.019,1.05-0.056
				c0.317-0.038,0.611-0.102,0.882-0.194c0.27-0.092,0.529-0.21,0.774-0.356c0.246-0.146,0.494-0.327,0.744-0.544
				c0.101-0.083,0.208-0.152,0.325-0.206C75.255,279.283,75.375,279.256,75.5,279.256z"/>
			<path style="fill:#FFFFFF;" d="M88.42,283.97h-4.252v-18.219h4.252V283.97z"/>
			<path style="fill:#FFFFFF;" d="M109.029,265.751v3.351h-5.127v14.868h-4.227v-14.868h-5.127v-3.351H109.029z"/>
			<path style="fill:#FFFFFF;" d="M124.978,277.043v6.927h-4.227v-6.927l-6.603-11.292h3.727c0.366,0,0.658,0.085,0.875,0.256
				c0.217,0.171,0.392,0.39,0.526,0.657l2.576,5.302c0.208,0.425,0.399,0.817,0.575,1.175c0.175,0.359,0.33,0.713,0.463,1.063
				c0.125-0.358,0.276-0.717,0.45-1.075c0.175-0.358,0.363-0.746,0.562-1.163l2.551-5.302c0.05-0.108,0.119-0.217,0.206-0.325
				c0.088-0.108,0.187-0.206,0.3-0.294c0.113-0.087,0.242-0.158,0.387-0.213c0.147-0.054,0.307-0.081,0.481-0.081h3.752
				L124.978,277.043z"/>
			<path style="fill:#FFFFFF;" d="M165.041,274.854c0,1.317-0.227,2.543-0.681,3.676c-0.455,1.134-1.095,2.119-1.919,2.957
				c-0.826,0.838-1.82,1.494-2.982,1.97c-1.164,0.475-2.454,0.713-3.87,0.713c-1.418,0-2.709-0.237-3.877-0.713
				c-1.167-0.475-2.166-1.132-2.995-1.97c-0.83-0.838-1.471-1.823-1.926-2.957c-0.455-1.134-0.682-2.359-0.682-3.676
				c0-1.317,0.227-2.542,0.682-3.676c0.455-1.134,1.096-2.117,1.926-2.951c0.829-0.834,1.827-1.488,2.995-1.963
				c1.167-0.475,2.459-0.713,3.877-0.713c1.417,0,2.707,0.24,3.87,0.719c1.162,0.479,2.156,1.136,2.982,1.969
				c0.825,0.834,1.465,1.818,1.919,2.951C164.814,272.325,165.041,273.546,165.041,274.854z M160.715,274.854
				c0-0.9-0.117-1.711-0.35-2.432c-0.234-0.721-0.569-1.331-1.007-1.832c-0.437-0.5-0.973-0.884-1.606-1.15
				c-0.634-0.267-1.355-0.4-2.164-0.4c-0.817,0-1.544,0.133-2.182,0.4s-1.175,0.65-1.613,1.15c-0.437,0.5-0.773,1.111-1.006,1.832
				c-0.233,0.721-0.35,1.532-0.35,2.432c0,0.909,0.116,1.724,0.35,2.445c0.233,0.721,0.569,1.332,1.006,1.832
				c0.438,0.5,0.975,0.882,1.613,1.144s1.365,0.394,2.182,0.394c0.809,0,1.529-0.131,2.164-0.394
				c0.633-0.263,1.169-0.644,1.606-1.144c0.438-0.5,0.773-1.111,1.007-1.832C160.598,276.578,160.715,275.763,160.715,274.854z"/>
			<path style="fill:#FFFFFF;" d="M183.438,265.751v3.251h-7.478v4.614h6.228v3.264h-6.228v7.09h-4.251v-18.219H183.438z"/>
		</g>
	</g>
	<g>
		<polygon style="fill:#FFFFFF;" points="36.309,117.6 48.699,109.428 48.699,96.322 36.309,104.494 		"/>
		<polygon style="fill:#FFFFFF;" points="36.309,95.536 48.699,87.365 48.699,74.259 36.309,82.431 		"/>
		<polygon style="fill:#FFFFFF;" points="36.309,73.644 48.699,65.472 48.699,52.367 36.309,60.539 		"/>
		<polygon style="fill:#FFFFFF;" points="16.759,86.513 29.149,78.342 29.149,65.236 16.759,73.408 		"/>
		<polygon style="fill:#FFFFFF;" points="16.759,130.445 29.149,122.273 29.149,109.168 16.759,117.339 		"/>
		<polygon style="fill:#FFFFFF;" points="16.759,108.465 29.149,100.293 29.149,87.188 16.759,95.359 		"/>
		<path style="fill:#FFFFFF;" d="M244.069,107.738c-1.589-7.004-4.206-13.767-7.746-20.015c-3.323-5.864-7.453-11.262-12.219-16.028
			c-5.35-5.349-11.499-9.892-18.205-13.396c-3.326-1.738-6.785-3.221-10.338-4.432c-0.873-0.298-1.751-0.579-2.634-0.844
			c-0.358-0.107-0.886-0.163-1.199-0.361c-0.116-0.073-0.22-0.223-0.315-0.321c-1.517-1.545-3.035-3.089-4.553-4.634
			c-2.705-2.754-5.411-5.507-8.116-8.261c-3.149-3.205-6.298-6.41-9.447-9.616c-2.803-2.853-5.605-5.705-8.408-8.558
			c-1.712-1.742-3.423-3.484-5.135-5.227c-0.2-0.204-0.444-0.566-0.711-0.648c-0.198-0.061-0.51,0-0.715,0c-0.444,0-0.889,0-1.333,0
			c-1.084,0-2.169,0-3.254,0c-0.835,0-1.669,0-2.504,0c-0.276,0-0.266,0.001-0.468-0.138c-0.92-0.637-1.748-1.496-2.597-2.223
			c-3.213-2.75-6.426-5.5-9.639-8.25c-1.355-1.159-2.709-2.318-4.064-3.478c-0.391-0.335-0.783-0.67-1.174-1.005
			c-0.067-0.058-0.267-0.298-0.359-0.304c-0.17-0.011-0.621,0.409-0.755,0.497c-0.664,0.437-1.329,0.874-1.993,1.311
			c-2.315,1.523-4.63,3.046-6.945,4.57c-3.245,2.135-6.49,4.27-9.734,6.405c-3.723,2.449-7.445,4.899-11.168,7.348
			c-3.696,2.432-7.391,4.863-11.087,7.295c-3.216,2.116-6.432,4.232-9.648,6.348c-2.274,1.496-4.548,2.993-6.822,4.489
			c-0.625,0.411-1.251,0.823-1.876,1.234c-0.152,0.1-0.463,0.404-0.65,0.425c-0.213,0.023-0.659-0.269-0.852-0.348
			c-0.674-0.275-1.348-0.55-2.022-0.825c-1.979-0.808-3.959-1.616-5.938-2.424c-1.78-0.726-3.559-1.453-5.339-2.179
			c-0.373-0.152-1.104-0.63-1.493-0.531c-0.399,0.101-0.892,0.585-1.231,0.808c-0.856,0.562-1.712,1.123-2.568,1.685
			c-2.718,1.783-5.435,3.567-8.153,5.35c-3.545,2.326-7.091,4.653-10.636,6.979c-3.765,2.47-7.529,4.941-11.294,7.411
			c-3.322,2.18-6.645,4.36-9.967,6.54c-2.272,1.491-4.544,2.982-6.816,4.472c-0.548,0.36-1.096,0.719-1.645,1.079
			c-0.121,0.079-0.232,0.123-0.279,0.238c-0.061,0.147,0,0.452,0,0.608c0,0.417,0,0.835,0,1.252c0,1.423,0,2.846,0,4.269
			c0,2.134,0,4.269,0,6.403c0,2.767,0,5.534,0,8.301c0,3.282,0,6.563,0,9.844c0,3.715,0,7.429,0,11.144c0,4.074,0,8.148,0,12.222
			c0,4.304,0,8.607,0,12.911c0,4.459,0,8.917,0,13.376c0,4.521,0,9.041,0,13.562c0,4.511,0,9.021,0,13.532c0,4.366,0,8.733,0,13.099
			c0,4.15,0,8.301,0,12.451c0,3.858,0,7.716,0,11.575c0,3.438,0,6.876,0,10.315c0,2.944,0,5.887,0,8.831c0,2.357,0,4.713,0,7.07
			c0,1.683,0,3.366,0,5.049c0,0.901,0,1.802,0,2.703c0,0.056-0.042,0.353,0,0.396c0.038,0.039,0.277,0.002,0.333,0.002
			c0.47,0,0.94,0,1.41,0c0.853,0,1.705,0,2.558,0c0.406,0,0.813,0,1.219,0c1.164,0,2.329,0,3.493,0c1.856,0,3.712,0,5.568,0
			c2.481,0,4.961,0,7.442,0c3.003,0,6.005,0,9.008,0c3.455,0,6.91,0,10.365,0c3.846,0,7.692,0,11.537,0c4.122,0,8.243,0,12.365,0
			c4.335,0,8.669,0,13.004,0c4.468,0,8.935,0,13.403,0c4.542,0,9.084,0,13.625,0c4.495,0,8.989,0,13.484,0c4.388,0,8.777,0,13.165,0
			c4.221,0,8.442,0,12.664,0c3.935,0,7.871,0,11.806,0c3.59,0,7.18,0,10.769,0c3.164,0,6.329,0,9.493,0c2.67,0,5.34,0,8.011,0
			c2.072,0,4.143,0,6.215,0c1.407,0,2.814,0,4.221,0c0.431,0,0.861,0,1.292,0c0.177,0,0.534,0.071,0.699,0
			c0.181-0.078,0.048,0.071,0.123-0.159c0.061-0.186,0.004-0.492,0.005-0.686c0.003-0.394,0.006-0.788,0.009-1.183
			c0.021-2.88,0.042-5.761,0.064-8.642c0.031-4.208,0.062-8.416,0.093-12.624c0.033-4.441,0.065-8.882,0.098-13.322
			c0.027-3.639,0.054-7.277,0.08-10.915c0.009-1.194,0.018-2.388,0.026-3.581c0.003-0.38,0.006-0.759,0.008-1.139
			c0.001-0.176-0.055-0.471,0.005-0.639c0.01-0.029-0.016-0.089,0.001-0.115c0.046-0.07,0.304-0.123,0.389-0.155
			c0.453-0.173,0.905-0.351,1.354-0.532c1.767-0.715,3.507-1.498,5.213-2.348c3.427-1.706,6.721-3.679,9.843-5.895
			c6.151-4.365,11.635-9.67,16.216-15.661c4.373-5.718,7.909-12.069,10.449-18.805c2.561-6.792,4.103-13.957,4.593-21.198
			C246.24,122.212,245.684,114.857,244.069,107.738z M40.104,154.889h-5.448v87.564H4.369V70.467l48.793-32.017l15.576,6.358
			l59.86-39.386l16.729,14.318h7.97l30.633,31.181c-2.306-0.387-4.638-0.671-6.993-0.841l-25.682-26.316l-8.551-0.063
			l-14.107-12.142l-6.552,20.931l6.77,7.885L128.7,63.335c-3.512,2.47-6.836,5.261-9.935,8.36
			c-6.797,6.797-12.114,14.679-15.799,23.252h0c-7.539,5.334-13.337,12.966-16.357,21.886h-9.576v9.354h-10.12
			C66.913,141.418,55.078,153.877,40.104,154.889z M113.665,215.852c0.132,1.853,1.828,3.534,1.313,5.319
			c-0.369,1.279-1.718,1.969-2.937,2.505c-11.394,5.007-32.136,11.602-46.955,18.777H50.35v-75.004
			c15.872-0.089,28.72-12.953,28.811-28.849h10.268v-9.346h10.259c1.451-14.669,13.806-26.126,28.835-26.126
			c15.029,0,27.384,11.458,28.835,26.126h8.481l0.064,45.261c-0.63,0.066-1.237,0.109-1.784,0.109c-1.934,0-2.967-0.158-3.488-3.55
			l-0.014-0.09l-0.019-0.089l-3.474-16.595c-0.795-3.771-1.916-6.627-3.428-8.737c-2.134-2.977-5.128-4.55-8.658-4.551
			c-0.644,0-1.316,0.053-1.996,0.157c-4.151,0.638-7.904,2.992-10.296,6.458c-2.253,3.265-3.053,7.131-2.251,10.885l6.237,28.816
			c0.786,3.678,3.009,7.549,6.099,10.612c0.594,0.589,1.208,1.114,1.831,1.61c-9.02,3.578-19.731,6.441-27.457,11.35
			C115.402,212.044,113.513,213.722,113.665,215.852z M117.907,242.452c5.784-4.349,11.751-9.138,15.154-12.297
			c1.096-1.017,2.181-2.103,2.806-3.462c1.191-2.587,0.331-5.953-1.954-7.652c-1.281-0.953-3.106-1.679-3.268-3.268
			c-0.152-1.493,1.319-2.587,2.611-3.35c5.148-3.04,11.701-6.406,17.623-9.625c1.08,0.287,2.161,0.449,3.227,0.449
			c0.205,0,0.414-0.006,0.619-0.017c4.84-0.26,8.364-0.717,11.216-1.246l0.056,40.467H117.907z M194.594,167.179l-0.687,75.273
			h-24.527l-0.063-44.665c-3.779,0.935-7.937,1.699-14.773,2.066c-0.146,0.008-0.292,0.012-0.437,0.012
			c-6.271,0-12.762-7.127-14.07-13.255l-6.235-28.807c-1.339-6.271,3.416-12.32,9.754-13.294c0.52-0.08,1.013-0.118,1.483-0.118
			c5.271,0.001,7.562,4.838,8.776,10.598l3.475,16.596c0.778,5.069,3.24,6.418,6.83,6.418c1.532,0,3.27-0.246,5.17-0.553
			l-0.107-76.094c0-7.154,5.853-13.006,13.006-13.006c7.154,0,13.006,5.853,13.006,13.006l-0.427,46.811
			c1.541,0.163,2.971,0.297,4.26,0.297c3.851,0,6.439-1.196,6.937-6.388l2.604-16.683c0.855-5.623,2.832-10.389,8.119-10.389
			c0.295,0,0.6,0.015,0.915,0.045c5.977,0.573,10.744,5.976,9.825,11.91l-4.536,28.247c-0.919,5.934-6.855,13.134-12.86,13.153
			c-0.145,0.001-0.289,0.001-0.431,0.001C202.801,168.36,198.617,167.857,194.594,167.179z M239.935,142.19
			c-2.785,10.729-8.137,20.736-15.48,29.036c-7.286,8.234-16.48,14.735-26.687,18.829l0.173-18.961
			c3.225,0.403,6.806,0.648,11.66,0.648l0.442-0.001c3.74-0.012,7.579-1.945,10.812-5.445c2.854-3.09,4.813-6.937,5.378-10.556
			l4.536-28.244l0.002-0.009l0.002-0.009c0.559-3.611-0.409-7.241-2.726-10.222c-2.457-3.16-6.145-5.192-10.119-5.573
			c-0.418-0.04-0.835-0.06-1.237-0.06c-3.583,0-6.535,1.588-8.536,4.593c-1.402,2.105-2.359,4.941-2.927,8.67l-2.602,16.67
			l-0.015,0.099l-0.01,0.1c-0.138,1.439-0.475,2.44-0.951,2.818c-0.426,0.339-1.307,0.511-2.619,0.511
			c-0.273,0-0.557-0.007-0.849-0.02l0.398-43.675v-0.015v-0.015c0-9.037-7.352-16.388-16.388-16.388S165.8,92.32,165.8,101.357
			l0.006,4.207c-0.109-0.044-0.229-0.068-0.333-0.121c0.012,0.556,0.025,1.113,0.026,1.66c-2.391-3.708-5.338-7.053-8.713-9.895
			c-6.086-5.125-13.534-8.548-21.394-9.8c-9.031-1.438-18.427-0.021-26.615,4.056c0.722-1.373,1.483-2.723,2.295-4.045
			c6.366-10.364,15.388-19.024,26.018-24.937c10.184-5.666,21.723-8.719,33.373-8.876c12.755-0.172,25.493,3.141,36.518,9.561
			c10.359,6.032,19.134,14.706,25.27,25.006c6.195,10.4,9.633,22.334,9.925,34.437C242.338,129.2,241.591,135.809,239.935,142.19z"
			/>
		<polygon style="fill:#FFFFFF;" points="68.249,61.439 55.858,69.611 55.858,82.716 68.249,74.545 		"/>
	</g>
</g>
</svg>
