<?xml version="1.0" encoding="iso-8859-1"?>
<!-- Generator: Adobe Illustrator 26.0.3, SVG Export Plug-In . SVG Version: 6.00 Build 0)  -->
<svg version="1.1" id="Logo" xmlns="http://www.w3.org/2000/svg" xmlns:xlink="http://www.w3.org/1999/xlink" x="0px" y="0px"
	 viewBox="0 0 440.251 459.628" style="enable-background:new 0 0 440.251 459.628;" xml:space="preserve">
<g>
	<g>
		<path style="fill:#002669;" d="M130.991,424.839h-3.944v-16.901h3.944V424.839z"/>
		<path style="fill:#002669;" d="M151.261,407.938v16.901h-2.042c-0.302,0-0.555-0.048-0.76-0.145s-0.407-0.266-0.608-0.505
			l-7.97-10.081c0.031,0.302,0.053,0.594,0.064,0.876s0.017,0.548,0.017,0.795v9.06h-3.456v-16.901h2.064
			c0.17,0,0.313,0.008,0.429,0.023c0.116,0.016,0.221,0.045,0.313,0.087c0.093,0.043,0.182,0.103,0.267,0.18s0.182,0.182,0.29,0.313
			l8.039,10.149c-0.039-0.324-0.065-0.64-0.081-0.945c-0.016-0.305-0.023-0.593-0.023-0.864v-8.943H151.261z"/>
		<path style="fill:#002669;" d="M160.729,410.954v4.28h5.776v3.027h-5.776v6.577h-3.944v-16.901h10.881v3.017H160.729z"/>
		<path style="fill:#002669;" d="M188.193,416.383c0,1.222-0.211,2.358-0.632,3.41c-0.422,1.052-1.016,1.966-1.78,2.743
			c-0.766,0.777-1.688,1.387-2.767,1.827s-2.276,0.661-3.591,0.661s-2.514-0.221-3.596-0.661c-1.083-0.44-2.009-1.05-2.778-1.827
			s-1.365-1.691-1.786-2.743c-0.422-1.052-0.633-2.188-0.633-3.41s0.211-2.359,0.633-3.411c0.421-1.051,1.017-1.964,1.786-2.737
			s1.695-1.38,2.778-1.821c1.082-0.44,2.281-0.661,3.596-0.661s2.512,0.223,3.591,0.667c1.078,0.445,2.001,1.054,2.767,1.827
			c0.765,0.773,1.358,1.686,1.78,2.737C187.982,414.035,188.193,415.168,188.193,416.383z M184.179,416.383
			c0-0.836-0.108-1.588-0.324-2.257c-0.217-0.669-0.528-1.235-0.935-1.699c-0.405-0.464-0.902-0.819-1.49-1.067
			c-0.588-0.247-1.257-0.371-2.007-0.371c-0.758,0-1.433,0.124-2.024,0.371c-0.591,0.248-1.09,0.604-1.496,1.067
			s-0.718,1.03-0.934,1.699c-0.217,0.669-0.325,1.421-0.325,2.257c0,0.843,0.108,1.599,0.325,2.268
			c0.216,0.669,0.527,1.235,0.934,1.699s0.905,0.817,1.496,1.062c0.592,0.243,1.267,0.365,2.024,0.365
			c0.75,0,1.419-0.122,2.007-0.365c0.588-0.244,1.085-0.598,1.49-1.062c0.406-0.464,0.718-1.03,0.935-1.699
			C184.071,417.982,184.179,417.226,184.179,416.383z"/>
		<path style="fill:#002669;" d="M206.6,424.839h-3.55c-0.657,0-1.129-0.247-1.415-0.742l-2.808-4.907
			c-0.132-0.209-0.278-0.361-0.44-0.458c-0.163-0.097-0.395-0.145-0.696-0.145h-0.997v6.252h-3.921v-16.901h5.498
			c1.222,0,2.264,0.126,3.126,0.377c0.862,0.252,1.566,0.602,2.111,1.05c0.545,0.449,0.941,0.979,1.189,1.59
			c0.247,0.61,0.371,1.275,0.371,1.995c0,0.549-0.074,1.066-0.221,1.554c-0.147,0.487-0.363,0.938-0.649,1.352
			s-0.641,0.783-1.062,1.108c-0.422,0.324-0.907,0.591-1.456,0.8c0.256,0.132,0.495,0.296,0.72,0.493
			c0.224,0.197,0.425,0.432,0.603,0.702L206.6,424.839z M198.271,415.884c0.533,0,0.987-0.067,1.363-0.203
			c0.375-0.135,0.682-0.323,0.922-0.562c0.239-0.239,0.414-0.521,0.522-0.841c0.107-0.321,0.162-0.667,0.162-1.038
			c0-0.743-0.242-1.323-0.726-1.74c-0.483-0.418-1.231-0.627-2.244-0.627h-1.577v5.012L198.271,415.884L198.271,415.884z"/>
		<path style="fill:#002669;" d="M229.224,407.938v16.901h-3.457v-9.721c0-0.225,0.006-0.468,0.018-0.73
			c0.012-0.264,0.033-0.53,0.063-0.801l-4.489,8.688c-0.139,0.271-0.326,0.476-0.562,0.614c-0.235,0.14-0.504,0.209-0.806,0.209
			h-0.534c-0.302,0-0.57-0.069-0.806-0.209c-0.236-0.139-0.424-0.344-0.562-0.614l-4.489-8.712c0.022,0.278,0.042,0.551,0.058,0.818
			c0.016,0.267,0.023,0.512,0.023,0.736v9.721h-3.457v-16.901h2.993c0.17,0,0.318,0.004,0.446,0.012s0.241,0.031,0.342,0.069
			c0.101,0.039,0.191,0.099,0.273,0.18c0.081,0.082,0.16,0.196,0.237,0.343l4.351,8.572c0.154,0.294,0.303,0.6,0.446,0.916
			c0.143,0.317,0.28,0.643,0.412,0.975c0.131-0.34,0.269-0.673,0.411-0.997c0.144-0.325,0.296-0.635,0.458-0.929l4.339-8.537
			c0.077-0.146,0.156-0.261,0.237-0.343c0.082-0.081,0.173-0.141,0.273-0.18c0.1-0.038,0.214-0.062,0.342-0.069
			s0.276-0.012,0.446-0.012h2.994V407.938z"/>
		<path style="fill:#002669;" d="M249.895,424.839h-3.039c-0.341,0-0.615-0.079-0.823-0.238c-0.209-0.158-0.368-0.361-0.476-0.608
			l-0.998-2.946h-6.427l-0.997,2.946c-0.085,0.217-0.238,0.412-0.458,0.586c-0.221,0.174-0.493,0.261-0.818,0.261h-3.062
			l6.543-16.901h4.014L249.895,424.839z M243.665,418.378l-1.565-4.629c-0.116-0.294-0.24-0.64-0.371-1.038
			c-0.132-0.398-0.264-0.829-0.395-1.293c-0.116,0.472-0.24,0.908-0.371,1.311c-0.132,0.402-0.256,0.75-0.371,1.044l-1.555,4.605
			L243.665,418.378L243.665,418.378z"/>
		<path style="fill:#002669;" d="M263.854,411.047h-4.756v13.792h-3.921v-13.792h-4.756v-3.109h13.433V411.047z"/>
		<path style="fill:#002669;" d="M271.702,424.839h-3.943v-16.901h3.943V424.839z"/>
		<path style="fill:#002669;" d="M293.87,416.383c0,1.222-0.211,2.358-0.633,3.41c-0.421,1.052-1.015,1.966-1.78,2.743
			s-1.688,1.387-2.767,1.827s-2.275,0.661-3.59,0.661s-2.514-0.221-3.597-0.661c-1.082-0.44-2.009-1.05-2.778-1.827
			s-1.364-1.691-1.786-2.743s-0.632-2.188-0.632-3.41s0.21-2.359,0.632-3.411c0.422-1.051,1.017-1.964,1.786-2.737
			s1.696-1.38,2.778-1.821c1.083-0.44,2.281-0.661,3.597-0.661c1.314,0,2.511,0.223,3.59,0.667c1.079,0.445,2.001,1.054,2.767,1.827
			s1.359,1.686,1.78,2.737C293.659,414.035,293.87,415.168,293.87,416.383z M289.857,416.383c0-0.836-0.108-1.588-0.325-2.257
			s-0.527-1.235-0.934-1.699s-0.903-0.819-1.49-1.067c-0.588-0.247-1.257-0.371-2.007-0.371c-0.759,0-1.433,0.124-2.024,0.371
			c-0.592,0.248-1.091,0.604-1.496,1.067c-0.406,0.464-0.718,1.03-0.935,1.699c-0.216,0.669-0.324,1.421-0.324,2.257
			c0,0.843,0.108,1.599,0.324,2.268c0.217,0.669,0.528,1.235,0.935,1.699c0.405,0.464,0.904,0.817,1.496,1.062
			c0.592,0.243,1.266,0.365,2.024,0.365c0.75,0,1.419-0.122,2.007-0.365c0.587-0.244,1.084-0.598,1.49-1.062s0.717-1.03,0.934-1.699
			S289.857,417.226,289.857,416.383z"/>
		<path style="fill:#002669;" d="M313.204,407.938v16.901h-2.041c-0.302,0-0.555-0.048-0.76-0.145s-0.408-0.266-0.609-0.505
			l-7.969-10.081c0.03,0.302,0.052,0.594,0.063,0.876s0.018,0.548,0.018,0.795v9.06h-3.457v-16.901h2.064
			c0.171,0,0.313,0.008,0.43,0.023s0.221,0.045,0.313,0.087c0.093,0.043,0.182,0.103,0.267,0.18s0.182,0.182,0.29,0.313
			l8.039,10.149c-0.039-0.324-0.066-0.64-0.082-0.945s-0.022-0.593-0.022-0.864v-8.943H313.204z"/>
		<path style="fill:#002669;" d="M143.975,438.887h-4.756v13.792h-3.921v-13.792h-4.756v-3.109h13.433V438.887z"/>
		<path style="fill:#002669;" d="M151.823,438.794v3.943h5.312v2.9h-5.312v4.025h6.937v3.016h-10.881v-16.901h10.881v3.017
			L151.823,438.794L151.823,438.794z"/>
		<path style="fill:#002669;" d="M174.589,448.306c0.093,0,0.186,0.018,0.278,0.052c0.093,0.035,0.182,0.095,0.267,0.18l1.555,1.636
			c-0.681,0.89-1.533,1.561-2.558,2.013s-2.237,0.679-3.637,0.679c-1.283,0-2.434-0.219-3.451-0.655
			c-1.017-0.437-1.879-1.04-2.587-1.81c-0.707-0.77-1.251-1.682-1.63-2.737s-0.568-2.202-0.568-3.439
			c0-1.261,0.205-2.419,0.615-3.475s0.986-1.966,1.729-2.731s1.632-1.361,2.668-1.787c1.036-0.425,2.177-0.638,3.422-0.638
			c0.634,0,1.231,0.057,1.792,0.168c0.561,0.112,1.085,0.268,1.572,0.464c0.487,0.197,0.936,0.436,1.346,0.714
			c0.409,0.278,0.772,0.58,1.09,0.905l-1.322,1.774c-0.085,0.108-0.186,0.207-0.302,0.296s-0.278,0.133-0.487,0.133
			c-0.139,0-0.271-0.03-0.394-0.093c-0.124-0.062-0.256-0.137-0.395-0.226c-0.14-0.089-0.292-0.186-0.459-0.29
			c-0.166-0.104-0.363-0.201-0.591-0.29c-0.229-0.089-0.495-0.164-0.801-0.227c-0.306-0.062-0.663-0.093-1.073-0.093
			c-0.649,0-1.243,0.12-1.78,0.359c-0.538,0.24-1.002,0.59-1.392,1.05c-0.391,0.461-0.692,1.025-0.905,1.694
			s-0.319,1.433-0.319,2.291c0,0.866,0.118,1.636,0.354,2.308c0.235,0.673,0.557,1.24,0.963,1.7c0.405,0.46,0.879,0.81,1.421,1.05
			c0.541,0.239,1.121,0.359,1.739,0.359c0.356,0,0.681-0.018,0.975-0.053c0.294-0.034,0.568-0.093,0.824-0.174
			c0.255-0.081,0.494-0.189,0.719-0.324c0.225-0.136,0.452-0.308,0.685-0.517c0.093-0.077,0.193-0.141,0.302-0.191
			C174.362,448.331,174.473,448.306,174.589,448.306z"/>
		<path style="fill:#002669;" d="M195.272,435.778v16.901h-3.944v-7.146h-6.867v7.146h-3.943v-16.901h3.943v7.064h6.867v-7.064
			H195.272z"/>
		<path style="fill:#002669;" d="M215.55,435.778v16.901h-2.041c-0.302,0-0.555-0.048-0.76-0.145s-0.408-0.266-0.609-0.505
			l-7.969-10.081c0.03,0.302,0.052,0.594,0.063,0.876s0.018,0.548,0.018,0.795v9.06h-3.457v-16.901h2.064
			c0.171,0,0.313,0.008,0.43,0.023s0.221,0.045,0.313,0.087c0.093,0.043,0.182,0.103,0.267,0.18s0.182,0.182,0.29,0.313
			l8.039,10.149c-0.039-0.324-0.066-0.64-0.082-0.945s-0.022-0.593-0.022-0.864v-8.943H215.55z"/>
		<path style="fill:#002669;" d="M237.686,444.223c0,1.222-0.211,2.358-0.633,3.41c-0.421,1.052-1.015,1.966-1.78,2.743
			s-1.688,1.387-2.767,1.827s-2.275,0.661-3.59,0.661s-2.514-0.221-3.597-0.661c-1.082-0.44-2.009-1.05-2.778-1.827
			s-1.364-1.691-1.786-2.743s-0.632-2.188-0.632-3.41s0.21-2.359,0.632-3.411c0.422-1.051,1.017-1.964,1.786-2.737
			s1.696-1.38,2.778-1.821c1.083-0.44,2.281-0.661,3.597-0.661c1.314,0,2.511,0.223,3.59,0.667c1.079,0.445,2.001,1.054,2.767,1.827
			s1.359,1.686,1.78,2.737C237.475,441.875,237.686,443.008,237.686,444.223z M233.672,444.223c0-0.836-0.108-1.588-0.325-2.257
			s-0.527-1.235-0.934-1.699s-0.903-0.819-1.49-1.067c-0.588-0.247-1.257-0.371-2.007-0.371c-0.759,0-1.433,0.124-2.024,0.371
			c-0.592,0.248-1.091,0.604-1.496,1.067c-0.406,0.464-0.718,1.03-0.935,1.699c-0.216,0.669-0.324,1.421-0.324,2.257
			c0,0.843,0.108,1.599,0.324,2.268c0.217,0.669,0.528,1.235,0.935,1.699c0.405,0.464,0.904,0.817,1.496,1.062
			c0.592,0.243,1.266,0.365,2.024,0.365c0.75,0,1.419-0.122,2.007-0.365c0.587-0.244,1.084-0.598,1.49-1.062s0.717-1.03,0.934-1.699
			S233.672,445.066,233.672,444.223z"/>
		<path style="fill:#002669;" d="M252.45,449.547v3.132h-10.185v-16.901h3.921v13.77L252.45,449.547L252.45,449.547z"/>
		<path style="fill:#002669;" d="M272.695,444.223c0,1.222-0.211,2.358-0.633,3.41c-0.421,1.052-1.015,1.966-1.78,2.743
			s-1.688,1.387-2.767,1.827s-2.275,0.661-3.59,0.661s-2.514-0.221-3.597-0.661c-1.082-0.44-2.009-1.05-2.778-1.827
			s-1.364-1.691-1.786-2.743c-0.422-1.052-0.632-2.188-0.632-3.41s0.21-2.359,0.632-3.411c0.422-1.051,1.017-1.964,1.786-2.737
			s1.696-1.38,2.778-1.821c1.083-0.44,2.281-0.661,3.597-0.661c1.314,0,2.511,0.223,3.59,0.667c1.079,0.445,2.001,1.054,2.767,1.827
			s1.359,1.686,1.78,2.737C272.484,441.875,272.695,443.008,272.695,444.223z M268.681,444.223c0-0.836-0.108-1.588-0.325-2.257
			s-0.527-1.235-0.934-1.699s-0.903-0.819-1.49-1.067c-0.588-0.247-1.257-0.371-2.007-0.371c-0.759,0-1.433,0.124-2.024,0.371
			c-0.592,0.248-1.091,0.604-1.496,1.067c-0.406,0.464-0.718,1.03-0.935,1.699c-0.216,0.669-0.324,1.421-0.324,2.257
			c0,0.843,0.108,1.599,0.324,2.268c0.217,0.669,0.528,1.235,0.935,1.699c0.405,0.464,0.904,0.817,1.496,1.062
			c0.592,0.243,1.266,0.365,2.024,0.365c0.75,0,1.419-0.122,2.007-0.365c0.587-0.244,1.084-0.598,1.49-1.062s0.717-1.03,0.934-1.699
			S268.681,445.066,268.681,444.223z"/>
		<path style="fill:#002669;" d="M285.368,443.921h6.009v7.134c-0.866,0.634-1.788,1.095-2.767,1.381
			c-0.979,0.285-2.001,0.429-3.068,0.429c-1.392,0-2.658-0.219-3.799-0.655s-2.117-1.04-2.929-1.81
			c-0.812-0.77-1.438-1.682-1.88-2.737c-0.44-1.056-0.661-2.202-0.661-3.439c0-1.261,0.209-2.419,0.627-3.475
			c0.417-1.056,1.015-1.966,1.792-2.731s1.717-1.361,2.818-1.787c1.103-0.425,2.334-0.638,3.695-0.638
			c0.703,0,1.364,0.059,1.983,0.174c0.618,0.116,1.188,0.274,1.711,0.476c0.521,0.201,0.999,0.441,1.433,0.72
			c0.433,0.278,0.819,0.58,1.16,0.904l-1.137,1.729c-0.179,0.271-0.408,0.438-0.69,0.499s-0.586-0.008-0.911-0.209
			c-0.309-0.186-0.601-0.346-0.875-0.481c-0.275-0.135-0.556-0.245-0.842-0.33s-0.587-0.147-0.904-0.186s-0.673-0.059-1.067-0.059
			c-0.734,0-1.396,0.13-1.983,0.389c-0.588,0.26-1.089,0.625-1.502,1.097c-0.414,0.472-0.733,1.038-0.957,1.699
			c-0.225,0.661-0.337,1.397-0.337,2.21c0,0.896,0.124,1.693,0.371,2.39c0.248,0.695,0.598,1.283,1.05,1.763
			c0.453,0.479,0.994,0.845,1.624,1.097c0.631,0.251,1.328,0.377,2.094,0.377c0.472,0,0.899-0.047,1.282-0.14
			s0.756-0.216,1.119-0.371v-2.563h-1.67c-0.248,0-0.441-0.065-0.58-0.197c-0.14-0.132-0.209-0.298-0.209-0.499L285.368,443.921
			L285.368,443.921z"/>
		<path style="fill:#002669;" d="M304.246,446.252v6.427h-3.921v-6.427l-6.125-10.475h3.457c0.34,0,0.608,0.079,0.806,0.238
			c0.197,0.158,0.361,0.361,0.493,0.608l2.39,4.919c0.201,0.387,0.383,0.748,0.545,1.084c0.163,0.337,0.306,0.667,0.43,0.992
			c0.116-0.332,0.249-0.667,0.4-1.004c0.15-0.336,0.326-0.693,0.527-1.072l2.366-4.919c0.055-0.101,0.12-0.201,0.197-0.302
			c0.077-0.1,0.169-0.191,0.272-0.272c0.104-0.081,0.225-0.146,0.36-0.197c0.135-0.05,0.284-0.075,0.446-0.075h3.48L304.246,446.252
			z"/>
	</g>
	<path style="fill:#FFFFFF;" d="M354.744,124.316c-1.833-8.081-4.853-15.885-8.938-23.095c-3.834-6.767-8.6-12.995-14.099-18.494
		c-6.173-6.173-13.268-11.414-21.006-15.457c-3.838-2.006-7.829-3.717-11.928-5.115c-1.007-0.343-2.02-0.668-3.04-0.973
		c-0.413-0.124-1.022-0.188-1.384-0.417c-0.134-0.085-0.253-0.258-0.364-0.37c-1.751-1.782-3.502-3.565-5.253-5.347
		c-3.122-3.177-6.243-6.355-9.365-9.532c-3.633-3.698-7.267-7.397-10.9-11.095c-3.234-3.292-6.468-6.583-9.701-9.875
		c-1.975-2.01-3.95-4.021-5.925-6.031c-0.231-0.235-0.512-0.653-0.82-0.748c-0.228-0.07-0.588,0-0.825,0c-0.513,0-1.026,0-1.539,0
		c-1.251,0-2.503,0-3.754,0c-0.963,0-1.926,0-2.889,0c-0.319,0-0.307,0.001-0.54-0.16c-1.062-0.735-2.016-1.726-2.997-2.565
		c-3.708-3.173-7.415-6.346-11.123-9.519c-1.563-1.338-3.126-2.675-4.689-4.013c-0.451-0.386-0.903-0.773-1.354-1.159
		c-0.078-0.066-0.308-0.344-0.414-0.35c-0.196-0.012-0.717,0.472-0.872,0.574c-0.767,0.504-1.533,1.009-2.3,1.513
		c-2.671,1.758-5.342,3.515-8.013,5.273c-3.744,2.463-7.488,4.927-11.232,7.391c-4.295,2.826-8.591,5.653-12.887,8.479
		c-4.264,2.806-8.529,5.612-12.793,8.418c-3.711,2.441-7.421,4.883-11.132,7.325c-2.624,1.727-5.248,3.453-7.872,5.18
		c-0.721,0.475-1.443,0.95-2.165,1.424c-0.176,0.116-0.535,0.467-0.75,0.49c-0.246,0.027-0.761-0.311-0.983-0.401
		c-0.778-0.317-1.555-0.635-2.333-0.952c-2.284-0.932-4.568-1.864-6.852-2.797c-2.053-0.838-4.107-1.676-6.161-2.514
		c-0.43-0.176-1.274-0.727-1.723-0.613c-0.46,0.117-1.029,0.675-1.42,0.932c-0.988,0.648-1.976,1.296-2.963,1.944
		c-3.136,2.058-6.272,4.115-9.408,6.173c-4.091,2.684-8.182,5.369-12.273,8.053c-4.344,2.85-8.688,5.701-13.032,8.551
		c-3.834,2.515-7.667,5.031-11.5,7.546c-2.621,1.72-5.243,3.44-7.864,5.16c-0.632,0.415-1.265,0.83-1.898,1.245
		c-0.139,0.091-0.267,0.142-0.322,0.275c-0.07,0.169,0,0.522,0,0.702c0,0.481,0,0.963,0,1.444c0,1.642,0,3.284,0,4.926
		c0,2.463,0,4.926,0,7.388c0,3.193,0,6.385,0,9.578c0,3.786,0,7.573,0,11.359c0,4.286,0,8.572,0,12.858c0,4.701,0,9.402,0,14.103
		c0,4.966,0,9.932,0,14.898c0,5.145,0,10.289,0,15.434c0,5.216,0,10.433,0,15.649c0,5.205,0,10.409,0,15.614
		c0,5.038,0,10.077,0,15.115c0,4.789,0,9.578,0,14.367c0,4.452,0,8.904,0,13.356c0,3.967,0,7.934,0,11.902c0,3.397,0,6.793,0,10.19
		c0,2.719,0,5.439,0,8.158c0,1.942,0,3.884,0,5.826c0,1.04,0,2.079,0,3.119c0,0.064-0.048,0.407,0,0.457
		c0.044,0.044,0.32,0.003,0.384,0.003c0.542,0,1.085,0,1.627,0c0.984,0,1.968,0,2.952,0c0.469,0,0.938,0,1.407,0
		c1.343,0,2.687,0,4.03,0c2.142,0,4.283,0,6.425,0c2.862,0,5.725,0,8.587,0c3.465,0,6.929,0,10.394,0c3.987,0,7.973,0,11.96,0
		c4.438,0,8.875,0,13.313,0c4.756,0,9.512,0,14.268,0c5.002,0,10.003,0,15.005,0c5.155,0,10.31,0,15.466,0
		c5.241,0,10.481,0,15.722,0c5.186,0,10.373,0,15.559,0c5.064,0,10.127,0,15.191,0c4.871,0,9.741,0,14.612,0
		c4.541,0,9.082,0,13.623,0c4.142,0,8.284,0,12.427,0c3.651,0,7.303,0,10.954,0c3.081,0,6.162,0,9.243,0c2.391,0,4.781,0,7.172,0
		c1.623,0,3.247,0,4.87,0c0.497,0,0.994,0,1.491,0c0.204,0,0.616,0.082,0.806,0c0.209-0.09,0.055,0.081,0.142-0.183
		c0.07-0.214,0.004-0.568,0.006-0.791c0.003-0.455,0.007-0.91,0.01-1.364c0.024-3.324,0.049-6.648,0.074-9.972
		c0.036-4.855,0.072-9.711,0.107-14.566c0.038-5.124,0.076-10.248,0.113-15.372c0.031-4.198,0.062-8.397,0.093-12.595
		c0.01-1.377,0.02-2.755,0.03-4.132c0.003-0.438,0.006-0.876,0.01-1.314c0.001-0.203-0.063-0.544,0.005-0.737
		c0.012-0.034-0.019-0.103,0.001-0.132c0.053-0.081,0.351-0.142,0.449-0.179c0.523-0.2,1.044-0.405,1.563-0.614
		c2.039-0.825,4.046-1.729,6.015-2.709c3.954-1.968,7.755-4.245,11.357-6.802c7.097-5.037,13.425-11.159,18.711-18.071
		c5.046-6.598,9.126-13.926,12.057-21.699c2.955-7.837,4.735-16.104,5.3-24.459C357.249,141.018,356.607,132.531,354.744,124.316z
		 M194.514,107.846c-0.071,0.044-0.142,0.086-0.213,0.13C194.372,107.932,194.444,107.89,194.514,107.846z"/>
	<polygon style="fill:none;" points="115.015,110.237 129.311,100.808 129.311,85.686 115.015,95.115 	"/>
	<polygon style="fill:none;" points="115.015,84.976 129.311,75.547 129.311,60.425 115.015,69.854 	"/>
	<polygon style="fill:#FFFFFF;" points="92.456,99.825 106.753,90.396 106.753,75.274 92.456,84.703 	"/>
	<polygon style="fill:#FFFFFF;" points="115.015,84.976 129.311,75.547 129.311,60.425 115.015,69.854 	"/>
	<polygon style="fill:#FFFFFF;" points="92.456,125.154 106.753,115.725 106.753,100.603 92.456,110.032 	"/>
	<polygon style="fill:#FFFFFF;" points="92.456,150.517 106.753,141.088 106.753,125.966 92.456,135.395 	"/>
	<polygon style="fill:#FFFFFF;" points="115.015,110.237 129.311,100.808 129.311,85.686 115.015,95.115 	"/>
	<polygon style="fill:#FFFFFF;" points="115.015,135.695 129.311,126.266 129.311,111.144 115.015,120.573 	"/>
	<polygon style="fill:#FFFFFF;" points="137.572,95.444 151.869,86.015 151.869,70.893 137.572,80.322 	"/>
	<polygon style="fill:none;" points="115.015,110.237 129.311,100.808 129.311,85.686 115.015,95.115 	"/>
	<polygon style="fill:none;" points="115.015,84.976 129.311,75.547 129.311,60.425 115.015,69.854 	"/>
	<polygon style="fill:none;" points="115.015,110.237 129.311,100.808 129.311,85.686 115.015,95.115 	"/>
	<polygon style="fill:none;" points="115.015,84.976 129.311,75.547 129.311,60.425 115.015,69.854 	"/>
	<polygon style="fill:none;" points="115.015,110.237 129.311,100.808 129.311,85.686 115.015,95.115 	"/>
	<polygon style="fill:none;" points="115.015,84.976 129.311,75.547 129.311,60.425 115.015,69.854 	"/>
	<path style="fill:none;" d="M334.339,92.056c0.142,0.175,0.284,0.351,0.425,0.528C334.623,92.408,334.481,92.232,334.339,92.056z"
		/>
	<path style="fill:none;" d="M331.973,89.274c0.129,0.145,0.258,0.289,0.386,0.435C332.231,89.563,332.102,89.419,331.973,89.274z"
		/>
	<path style="fill:none;" d="M330.786,87.967c0.107,0.115,0.215,0.229,0.321,0.345C331.001,88.196,330.893,88.082,330.786,87.967z"
		/>
	<path style="fill:none;" d="M335.491,93.507c0.142,0.183,0.283,0.368,0.424,0.553C335.774,93.875,335.633,93.69,335.491,93.507z"/>
	<path style="fill:none;" d="M329.666,86.783c0.052,0.054,0.105,0.107,0.157,0.161C329.772,86.89,329.718,86.837,329.666,86.783z"/>
	<path style="fill:none;" d="M336.616,94.991c0.139,0.188,0.276,0.377,0.413,0.566C336.892,95.368,336.755,95.179,336.616,94.991z"
		/>
	<path style="fill:none;" d="M333.164,90.643c0.138,0.163,0.277,0.326,0.414,0.49C333.441,90.969,333.302,90.806,333.164,90.643z"/>
	<path style="fill:none;" d="M338.77,98.043c0.12,0.179,0.237,0.361,0.356,0.541C339.007,98.404,338.89,98.222,338.77,98.043z"/>
	<path style="fill:none;" d="M337.708,96.501c0.134,0.19,0.265,0.383,0.398,0.574C337.973,96.884,337.842,96.692,337.708,96.501z"/>
	<path style="fill:none;" d="M329.579,134.729c0.086,0.062,0.172,0.124,0.257,0.188
		C329.751,134.853,329.665,134.791,329.579,134.729z"/>
	<path style="fill:none;" d="M330.396,135.369c0.091,0.078,0.179,0.158,0.268,0.239
		C330.575,135.528,330.487,135.447,330.396,135.369z"/>
	<polygon style="fill:none;" points="327.197,133.361 327.197,133.361 327.199,133.362 	"/>
	<path style="fill:none;" d="M328.856,134.24c0.029,0.018,0.06,0.035,0.089,0.053C328.916,134.274,328.886,134.258,328.856,134.24z"
		/>
	<path style="fill:none;" d="M331.177,136.09c0.076,0.076,0.146,0.158,0.219,0.236C331.323,136.248,331.253,136.167,331.177,136.09z
		"/>
	<polygon style="fill:none;" points="129.311,85.686 115.015,95.115 115.015,110.237 129.311,100.808 	"/>
	<polygon style="fill:none;" points="129.311,60.425 115.015,69.854 115.015,84.976 129.311,75.547 	"/>
	<path style="fill:#002669;" d="M119.394,178.722c17.278-1.168,30.934-15.544,30.934-33.118h11.677V134.81h11.05
		c3.485-10.292,10.175-19.099,18.874-25.253l0,0c4.252-9.892,10.387-18.987,18.23-26.83c3.576-3.576,7.411-6.796,11.463-9.647
		l0.133-26.494l-7.812-9.098l7.561-24.152l16.277,14.01l9.866,0.072l29.634,30.365c2.717,0.197,5.409,0.524,8.069,0.971
		l-35.347-35.979h-9.196l-19.302-16.52l-69.071,45.447l-17.973-7.336L78.16,81.31v198.45h34.948V178.722H119.394z M137.572,80.322
		l14.297-9.429v15.122l-14.297,9.429V80.322z M115.015,69.854l14.297-9.429v15.122l-14.297,9.429V69.854z M115.015,95.115
		l14.297-9.429v15.122l-14.297,9.429V95.115z M115.015,120.573l14.297-9.429v15.122l-14.297,9.429V120.573z M106.753,141.088
		l-14.297,9.429v-15.122l14.297-9.429V141.088z M106.753,115.725l-14.297,9.429v-15.122l14.297-9.429V115.725z M106.753,90.396
		l-14.297,9.429V84.703l14.297-9.429V90.396z"/>
	<g>
		<path style="fill:#C24200;" d="M237.927,228.396c-3.566-3.534-6.131-8.001-7.038-12.245l-7.196-33.25
			c-0.925-4.331-0.002-8.792,2.597-12.559c2.76-4,7.09-6.716,11.881-7.452c0.785-0.121,1.56-0.182,2.304-0.182
			c4.073,0,7.528,1.816,9.991,5.251c1.744,2.434,3.038,5.73,3.955,10.081l4.009,19.149l0.022,0.103l0.016,0.104
			c0.601,3.914,1.793,4.096,4.024,4.096c0.631,0,1.332-0.049,2.058-0.125l-0.073-52.225h-9.786
			c-1.674-16.926-15.931-30.146-33.272-30.146c-17.342,0-31.598,13.221-33.272,30.146H176.31v10.785h-11.848
			c-0.105,18.341-14.93,33.186-33.244,33.288v86.546h17.003c17.1-8.279,41.033-15.889,54.18-21.666
			c1.407-0.618,2.963-1.414,3.389-2.89c0.594-2.06-1.363-3.999-1.516-6.137c-0.175-2.458,2.004-4.394,4.084-5.715
			c8.915-5.664,21.274-8.968,31.682-13.096C239.321,229.682,238.612,229.075,237.927,228.396z"/>
		<path style="fill:#C24200;" d="M251.653,234.503c-0.236,0.013-0.477,0.019-0.714,0.019c-1.231,0-2.478-0.187-3.724-0.518
			c-6.833,3.715-14.395,7.598-20.335,11.106c-1.491,0.88-3.189,2.143-3.013,3.866c0.187,1.833,2.292,2.671,3.771,3.77
			c2.637,1.961,3.629,5.844,2.255,8.829c-0.721,1.568-1.973,2.821-3.238,3.995c-3.927,3.645-10.812,9.171-17.486,14.189h55.491
			l-0.065-46.694C261.303,233.676,257.237,234.203,251.653,234.503z"/>
	</g>
	<path style="fill:#FFDB22;" d="M341.108,101.741c-7.08-11.885-17.205-21.893-29.158-28.853
		c-12.721-7.407-27.419-11.23-42.137-11.032c-13.443,0.181-26.757,3.704-38.508,10.242c-12.265,6.823-22.676,16.816-30.021,28.774
		c-0.937,1.525-1.815,3.083-2.648,4.667c9.448-4.705,20.29-6.34,30.71-4.681c9.069,1.444,17.663,5.394,24.686,11.308
		c3.894,3.279,7.294,7.14,10.053,11.418c-0.001-0.631-0.017-1.274-0.03-1.916c0.12,0.062,0.258,0.088,0.384,0.14l-0.007-4.854
		c0-10.427,8.483-18.91,18.91-18.91s18.91,8.483,18.91,18.91v0.018v0.018l-0.46,50.395c0.338,0.015,0.665,0.024,0.98,0.024
		c1.514,0,2.531-0.198,3.022-0.589c0.549-0.437,0.938-1.591,1.097-3.252l0.011-0.115l0.018-0.114l3.003-19.235
		c0.655-4.303,1.76-7.575,3.377-10.004c2.31-3.467,5.716-5.299,9.85-5.299c0.465,0,0.946,0.024,1.428,0.07
		c4.586,0.44,8.841,2.784,11.676,6.43c2.673,3.439,3.791,7.628,3.146,11.794l-0.002,0.011l-0.002,0.011l-5.233,32.59
		c-0.651,4.176-2.912,8.614-6.205,12.18c-3.73,4.039-8.16,6.27-12.475,6.283l-0.51,0.001c-5.601,0-9.733-0.282-13.454-0.748
		l-0.2,21.879c11.777-4.724,22.386-12.225,30.793-21.727c8.474-9.577,14.649-21.124,17.862-33.504
		c1.911-7.364,2.773-14.989,2.587-22.593C352.223,127.511,348.257,113.742,341.108,101.741z"/>
	<path style="fill:#83AC16;" d="M324.205,132.753c-0.364-0.035-0.716-0.052-1.056-0.052c-6.1,0-8.381,5.499-9.368,11.987
		l-3.005,19.25c-0.575,5.991-3.561,7.371-8.005,7.371c-1.487,0-3.137-0.154-4.915-0.342l0.493-54.014
		c0-8.254-6.753-15.008-15.008-15.008s-15.008,6.753-15.008,15.008l0.124,87.803c-2.193,0.355-4.198,0.638-5.966,0.638
		c-4.143,0-6.983-1.557-7.881-7.406l-4.009-19.149c-1.401-6.647-4.044-12.229-10.126-12.229c-0.543,0-1.112,0.044-1.711,0.136
		c-7.313,1.123-12.8,8.103-11.254,15.339l7.195,33.24c1.51,7.071,9,15.294,16.235,15.294c0.168,0,0.337-0.004,0.505-0.013
		c7.888-0.424,12.685-1.305,17.046-2.384l0.073,51.537h28.301l0.792-86.856c4.642,0.782,9.47,1.363,17.316,1.363
		c0.165,0,0.33,0,0.498-0.001c6.929-0.021,13.779-8.329,14.839-15.176l5.234-32.593
		C336.602,139.649,331.102,133.415,324.205,132.753z"/>
	<path style="fill:#002669;" d="M115.97,344.194l-17.15-0.206v46.333H88.195v-46.46l-17.072-0.205v-8.464h44.848L115.97,344.194
		L115.97,344.194z"/>
	<path style="fill:#002669;" d="M160.408,345.945v24.394c0,11.269-5.785,20.727-20.785,20.727c-14.819,0-20.579-9.252-20.579-20.727
		v-24.394h10.291v24.394c0,7.236,2.553,12.217,10.263,12.217c7.658,0,10.517-4.929,10.517-12.217v-24.394H160.408z"/>
	<path style="fill:#002669;" d="M177.502,368.454c0,7.762,4.572,13.611,13.899,13.611c4.324,0,8.364-1.152,11.974-3.61h0.102
		l2.804,8.639c-3.763,1.996-9.192,3.972-16.039,3.972c-15.245,0-23.286-10.268-23.286-22.895c0-12.499,7.914-22.996,24.415-22.996
		c6.251,0,10.965,1.435,14.371,3.151l-3.007,8.921h-0.077c-3.456-2.252-7.523-3.122-11.077-3.122
		C182.431,354.125,177.502,360.333,177.502,368.454z"/>
	<path style="fill:#002669;" d="M244.793,356.804c-4.638-2.511-8.276-3.765-12.526-3.765c-5.412,0-8.608,1.971-8.608,5.054
		c0.027,8.43,25.106,4.029,25.106,19.523c0,8.508-7.575,13.577-19.917,13.577c-6.571,0-12.327-1.5-17.221-4.532l2.593-8.48h0.127
		c4.247,3.466,8.419,5.02,14.265,5.02c6.302,0,9.658-1.95,9.658-5.386c-0.026-9.143-25.183-3.62-25.183-19.524
		c0-7.991,6.457-13.218,18.895-13.218c5.461,0,9.689,0.998,15.531,3.61l-2.566,8.121L244.793,356.804L244.793,356.804z"/>
	<path style="fill:#002669;" d="M302.467,367.942c0,13.956-9.781,23.124-24.309,23.124c-14.374,0-23.799-8.937-23.799-22.792
		c0-13.981,9.526-23.099,24.055-23.099C292.865,345.175,302.467,354.139,302.467,367.942z M291.894,368.019
		c0.077-9.097-5.335-14.308-13.404-14.308c-8.147,0-13.506,5.339-13.532,14.486c-0.051,8.97,5.003,14.359,13.175,14.359
		C286.253,382.556,291.843,377.244,291.894,368.019z"/>
	<path style="fill:#002669;" d="M352.127,345.945v44.376h-8.591l-15.192-17.991c-3.532-4.112-7.689-9.588-9.795-12.408
		c0.172,3.595,0.474,10.677,0.474,16.131v14.268h-9.339v-44.376h8.44l15.393,17.94c3.566,4.099,7.733,9.722,9.797,12.562
		c-0.202-3.597-0.5-10.899-0.5-16.234v-14.268L352.127,345.945L352.127,345.945z"/>
	<path style="fill:#002669;" d="M157.488,318.92c0.114,0,0.228,0.022,0.343,0.064c0.114,0.043,0.224,0.117,0.329,0.222l1.916,2.017
		c-0.838,1.097-1.89,1.924-3.154,2.482c-1.264,0.558-2.758,0.837-4.484,0.837c-1.584,0-3.002-0.269-4.256-0.808
		s-2.317-1.283-3.19-2.231c-0.873-0.949-1.543-2.074-2.01-3.376s-0.701-2.715-0.701-4.241c0-1.554,0.267-2.983,0.801-4.284
		c0.534-1.302,1.28-2.425,2.238-3.369c0.958-0.944,2.105-1.678,3.441-2.203c1.335-0.524,2.808-0.787,4.42-0.787
		c0.782,0,1.519,0.069,2.211,0.207c0.691,0.138,1.338,0.329,1.938,0.572c0.602,0.243,1.154,0.534,1.66,0.872
		c0.505,0.339,0.953,0.713,1.344,1.123l-1.63,2.189c-0.105,0.134-0.229,0.255-0.372,0.365c-0.143,0.11-0.343,0.164-0.601,0.164
		c-0.172,0-0.334-0.038-0.486-0.114s-0.315-0.169-0.486-0.279c-0.172-0.11-0.36-0.229-0.565-0.357
		c-0.205-0.129-0.448-0.248-0.73-0.358c-0.281-0.109-0.61-0.203-0.986-0.279c-0.377-0.076-0.818-0.114-1.323-0.114
		c-0.878,0-1.68,0.155-2.404,0.465c-0.725,0.31-1.346,0.754-1.866,1.33c-0.52,0.577-0.925,1.276-1.215,2.096
		c-0.292,0.82-0.437,1.74-0.437,2.761c0,1.068,0.145,2.017,0.437,2.847c0.29,0.83,0.686,1.528,1.187,2.095
		c0.501,0.567,1.085,0.999,1.752,1.295c0.668,0.296,1.383,0.443,2.146,0.443c0.439,0,0.839-0.021,1.201-0.064
		s0.698-0.117,1.009-0.222c0.309-0.105,0.605-0.241,0.886-0.408c0.282-0.167,0.565-0.374,0.851-0.622
		c0.115-0.095,0.238-0.174,0.372-0.236C157.207,318.951,157.345,318.92,157.488,318.92z"/>
	<path style="fill:#002669;" d="M172.268,324.313h-4.864V303.47h4.864V324.313z"/>
	<path style="fill:#002669;" d="M195.845,303.471v3.834h-5.865v17.009h-4.835v-17.009h-5.866v-3.834H195.845z"/>
	<path style="fill:#002669;" d="M214.09,316.388v7.925h-4.835v-7.925l-7.554-12.918h4.263c0.419,0,0.753,0.098,1.001,0.293
		c0.248,0.196,0.449,0.446,0.602,0.751l2.947,6.065c0.238,0.486,0.457,0.935,0.657,1.344c0.201,0.41,0.377,0.816,0.529,1.216
		c0.143-0.41,0.316-0.82,0.515-1.23c0.201-0.41,0.415-0.853,0.643-1.33l2.919-6.065c0.058-0.124,0.136-0.248,0.236-0.372
		c0.1-0.124,0.214-0.236,0.343-0.336s0.277-0.181,0.443-0.243c0.168-0.062,0.351-0.093,0.551-0.093h4.292L214.09,316.388z"/>
	<path style="fill:#002669;" d="M259.923,313.885c0,1.507-0.26,2.909-0.779,4.206c-0.52,1.297-1.252,2.425-2.196,3.383
		c-0.945,0.959-2.082,1.71-3.412,2.253c-1.331,0.544-2.807,0.815-4.428,0.815c-1.622,0-3.1-0.272-4.435-0.815
		s-2.478-1.295-3.426-2.253c-0.949-0.959-1.683-2.086-2.203-3.383s-0.78-2.699-0.78-4.206s0.26-2.909,0.78-4.206
		s1.254-2.422,2.203-3.376c0.948-0.954,2.091-1.702,3.426-2.246c1.335-0.544,2.813-0.816,4.435-0.816
		c1.62,0,3.096,0.274,4.428,0.823c1.33,0.549,2.467,1.3,3.412,2.253c0.943,0.954,1.676,2.079,2.196,3.376
		C259.663,310.991,259.923,312.388,259.923,313.885z M254.973,313.885c0-1.03-0.134-1.957-0.4-2.782
		c-0.268-0.825-0.651-1.523-1.152-2.095c-0.5-0.572-1.113-1.011-1.837-1.316c-0.726-0.305-1.55-0.458-2.475-0.458
		c-0.935,0-1.767,0.152-2.496,0.458c-0.73,0.305-1.344,0.744-1.846,1.316c-0.5,0.572-0.884,1.271-1.151,2.095
		c-0.267,0.825-0.4,1.752-0.4,2.782c0,1.04,0.133,1.972,0.4,2.797s0.651,1.524,1.151,2.095c0.501,0.572,1.116,1.009,1.846,1.309
		s1.561,0.451,2.496,0.451c0.925,0,1.75-0.15,2.475-0.451c0.724-0.3,1.337-0.737,1.837-1.309c0.501-0.572,0.884-1.27,1.152-2.095
		C254.839,315.857,254.973,314.924,254.973,313.885z"/>
	<path style="fill:#002669;" d="M280.968,303.471v3.719h-8.554v5.279h7.125v3.734h-7.125v8.111h-4.863v-20.843H280.968z"/>
</g>
</svg>
