<?xml version="1.0" encoding="iso-8859-1"?>
<!-- Generator: Adobe Illustrator 26.0.2, SVG Export Plug-In . SVG Version: 6.00 Build 0)  -->
<svg version="1.1" id="Logo" xmlns="http://www.w3.org/2000/svg" xmlns:xlink="http://www.w3.org/1999/xlink" x="0px" y="0px"
	 viewBox="0 0 492.09 117.499" style="enable-background:new 0 0 492.09 117.499;" xml:space="preserve">
<g>
	<g>
		<g>
			<path style="fill:#FFFFFF;" d="M196.945,57.137l-21.434-0.257v57.907h-13.279V56.721l-21.337-0.256V45.886h56.05V57.137z"/>
			<path style="fill:#FFFFFF;" d="M252.483,59.325v30.487c0,14.084-7.23,25.904-25.977,25.904
				c-18.521,0-25.719-11.562-25.719-25.904V59.325h12.861v30.487c0,9.043,3.19,15.269,12.827,15.269
				c9.571,0,13.144-6.16,13.144-15.269V59.325H252.483z"/>
			<path style="fill:#FFFFFF;" d="M273.846,87.456c0,9.701,5.714,17.011,17.371,17.011c5.404,0,10.453-1.44,14.965-4.512h0.127
				l3.504,10.797c-4.703,2.494-11.488,4.964-20.046,4.964c-19.053,0-29.103-12.833-29.103-28.614c0-15.621,9.891-28.74,30.514-28.74
				c7.812,0,13.704,1.793,17.961,3.938l-3.758,11.149h-0.096c-4.319-2.814-9.402-3.901-13.844-3.901
				C280.007,69.548,273.846,77.307,273.846,87.456z"/>
			<path style="fill:#FFFFFF;" d="M357.946,72.896c-5.797-3.139-10.344-4.706-15.654-4.706c-6.764,0-10.758,2.463-10.758,6.316
				c0.033,10.535,31.377,5.035,31.377,24.399c0,10.633-9.467,16.969-24.893,16.969c-8.213,0-15.406-1.875-21.522-5.664l3.24-10.598
				h0.159c5.308,4.332,10.521,6.273,17.828,6.273c7.876,0,12.07-2.438,12.07-6.731c-0.032-11.427-31.474-4.524-31.474-24.401
				c0-9.987,8.069-16.52,23.614-16.52c6.825,0,12.109,1.248,19.41,4.512l-3.207,10.149H357.946z"/>
			<path style="fill:#FFFFFF;" d="M430.026,86.816c0,17.442-12.225,28.9-30.381,28.9c-17.965,0-29.744-11.17-29.744-28.485
				c0-17.474,11.905-28.869,30.063-28.869C418.026,58.362,430.026,69.566,430.026,86.816z M416.812,86.913
				c0.097-11.37-6.667-17.882-16.752-17.882c-10.182,0-16.88,6.672-16.912,18.105c-0.063,11.21,6.253,17.946,16.466,17.946
				C409.762,105.081,416.749,98.441,416.812,86.913z"/>
			<path style="fill:#FFFFFF;" d="M492.09,59.325v55.461h-10.736l-18.986-22.485c-4.414-5.139-9.609-11.983-12.242-15.507
				c0.215,4.493,0.593,13.344,0.593,20.161v17.832h-11.672V59.325h10.548l19.238,22.421c4.457,5.123,9.665,12.15,12.244,15.7
				c-0.253-4.495-0.625-13.621-0.625-20.289V59.325H492.09z"/>
		</g>
		<g>
			<path style="fill:#FFFFFF;" d="M159.671,21.018c0.136,0,0.271,0.026,0.408,0.077c0.136,0.051,0.266,0.139,0.391,0.264
				l2.277,2.397c-0.996,1.303-2.246,2.286-3.748,2.949s-3.277,0.995-5.329,0.995c-1.882,0-3.567-0.32-5.058-0.96
				c-1.49-0.64-2.754-1.524-3.791-2.652c-1.037-1.128-1.834-2.465-2.389-4.012s-0.833-3.227-0.833-5.041
				c0-1.847,0.317-3.544,0.952-5.091c0.635-1.547,1.521-2.882,2.66-4.003c1.139-1.122,2.502-1.995,4.089-2.618
				c1.587-0.623,3.337-0.935,5.253-0.935c0.93,0,1.805,0.083,2.627,0.247c0.821,0.165,1.59,0.391,2.303,0.68
				c0.715,0.289,1.371,0.635,1.973,1.037c0.6,0.402,1.133,0.848,1.598,1.334l-1.938,2.601c-0.125,0.159-0.272,0.303-0.442,0.434
				s-0.408,0.195-0.714,0.195c-0.204,0-0.396-0.045-0.578-0.136s-0.374-0.201-0.578-0.332s-0.428-0.272-0.672-0.425
				c-0.243-0.153-0.532-0.295-0.867-0.425c-0.334-0.13-0.725-0.241-1.172-0.332c-0.448-0.09-0.973-0.136-1.572-0.136
				c-1.043,0-1.996,0.184-2.857,0.552c-0.861,0.369-1.6,0.896-2.218,1.581c-0.618,0.686-1.1,1.516-1.444,2.491
				c-0.347,0.975-0.52,2.068-0.52,3.281c0,1.27,0.173,2.397,0.52,3.383c0.345,0.986,0.815,1.816,1.41,2.49
				c0.596,0.674,1.289,1.188,2.082,1.539c0.794,0.352,1.644,0.527,2.551,0.527c0.521,0,0.997-0.025,1.428-0.076
				c0.431-0.051,0.83-0.139,1.199-0.264c0.367-0.125,0.719-0.286,1.053-0.484c0.335-0.198,0.672-0.445,1.012-0.74
				c0.137-0.113,0.283-0.207,0.442-0.28S159.501,21.018,159.671,21.018z"/>
			<path style="fill:#FFFFFF;" d="M177.235,27.427h-5.78V2.658h5.78V27.427z"/>
			<path style="fill:#FFFFFF;" d="M205.254,2.658v4.556h-6.97v20.213h-5.746V7.214h-6.971V2.658H205.254z"/>
			<path style="fill:#FFFFFF;" d="M226.936,18.009v9.418h-5.746v-9.418l-8.977-15.351h5.066c0.498,0,0.895,0.116,1.189,0.349
				s0.533,0.53,0.715,0.893l3.502,7.208c0.283,0.578,0.543,1.111,0.781,1.598c0.238,0.488,0.448,0.969,0.629,1.445
				c0.17-0.487,0.375-0.975,0.612-1.462c0.238-0.487,0.493-1.014,0.765-1.581l3.469-7.208c0.068-0.147,0.161-0.295,0.28-0.442
				c0.119-0.147,0.255-0.28,0.408-0.399c0.153-0.119,0.329-0.215,0.526-0.289c0.199-0.073,0.417-0.11,0.654-0.11h5.101
				L226.936,18.009z"/>
			<path style="fill:#FFFFFF;" d="M281.403,15.034c0,1.791-0.309,3.457-0.926,4.998c-0.618,1.542-1.488,2.881-2.609,4.021
				c-1.123,1.139-2.475,2.032-4.055,2.678c-1.582,0.646-3.336,0.969-5.262,0.969c-1.928,0-3.684-0.323-5.271-0.969
				s-2.944-1.539-4.071-2.678c-1.128-1.139-2-2.479-2.618-4.021c-0.618-1.541-0.927-3.207-0.927-4.998
				c0-1.791,0.309-3.457,0.927-4.998c0.618-1.541,1.49-2.878,2.618-4.012c1.127-1.133,2.484-2.023,4.071-2.669
				s3.343-0.969,5.271-0.969c1.926,0,3.68,0.326,5.262,0.978c1.58,0.652,2.932,1.544,4.055,2.677
				c1.121,1.134,1.991,2.471,2.609,4.012C281.094,11.595,281.403,13.255,281.403,15.034z M275.521,15.034
				c0-1.224-0.159-2.326-0.476-3.307c-0.318-0.98-0.773-1.81-1.369-2.49c-0.595-0.68-1.323-1.201-2.184-1.564
				c-0.862-0.363-1.842-0.544-2.941-0.544c-1.111,0-2.1,0.181-2.967,0.544c-0.867,0.363-1.598,0.884-2.193,1.564
				c-0.595,0.68-1.051,1.51-1.368,2.49c-0.317,0.98-0.476,2.083-0.476,3.307c0,1.235,0.158,2.343,0.476,3.324
				s0.773,1.811,1.368,2.49c0.596,0.68,1.326,1.199,2.193,1.556s1.855,0.536,2.967,0.536c1.1,0,2.079-0.179,2.941-0.536
				c0.86-0.357,1.589-0.875,2.184-1.556c0.596-0.68,1.051-1.51,1.369-2.49C275.362,17.377,275.521,16.269,275.521,15.034z"/>
			<path style="fill:#FFFFFF;" d="M306.413,2.658v4.42h-10.166v6.273h8.467v4.437h-8.467v9.639h-5.779V2.658H306.413z"/>
		</g>
	</g>
	<path style="fill:none;" d="M113.915,50.049c0.059,0.211,0.117,0.423,0.172,0.636C114.032,50.472,113.974,50.26,113.915,50.049z"/>
	<path style="fill:none;" d="M114.16,50.978c0.04,0.161,0.081,0.323,0.118,0.485C114.241,51.301,114.2,51.14,114.16,50.978z"/>
	<path style="fill:none;" d="M114.52,52.591c0.03,0.15,0.059,0.301,0.087,0.452C114.578,52.892,114.549,52.741,114.52,52.591z"/>
	<path style="fill:none;" d="M113.655,49.162c0.068,0.219,0.133,0.439,0.196,0.66C113.788,49.602,113.723,49.381,113.655,49.162z"/>
	<path style="fill:none;" d="M114.351,51.79c0.034,0.153,0.068,0.306,0.1,0.46C114.42,52.096,114.385,51.943,114.351,51.79z"/>
	<path style="fill:none;" d="M112.58,46.198c0.051,0.123,0.102,0.247,0.152,0.371C112.681,46.445,112.631,46.321,112.58,46.198z"/>
	<path style="fill:none;" d="M112.873,46.926c0.05,0.128,0.098,0.257,0.147,0.386C112.972,47.183,112.923,47.054,112.873,46.926z"/>
	<path style="fill:none;" d="M112.27,45.479c0.053,0.119,0.105,0.239,0.157,0.359C112.375,45.717,112.323,45.598,112.27,45.479z"/>
	<path style="fill:none;" d="M113.151,47.663c0.049,0.136,0.096,0.272,0.144,0.408C113.247,47.935,113.2,47.798,113.151,47.663z"/>
	<path style="fill:none;" d="M113.411,48.409c0.05,0.15,0.098,0.3,0.146,0.451C113.51,48.709,113.462,48.558,113.411,48.409z"/>
	<path style="fill:none;" d="M115.116,57.468c0.009,0.184,0.015,0.368,0.021,0.552C115.131,57.836,115.125,57.651,115.116,57.468z"
		/>
	<path style="fill:none;" d="M115.146,58.297c0.007,0.277,0.011,0.555,0.011,0.834C115.157,58.852,115.153,58.574,115.146,58.297z"
		/>
	<path style="fill:none;" d="M115.065,56.643c0.012,0.165,0.022,0.33,0.031,0.496C115.087,56.973,115.077,56.808,115.065,56.643z"/>
	<path style="fill:none;" d="M114.668,53.394c0.026,0.15,0.051,0.299,0.075,0.45C114.718,53.693,114.693,53.543,114.668,53.394z"/>
	<path style="fill:none;" d="M114.796,54.199c0.022,0.151,0.043,0.302,0.063,0.453C114.839,54.501,114.818,54.349,114.796,54.199z"
		/>
	<path style="fill:none;" d="M114.995,55.824c0.015,0.157,0.029,0.315,0.042,0.473C115.024,56.139,115.01,55.981,114.995,55.824z"/>
	<path style="fill:none;" d="M114.905,55.009c0.019,0.153,0.036,0.306,0.052,0.459C114.941,55.315,114.924,55.162,114.905,55.009z"
		/>
	<path style="fill:none;" d="M110.544,42.12c0.042,0.071,0.084,0.141,0.126,0.213C110.628,42.261,110.585,42.191,110.544,42.12z"/>
	<path style="fill:none;" d="M111.944,44.769c0.055,0.116,0.109,0.232,0.163,0.349C112.053,45.001,111.999,44.885,111.944,44.769z"
		/>
	<path style="fill:none;" d="M110.885,42.717c0.056,0.099,0.112,0.198,0.166,0.298C110.997,42.914,110.941,42.816,110.885,42.717z"
		/>
	<path style="fill:none;" d="M111.249,43.383c0.057,0.107,0.114,0.214,0.17,0.322C111.363,43.598,111.306,43.491,111.249,43.383z"/>
	<path style="fill:none;" d="M111.604,44.07c0.056,0.112,0.112,0.224,0.167,0.336C111.716,44.294,111.66,44.182,111.604,44.07z"/>
	<path style="fill:none;" d="M109.887,41.046c0.021,0.033,0.041,0.066,0.061,0.098C109.928,41.111,109.908,41.078,109.887,41.046z"
		/>
	<polygon style="fill:none;" points="17.263,45.424 23.155,41.539 23.155,35.308 17.263,39.193 	"/>
	<polygon style="fill:none;" points="17.263,35.015 23.155,31.13 23.155,24.899 17.263,28.784 	"/>
	<g>
		<polygon style="fill:#FFFFFF;" points="7.968,41.134 13.859,37.249 13.859,31.017 7.968,34.903 		"/>
		<polygon style="fill:#FFFFFF;" points="17.263,35.015 23.155,31.13 23.155,24.899 17.263,28.784 		"/>
		<polygon style="fill:#FFFFFF;" points="7.968,51.571 13.859,47.686 13.859,41.454 7.968,45.34 		"/>
		<polygon style="fill:#FFFFFF;" points="7.968,62.022 13.859,58.136 13.859,51.905 7.968,55.791 		"/>
		<polygon style="fill:#FFFFFF;" points="17.263,45.424 23.155,41.539 23.155,35.308 17.263,39.193 		"/>
		<polygon style="fill:#FFFFFF;" points="17.263,55.914 23.155,52.029 23.155,45.798 17.263,49.683 		"/>
		<polygon style="fill:#FFFFFF;" points="26.559,39.329 32.45,35.443 32.45,29.212 26.559,33.097 		"/>
	</g>
	<polygon style="fill:none;" points="17.263,45.424 23.155,41.539 23.155,35.308 17.263,39.193 	"/>
	<polygon style="fill:none;" points="17.263,35.015 23.155,31.13 23.155,24.899 17.263,28.784 	"/>
	<polygon style="fill:none;" points="17.263,45.424 23.155,41.539 23.155,35.308 17.263,39.193 	"/>
	<polygon style="fill:none;" points="17.263,35.015 23.155,31.13 23.155,24.899 17.263,28.784 	"/>
	<polygon style="fill:none;" points="17.263,45.424 23.155,41.539 23.155,35.308 17.263,39.193 	"/>
	<polygon style="fill:none;" points="17.263,35.015 23.155,31.13 23.155,24.899 17.263,28.784 	"/>
	<path style="fill:none;" d="M107.638,37.933c0.059,0.072,0.117,0.145,0.175,0.217C107.755,38.077,107.697,38.005,107.638,37.933z"
		/>
	<path style="fill:none;" d="M106.663,36.786c0.053,0.06,0.106,0.119,0.159,0.179C106.769,36.905,106.716,36.846,106.663,36.786z"/>
	<path style="fill:none;" d="M106.174,36.248c0.044,0.047,0.088,0.094,0.132,0.142C106.262,36.342,106.218,36.295,106.174,36.248z"
		/>
	<path style="fill:none;" d="M108.113,38.53c0.059,0.076,0.117,0.152,0.175,0.228C108.229,38.682,108.171,38.606,108.113,38.53z"/>
	<path style="fill:none;" d="M105.712,35.76c0.021,0.022,0.043,0.044,0.065,0.066C105.756,35.804,105.734,35.782,105.712,35.76z"/>
	<path style="fill:none;" d="M108.576,39.142c0.057,0.077,0.114,0.155,0.17,0.233C108.69,39.297,108.633,39.219,108.576,39.142z"/>
	<path style="fill:none;" d="M107.154,37.35c0.057,0.067,0.114,0.134,0.171,0.202C107.268,37.485,107.211,37.417,107.154,37.35z"/>
	<path style="fill:none;" d="M109.464,40.399c0.05,0.074,0.098,0.149,0.147,0.223C109.561,40.548,109.513,40.473,109.464,40.399z"/>
	<path style="fill:none;" d="M109.026,39.764c0.055,0.078,0.109,0.158,0.164,0.237C109.135,39.922,109.081,39.843,109.026,39.764z"
		/>
	<path style="fill:none;" d="M105.676,55.516c0.035,0.026,0.071,0.051,0.106,0.078C105.747,55.567,105.712,55.542,105.676,55.516z"
		/>
	<path style="fill:none;" d="M106.013,55.78c0.038,0.032,0.074,0.065,0.11,0.098C106.087,55.845,106.051,55.812,106.013,55.78z"/>
	<polygon style="fill:none;" points="104.695,54.952 104.695,54.952 104.696,54.953 	"/>
	<path style="fill:none;" d="M105.379,55.315c0.012,0.008,0.025,0.014,0.037,0.022C105.403,55.329,105.391,55.322,105.379,55.315z"
		/>
	<path style="fill:none;" d="M106.335,56.077c0.031,0.031,0.06,0.065,0.09,0.097C106.395,56.142,106.366,56.109,106.335,56.077z"/>
	<polygon style="fill:none;" points="23.155,35.308 17.263,39.193 17.263,45.424 23.155,41.539 	"/>
	<polygon style="fill:none;" points="23.155,24.899 17.263,28.784 17.263,35.015 23.155,31.13 	"/>
	<g>
		<polygon style="fill:#FFFFFF;" points="17.263,55.914 23.155,52.029 23.155,45.798 17.263,49.683 		"/>
		<polygon style="fill:#FFFFFF;" points="17.263,45.424 23.155,41.539 23.155,35.308 17.263,39.193 		"/>
		<polygon style="fill:#FFFFFF;" points="17.263,35.015 23.155,31.13 23.155,24.899 17.263,28.784 		"/>
		<polygon style="fill:#FFFFFF;" points="7.968,41.134 13.859,37.249 13.859,31.017 7.968,34.903 		"/>
		<polygon style="fill:#FFFFFF;" points="7.968,62.022 13.859,58.136 13.859,51.905 7.968,55.79 		"/>
		<polygon style="fill:#FFFFFF;" points="7.968,51.571 13.859,47.686 13.859,41.454 7.968,45.34 		"/>
		<path style="fill:#FFFFFF;" d="M116.046,51.225c-0.755-3.33-2-6.545-3.683-9.516c-1.58-2.788-3.544-5.355-5.81-7.621
			c-2.544-2.543-5.467-4.703-8.656-6.369c-1.581-0.826-3.226-1.532-4.915-2.107c-0.415-0.141-0.833-0.275-1.252-0.401
			c-0.17-0.051-0.421-0.078-0.57-0.172c-0.055-0.035-0.104-0.106-0.15-0.153c-0.721-0.734-1.443-1.469-2.165-2.203
			c-1.286-1.309-2.573-2.619-3.859-3.928c-1.497-1.524-2.994-3.048-4.492-4.572c-1.333-1.356-2.665-2.713-3.998-4.069
			c-0.814-0.828-1.628-1.657-2.441-2.485c-0.095-0.097-0.211-0.269-0.338-0.308c-0.094-0.029-0.242,0-0.34,0
			c-0.211,0-0.423,0-0.634,0c-0.516,0-1.031,0-1.547,0c-0.397,0-0.794,0-1.191,0c-0.131,0-0.127,0.001-0.222-0.066
			c-0.438-0.303-0.831-0.711-1.235-1.057c-1.528-1.308-3.055-2.615-4.583-3.923c-0.644-0.551-1.288-1.102-1.932-1.654
			c-0.186-0.159-0.372-0.318-0.558-0.478C61.444,0.117,61.349,0.003,61.305,0c-0.081-0.005-0.295,0.194-0.359,0.236
			c-0.316,0.208-0.632,0.416-0.948,0.623c-1.101,0.724-2.201,1.448-3.302,2.173c-1.543,1.015-3.086,2.03-4.628,3.045
			c-1.77,1.165-3.54,2.329-5.31,3.494c-1.757,1.156-3.514,2.312-5.272,3.469c-1.529,1.006-3.058,2.012-4.587,3.018
			c-1.081,0.711-2.163,1.423-3.244,2.134c-0.297,0.196-0.595,0.391-0.892,0.587c-0.072,0.048-0.22,0.192-0.309,0.202
			c-0.101,0.011-0.314-0.128-0.405-0.165c-0.32-0.131-0.641-0.262-0.961-0.392c-0.941-0.384-1.882-0.768-2.823-1.152
			c-0.846-0.345-1.692-0.691-2.538-1.036c-0.177-0.072-0.525-0.3-0.71-0.253c-0.19,0.048-0.424,0.278-0.585,0.384
			c-0.407,0.267-0.814,0.534-1.221,0.801c-1.292,0.848-2.584,1.696-3.876,2.544c-1.686,1.106-3.371,2.212-5.057,3.318
			c-1.79,1.175-3.58,2.349-5.37,3.524c-1.58,1.037-3.159,2.073-4.739,3.11c-1.08,0.709-2.16,1.418-3.241,2.126
			c-0.261,0.171-0.521,0.342-0.782,0.513c-0.057,0.038-0.11,0.059-0.133,0.113c-0.029,0.07,0,0.215,0,0.289c0,0.198,0,0.397,0,0.595
			c0,0.677,0,1.353,0,2.03c0,1.015,0,2.03,0,3.044c0,1.316,0,2.631,0,3.947c0,1.56,0,3.12,0,4.681c0,1.766,0,3.532,0,5.298
			c0,1.937,0,3.874,0,5.811c0,2.046,0,4.093,0,6.139c0,2.12,0,4.24,0,6.36c0,2.149,0,4.299,0,6.448c0,2.145,0,4.289,0,6.434
			c0,2.076,0,4.152,0,6.228c0,1.973,0,3.947,0,5.92c0,1.834,0,3.669,0,5.503c0,1.635,0,3.269,0,4.904c0,1.4,0,2.799,0,4.199
			c0,1.121,0,2.241,0,3.362c0,0.8,0,1.6,0,2.401c0,0.428,0,0.857,0,1.285c0,0.027-0.02,0.168,0,0.188
			c0.018,0.018,0.132,0.001,0.158,0.001c0.224,0,0.447,0,0.67,0c0.405,0,0.811,0,1.216,0c0.193,0,0.387,0,0.58,0
			c0.554,0,1.107,0,1.661,0c0.882,0,1.765,0,2.647,0c1.179,0,2.359,0,3.538,0c1.428,0,2.855,0,4.283,0c1.643,0,3.285,0,4.928,0
			c1.828,0,3.657,0,5.486,0c1.96,0,3.919,0,5.879,0c2.061,0,4.122,0,6.183,0c2.124,0,4.248,0,6.373,0c2.159,0,4.319,0,6.478,0
			c2.137,0,4.274,0,6.411,0c2.087,0,4.173,0,6.26,0c2.007,0,4.014,0,6.021,0c1.871,0,3.742,0,5.614,0c1.707,0,3.414,0,5.12,0
			c1.505,0,3.009,0,4.514,0c1.27,0,2.539,0,3.809,0c0.985,0,1.97,0,2.955,0c0.669,0,1.338,0,2.007,0c0.205,0,0.41,0,0.614,0
			c0.084,0,0.254,0.034,0.332,0c0.086-0.037,0.023,0.034,0.058-0.076c0.029-0.088,0.002-0.234,0.002-0.326
			c0.001-0.187,0.003-0.375,0.004-0.562c0.01-1.37,0.02-2.739,0.03-4.109c0.015-2.001,0.029-4.001,0.044-6.002
			c0.016-2.111,0.031-4.223,0.047-6.334c0.013-1.73,0.026-3.46,0.038-5.19c0.004-0.568,0.008-1.135,0.013-1.703
			c0.001-0.181,0.003-0.361,0.004-0.542c0.001-0.084-0.026-0.224,0.002-0.304c0.005-0.014-0.008-0.042,0-0.055
			c0.022-0.033,0.145-0.058,0.185-0.074c0.216-0.082,0.43-0.167,0.644-0.253c0.84-0.34,1.667-0.712,2.479-1.116
			c1.629-0.811,3.195-1.749,4.68-2.803c2.924-2.076,5.532-4.598,7.71-7.446c2.079-2.719,3.76-5.738,4.968-8.941
			c1.218-3.229,1.951-6.636,2.184-10.079C117.078,58.107,116.814,54.61,116.046,51.225z M19.068,73.644h-2.59v41.633H2.077V33.504
			l23.199-15.223l7.406,3.023L61.144,2.577l7.954,6.808h3.789L87.452,24.21c-1.096-0.184-2.205-0.319-3.325-0.4L71.916,11.298
			l-4.066-0.03l-6.707-5.773l-3.115,9.952l3.219,3.749l-0.055,10.917c-1.67,1.174-3.25,2.502-4.724,3.975
			c-3.232,3.232-5.76,6.979-7.512,11.056h0c-3.585,2.536-6.341,6.165-7.777,10.406h-4.553v4.448h-4.812
			C31.815,67.239,26.188,73.163,19.068,73.644z M54.043,102.63c0.063,0.881,0.869,1.68,0.625,2.529
			c-0.176,0.608-0.817,0.936-1.396,1.191c-5.417,2.381-15.279,5.517-22.325,8.928H23.94V79.615
			c7.547-0.042,13.655-6.159,13.698-13.716h4.882v-4.444h4.878c0.69-6.974,6.564-12.422,13.71-12.422
			c7.146,0,13.02,5.448,13.71,12.422h4.032l0.03,21.52c-0.299,0.032-0.588,0.052-0.848,0.052c-0.919,0-1.411-0.075-1.658-1.688
			l-0.007-0.043l-0.009-0.043l-1.652-7.891c-0.378-1.793-0.911-3.151-1.63-4.154c-1.015-1.415-2.438-2.164-4.117-2.164
			c-0.306,0-0.626,0.025-0.949,0.075c-1.974,0.303-3.758,1.422-4.896,3.071c-1.071,1.553-1.451,3.391-1.07,5.175l2.965,13.701
			c0.374,1.749,1.431,3.589,2.9,5.046c0.282,0.28,0.575,0.53,0.871,0.766c-4.289,1.701-9.381,3.063-13.055,5.396
			C54.869,100.819,53.971,101.617,54.043,102.63z M56.06,115.277c2.75-2.068,5.587-4.345,7.205-5.847
			c0.521-0.484,1.037-1,1.334-1.646c0.566-1.23,0.157-2.83-0.929-3.638c-0.609-0.453-1.477-0.798-1.554-1.554
			c-0.072-0.71,0.627-1.23,1.242-1.593c2.448-1.445,5.563-3.046,8.379-4.576c0.513,0.136,1.027,0.213,1.535,0.213
			c0.098,0,0.197-0.003,0.294-0.008c2.301-0.124,3.977-0.341,5.333-0.592l0.027,19.241H56.06z M92.522,79.488l-0.326,35.79H80.534
			l-0.03-21.236c-1.797,0.445-3.774,0.808-7.024,0.982c-0.069,0.004-0.139,0.006-0.208,0.006c-2.981,0-6.068-3.388-6.69-6.302
			L63.618,75.03c-0.637-2.982,1.624-5.858,4.637-6.321c0.247-0.038,0.481-0.056,0.705-0.056c2.506,0,3.595,2.3,4.173,5.039
			l1.652,7.891c0.37,2.41,1.54,3.052,3.248,3.052c0.729,0,1.555-0.117,2.458-0.263l-0.051-36.18c0-3.401,2.783-6.184,6.184-6.184
			s6.184,2.783,6.184,6.184l-0.203,22.257c0.733,0.077,1.413,0.141,2.025,0.141c1.831,0,3.062-0.569,3.298-3.037l1.238-7.932
			c0.407-2.674,1.347-4.94,3.86-4.94c0.14,0,0.285,0.007,0.435,0.021c2.842,0.273,5.108,2.841,4.672,5.663l-2.157,13.43
			c-0.437,2.821-3.26,6.245-6.115,6.254c-0.069,0-0.137,0-0.205,0C96.424,80.049,94.435,79.81,92.522,79.488z M114.08,67.606
			c-1.324,5.101-3.869,9.859-7.36,13.805c-3.464,3.915-7.836,7.006-12.688,8.953l0.082-9.015c1.533,0.192,3.236,0.308,5.544,0.308
			l0.21,0c1.778-0.005,3.604-0.925,5.141-2.589c1.357-1.469,2.289-3.298,2.557-5.019l2.156-13.429l0.001-0.004l0.001-0.004
			c0.266-1.717-0.195-3.443-1.296-4.86c-1.168-1.503-2.922-2.468-4.811-2.65c-0.199-0.019-0.397-0.029-0.588-0.029
			c-1.703,0-3.107,0.755-4.059,2.184c-0.667,1.001-1.122,2.349-1.392,4.122l-1.237,7.926l-0.007,0.047l-0.005,0.047
			c-0.066,0.684-0.226,1.16-0.452,1.34c-0.202,0.161-0.621,0.243-1.245,0.243c-0.13,0-0.265-0.003-0.404-0.01l0.189-20.766v-0.007
			v-0.007c0-4.297-3.495-7.792-7.792-7.792s-7.792,3.496-7.792,7.792l0.003,2c-0.052-0.021-0.109-0.032-0.158-0.058
			c0.006,0.264,0.012,0.529,0.012,0.789c-1.137-1.763-2.538-3.354-4.143-4.705c-2.894-2.437-6.435-4.064-10.172-4.659
			c-4.294-0.684-8.761-0.01-12.654,1.929c0.344-0.653,0.705-1.295,1.091-1.923c3.027-4.927,7.316-9.045,12.37-11.857
			c4.842-2.694,10.328-4.146,15.868-4.22c6.065-0.082,12.121,1.494,17.363,4.546c4.926,2.868,9.098,6.992,12.015,11.889
			c2.946,4.945,4.58,10.619,4.719,16.373C115.223,61.43,114.868,64.572,114.08,67.606z"/>
		<polygon style="fill:#FFFFFF;" points="32.45,29.212 26.559,33.097 26.559,39.329 32.45,35.443 		"/>
	</g>
</g>
</svg>
