<?xml version="1.0" encoding="iso-8859-1"?>
<!-- Generator: Adobe Illustrator 26.0.3, SVG Export Plug-In . SVG Version: 6.00 Build 0)  -->
<svg version="1.1" id="Logo" xmlns="http://www.w3.org/2000/svg" xmlns:xlink="http://www.w3.org/1999/xlink" x="0px" y="0px"
	 viewBox="0 0 683.902 186.042" style="enable-background:new 0 0 683.902 186.042;" xml:space="preserve">
<g>
	<path style="fill:#FFFFFF;" d="M158.637,177.715h-4.728v-20.26h4.728V177.715z"/>
	<path style="fill:#FFFFFF;" d="M182.905,157.455v20.26h-2.447c-0.362,0-0.666-0.058-0.911-0.174
		c-0.246-0.115-0.489-0.317-0.73-0.605l-9.553-12.083c0.037,0.361,0.062,0.712,0.077,1.05c0.014,0.339,0.021,0.656,0.021,0.953
		v10.859h-4.144v-20.26h2.475c0.204,0,0.376,0.01,0.515,0.027c0.139,0.02,0.265,0.054,0.376,0.104
		c0.11,0.052,0.217,0.123,0.319,0.216c0.102,0.093,0.218,0.218,0.348,0.375l9.637,12.168c-0.047-0.39-0.079-0.768-0.098-1.134
		s-0.028-0.712-0.028-1.036v-10.721H182.905z"/>
	<path style="fill:#FFFFFF;" d="M194.22,161.071v5.131h6.925v3.629h-6.925v7.885h-4.728v-20.26h13.043v3.615H194.22z"/>
	<path style="fill:#FFFFFF;" d="M227.103,167.578c0,1.465-0.252,2.827-0.758,4.088c-0.505,1.261-1.217,2.357-2.134,3.289
		c-0.918,0.932-2.023,1.661-3.316,2.189c-1.294,0.528-2.729,0.793-4.304,0.793c-1.576,0-3.013-0.265-4.311-0.793
		s-2.408-1.258-3.331-2.189c-0.922-0.932-1.636-2.028-2.141-3.289c-0.506-1.261-0.758-2.623-0.758-4.088s0.252-2.827,0.758-4.088
		c0.505-1.261,1.219-2.355,2.141-3.282c0.923-0.927,2.033-1.654,3.331-2.183c1.298-0.529,2.734-0.793,4.311-0.793
		c1.575,0,3.01,0.267,4.304,0.8c1.293,0.533,2.398,1.263,3.316,2.19c0.917,0.927,1.629,2.021,2.134,3.281
		C226.851,164.765,227.103,166.123,227.103,167.578z M222.293,167.578c0-1.001-0.13-1.902-0.39-2.705
		c-0.26-0.801-0.633-1.48-1.119-2.037c-0.487-0.556-1.083-0.982-1.787-1.279c-0.704-0.296-1.507-0.444-2.405-0.444
		c-0.909,0-1.718,0.148-2.427,0.444c-0.709,0.297-1.307,0.724-1.794,1.279c-0.486,0.557-0.859,1.236-1.119,2.037
		c-0.26,0.803-0.39,1.704-0.39,2.705c0,1.01,0.13,1.916,0.39,2.719c0.26,0.802,0.633,1.48,1.119,2.037
		c0.487,0.556,1.085,0.98,1.794,1.271c0.709,0.293,1.518,0.438,2.427,0.438c0.898,0,1.701-0.146,2.405-0.438
		c0.704-0.291,1.3-0.716,1.787-1.271c0.486-0.557,0.859-1.235,1.119-2.037C222.163,169.494,222.293,168.588,222.293,167.578z"/>
	<path style="fill:#FFFFFF;" d="M249.132,177.715h-4.255c-0.788,0-1.354-0.297-1.696-0.89l-3.365-5.882
		c-0.157-0.251-0.333-0.434-0.528-0.55c-0.194-0.115-0.473-0.174-0.834-0.174h-1.196v7.495h-4.699v-20.26h6.591
		c1.465,0,2.714,0.15,3.747,0.452c1.034,0.301,1.878,0.721,2.531,1.258c0.653,0.538,1.128,1.173,1.425,1.905
		s0.445,1.529,0.445,2.392c0,0.658-0.088,1.279-0.265,1.863c-0.176,0.584-0.436,1.124-0.778,1.62s-0.768,0.938-1.272,1.328
		c-0.505,0.389-1.087,0.709-1.745,0.959c0.306,0.158,0.594,0.354,0.862,0.592c0.269,0.236,0.51,0.517,0.723,0.841L249.132,177.715z
		 M239.148,166.981c0.64,0,1.184-0.082,1.634-0.244c0.449-0.162,0.818-0.387,1.105-0.674s0.496-0.623,0.626-1.008
		s0.194-0.8,0.194-1.245c0-0.89-0.29-1.585-0.869-2.086c-0.579-0.5-1.477-0.751-2.69-0.751h-1.892v6.008H239.148z"/>
	<path style="fill:#FFFFFF;" d="M276.218,157.455v20.26h-4.144v-11.652c0-0.27,0.007-0.561,0.021-0.876s0.039-0.635,0.077-0.96
		l-5.382,10.415c-0.167,0.325-0.392,0.57-0.675,0.737c-0.282,0.167-0.604,0.25-0.966,0.25h-0.64c-0.361,0-0.684-0.083-0.967-0.25
		c-0.282-0.167-0.507-0.412-0.674-0.737l-5.382-10.442c0.028,0.334,0.051,0.66,0.069,0.98c0.019,0.319,0.028,0.613,0.028,0.883
		v11.652h-4.144v-20.26h3.587c0.204,0,0.383,0.005,0.536,0.014c0.152,0.01,0.289,0.037,0.41,0.084
		c0.12,0.046,0.229,0.117,0.326,0.215c0.098,0.098,0.192,0.234,0.285,0.41l5.215,10.276c0.185,0.353,0.363,0.719,0.535,1.099
		c0.171,0.38,0.336,0.77,0.493,1.168c0.158-0.408,0.322-0.807,0.494-1.196c0.171-0.39,0.354-0.76,0.549-1.112l5.201-10.234
		c0.092-0.176,0.188-0.312,0.285-0.41c0.097-0.098,0.206-0.169,0.326-0.215c0.12-0.047,0.258-0.074,0.41-0.084
		c0.153-0.009,0.331-0.014,0.535-0.014H276.218z"/>
	<path style="fill:#FFFFFF;" d="M300.965,177.715h-3.644c-0.407,0-0.736-0.095-0.987-0.285c-0.25-0.189-0.44-0.434-0.569-0.73
		l-1.196-3.531h-7.703l-1.196,3.531c-0.102,0.26-0.285,0.494-0.549,0.703c-0.265,0.208-0.591,0.312-0.98,0.312h-3.671l7.843-20.26
		h4.811L300.965,177.715z M293.498,169.97l-1.878-5.548c-0.139-0.353-0.287-0.768-0.444-1.245c-0.158-0.478-0.315-0.994-0.473-1.55
		c-0.14,0.565-0.288,1.089-0.445,1.57c-0.158,0.482-0.306,0.9-0.445,1.252l-1.863,5.521H293.498z"/>
	<path style="fill:#FFFFFF;" d="M317.647,161.182h-5.701v16.533h-4.7v-16.533h-5.701v-3.727h16.103V161.182z"/>
	<path style="fill:#FFFFFF;" d="M327.016,177.715h-4.728v-20.26h4.728V177.715z"/>
	<path style="fill:#FFFFFF;" d="M353.558,167.578c0,1.465-0.252,2.827-0.758,4.088c-0.505,1.261-1.217,2.357-2.134,3.289
		c-0.918,0.932-2.023,1.661-3.316,2.189c-1.294,0.528-2.729,0.793-4.304,0.793c-1.576,0-3.013-0.265-4.311-0.793
		s-2.408-1.258-3.331-2.189c-0.922-0.932-1.636-2.028-2.141-3.289c-0.506-1.261-0.758-2.623-0.758-4.088s0.252-2.827,0.758-4.088
		c0.505-1.261,1.219-2.355,2.141-3.282c0.923-0.927,2.033-1.654,3.331-2.183c1.298-0.529,2.734-0.793,4.311-0.793
		c1.575,0,3.01,0.267,4.304,0.8c1.293,0.533,2.398,1.263,3.316,2.19c0.917,0.927,1.629,2.021,2.134,3.281
		C353.306,164.765,353.558,166.123,353.558,167.578z M348.748,167.578c0-1.001-0.13-1.902-0.39-2.705
		c-0.26-0.801-0.633-1.48-1.119-2.037c-0.487-0.556-1.083-0.982-1.787-1.279c-0.704-0.296-1.507-0.444-2.405-0.444
		c-0.909,0-1.718,0.148-2.427,0.444c-0.709,0.297-1.307,0.724-1.794,1.279c-0.486,0.557-0.859,1.236-1.119,2.037
		c-0.26,0.803-0.39,1.704-0.39,2.705c0,1.01,0.13,1.916,0.39,2.719c0.26,0.802,0.633,1.48,1.119,2.037
		c0.487,0.556,1.085,0.98,1.794,1.271c0.709,0.293,1.518,0.438,2.427,0.438c0.898,0,1.701-0.146,2.405-0.438
		c0.704-0.291,1.3-0.716,1.787-1.271c0.486-0.557,0.859-1.235,1.119-2.037C348.618,169.494,348.748,168.588,348.748,167.578z"/>
	<path style="fill:#FFFFFF;" d="M376.7,157.455v20.26h-2.447c-0.362,0-0.666-0.058-0.911-0.174c-0.246-0.115-0.489-0.317-0.73-0.605
		l-9.553-12.083c0.037,0.361,0.062,0.712,0.077,1.05c0.014,0.339,0.021,0.656,0.021,0.953v10.859h-4.144v-20.26h2.475
		c0.204,0,0.376,0.01,0.515,0.027c0.139,0.02,0.265,0.054,0.376,0.104c0.11,0.052,0.217,0.123,0.319,0.216
		c0.102,0.093,0.218,0.218,0.348,0.375l9.637,12.168c-0.047-0.39-0.079-0.768-0.098-1.134s-0.028-0.712-0.028-1.036v-10.721H376.7z"
		/>
	<path style="fill:#FFFFFF;" d="M407.166,161.182h-5.701v16.533h-4.7v-16.533h-5.701v-3.727h16.103V161.182z"/>
	<path style="fill:#FFFFFF;" d="M416.537,161.071v4.728h6.368v3.477h-6.368v4.825h8.315v3.615h-13.043v-20.26h13.043v3.615H416.537z
		"/>
	<path style="fill:#FFFFFF;" d="M443.791,172.473c0.111,0,0.223,0.021,0.334,0.062s0.218,0.113,0.32,0.216l1.863,1.96
		c-0.816,1.066-1.838,1.871-3.066,2.413s-2.682,0.813-4.359,0.813c-1.539,0-2.918-0.262-4.137-0.786
		c-1.219-0.523-2.253-1.246-3.101-2.169c-0.849-0.922-1.5-2.016-1.954-3.281s-0.682-2.64-0.682-4.123
		c0-1.511,0.246-2.899,0.737-4.165c0.491-1.265,1.182-2.356,2.072-3.274c0.89-0.918,1.955-1.631,3.198-2.142
		c1.241-0.51,2.609-0.765,4.102-0.765c0.76,0,1.477,0.067,2.148,0.201c0.672,0.135,1.3,0.32,1.884,0.557s1.122,0.521,1.613,0.855
		s0.927,0.695,1.307,1.084l-1.585,2.128c-0.102,0.13-0.223,0.248-0.361,0.354s-0.334,0.16-0.584,0.16
		c-0.167,0-0.324-0.037-0.473-0.111s-0.306-0.164-0.473-0.271c-0.167-0.106-0.351-0.223-0.55-0.348s-0.436-0.24-0.709-0.348
		c-0.273-0.106-0.593-0.196-0.959-0.271s-0.795-0.111-1.286-0.111c-0.779,0-1.49,0.144-2.135,0.431s-1.201,0.707-1.669,1.259
		s-0.829,1.229-1.084,2.03c-0.256,0.802-0.383,1.717-0.383,2.746c0,1.038,0.142,1.961,0.424,2.768
		c0.283,0.806,0.668,1.485,1.154,2.037c0.486,0.551,1.055,0.971,1.703,1.258c0.649,0.287,1.345,0.432,2.086,0.432
		c0.427,0,0.815-0.021,1.168-0.063s0.682-0.11,0.987-0.208c0.307-0.098,0.594-0.228,0.862-0.39s0.542-0.368,0.82-0.618
		c0.111-0.093,0.231-0.17,0.361-0.23C443.517,172.503,443.652,172.473,443.791,172.473z"/>
	<path style="fill:#FFFFFF;" d="M468.549,157.455v20.26h-4.729v-8.565h-8.231v8.565h-4.728v-20.26h4.728v8.469h8.231v-8.469H468.549
		z"/>
	<path style="fill:#FFFFFF;" d="M492.824,157.455v20.26h-2.447c-0.362,0-0.666-0.058-0.911-0.174
		c-0.246-0.115-0.489-0.317-0.73-0.605l-9.553-12.083c0.037,0.361,0.062,0.712,0.077,1.05c0.014,0.339,0.021,0.656,0.021,0.953
		v10.859h-4.144v-20.26h2.475c0.204,0,0.376,0.01,0.515,0.027c0.139,0.02,0.265,0.054,0.376,0.104
		c0.11,0.052,0.217,0.123,0.319,0.216c0.102,0.093,0.218,0.218,0.348,0.375l9.637,12.168c-0.047-0.39-0.079-0.768-0.098-1.134
		s-0.028-0.712-0.028-1.036v-10.721H492.824z"/>
	<path style="fill:#FFFFFF;" d="M519.323,167.578c0,1.465-0.252,2.827-0.758,4.088c-0.505,1.261-1.217,2.357-2.134,3.289
		c-0.918,0.932-2.023,1.661-3.316,2.189c-1.294,0.528-2.728,0.793-4.304,0.793c-1.576,0-3.013-0.265-4.311-0.793
		s-2.408-1.258-3.331-2.189c-0.922-0.932-1.636-2.028-2.141-3.289c-0.506-1.261-0.758-2.623-0.758-4.088s0.252-2.827,0.758-4.088
		c0.505-1.261,1.219-2.355,2.141-3.282c0.923-0.927,2.033-1.654,3.331-2.183c1.298-0.529,2.734-0.793,4.311-0.793
		c1.575,0,3.01,0.267,4.304,0.8c1.293,0.533,2.398,1.263,3.316,2.19c0.917,0.927,1.629,2.021,2.134,3.281
		C519.071,164.765,519.323,166.123,519.323,167.578z M514.512,167.578c0-1.001-0.13-1.902-0.39-2.705
		c-0.26-0.801-0.633-1.48-1.119-2.037c-0.487-0.556-1.083-0.982-1.787-1.279c-0.704-0.296-1.507-0.444-2.405-0.444
		c-0.909,0-1.718,0.148-2.427,0.444c-0.709,0.297-1.307,0.724-1.794,1.279c-0.486,0.557-0.859,1.236-1.119,2.037
		c-0.26,0.803-0.39,1.704-0.39,2.705c0,1.01,0.13,1.916,0.39,2.719c0.26,0.802,0.633,1.48,1.119,2.037
		c0.487,0.556,1.085,0.98,1.794,1.271c0.709,0.293,1.518,0.438,2.427,0.438c0.898,0,1.701-0.146,2.405-0.438
		c0.704-0.291,1.3-0.716,1.787-1.271c0.486-0.557,0.859-1.235,1.119-2.037C514.383,169.494,514.512,168.588,514.512,167.578z"/>
	<path style="fill:#FFFFFF;" d="M536.985,173.961v3.754h-12.208v-20.26h4.699v16.506H536.985z"/>
	<path style="fill:#FFFFFF;" d="M561.214,167.578c0,1.465-0.252,2.827-0.758,4.088c-0.505,1.261-1.217,2.357-2.134,3.289
		c-0.918,0.932-2.023,1.661-3.316,2.189c-1.294,0.528-2.729,0.793-4.304,0.793c-1.576,0-3.013-0.265-4.311-0.793
		s-2.408-1.258-3.331-2.189c-0.922-0.932-1.636-2.028-2.141-3.289c-0.506-1.261-0.758-2.623-0.758-4.088s0.252-2.827,0.758-4.088
		c0.505-1.261,1.219-2.355,2.141-3.282c0.923-0.927,2.033-1.654,3.331-2.183c1.298-0.529,2.734-0.793,4.311-0.793
		c1.575,0,3.01,0.267,4.304,0.8c1.293,0.533,2.398,1.263,3.316,2.19c0.917,0.927,1.629,2.021,2.134,3.281
		C560.962,164.765,561.214,166.123,561.214,167.578z M556.403,167.578c0-1.001-0.13-1.902-0.39-2.705
		c-0.26-0.801-0.633-1.48-1.119-2.037c-0.487-0.556-1.083-0.982-1.787-1.279c-0.704-0.296-1.507-0.444-2.405-0.444
		c-0.909,0-1.718,0.148-2.427,0.444c-0.709,0.297-1.307,0.724-1.794,1.279c-0.486,0.557-0.859,1.236-1.119,2.037
		c-0.26,0.803-0.39,1.704-0.39,2.705c0,1.01,0.13,1.916,0.39,2.719c0.26,0.802,0.633,1.48,1.119,2.037
		c0.487,0.556,1.085,0.98,1.794,1.271c0.709,0.293,1.518,0.438,2.427,0.438c0.898,0,1.701-0.146,2.405-0.438
		c0.704-0.291,1.3-0.716,1.787-1.271c0.486-0.557,0.859-1.235,1.119-2.037C556.273,169.494,556.403,168.588,556.403,167.578z"/>
	<path style="fill:#FFFFFF;" d="M576.374,167.217h7.203v8.551c-1.039,0.761-2.145,1.312-3.316,1.655
		c-1.173,0.343-2.399,0.515-3.678,0.515c-1.669,0-3.188-0.262-4.555-0.786c-1.367-0.523-2.537-1.246-3.511-2.169
		c-0.974-0.922-1.725-2.016-2.253-3.281s-0.792-2.64-0.792-4.123c0-1.511,0.25-2.899,0.751-4.165c0.5-1.265,1.216-2.356,2.147-3.274
		s2.059-1.631,3.379-2.142c1.321-0.51,2.798-0.765,4.43-0.765c0.843,0,1.636,0.069,2.377,0.209c0.742,0.139,1.426,0.329,2.052,0.57
		c0.625,0.24,1.197,0.527,1.717,0.861s0.982,0.695,1.391,1.085l-1.362,2.071c-0.214,0.325-0.489,0.524-0.828,0.599
		c-0.338,0.074-0.702-0.009-1.091-0.251c-0.371-0.222-0.722-0.414-1.05-0.576c-0.329-0.162-0.666-0.295-1.009-0.396
		s-0.704-0.176-1.084-0.223c-0.381-0.047-0.807-0.069-1.279-0.069c-0.881,0-1.674,0.155-2.378,0.466
		c-0.705,0.311-1.305,0.748-1.801,1.313s-0.879,1.245-1.147,2.037c-0.269,0.793-0.403,1.676-0.403,2.649
		c0,1.075,0.148,2.03,0.445,2.864c0.297,0.835,0.716,1.539,1.259,2.113c0.542,0.575,1.19,1.013,1.946,1.314s1.592,0.452,2.51,0.452
		c0.565,0,1.078-0.056,1.537-0.167c0.458-0.111,0.905-0.26,1.342-0.445v-3.073h-2.003c-0.297,0-0.528-0.078-0.695-0.236
		c-0.167-0.157-0.25-0.356-0.25-0.598V167.217z"/>
	<path style="fill:#FFFFFF;" d="M598.966,170.012v7.703h-4.699v-7.703l-7.342-12.557h4.144c0.407,0,0.729,0.095,0.966,0.285
		c0.236,0.189,0.434,0.434,0.592,0.729l2.864,5.896c0.24,0.464,0.459,0.896,0.653,1.3s0.366,0.8,0.515,1.189
		c0.139-0.399,0.299-0.8,0.479-1.203s0.392-0.832,0.633-1.286l2.837-5.896c0.064-0.12,0.144-0.241,0.236-0.361
		c0.092-0.12,0.201-0.229,0.326-0.327c0.125-0.097,0.27-0.176,0.432-0.236c0.162-0.06,0.341-0.09,0.535-0.09h4.172L598.966,170.012z
		"/>
</g>
<g>
	<g>
		<path style="fill:#FFFFFF;" d="M214.822,62.319l-23.378-0.281v63.159h-14.484V61.865l-23.272-0.279V50.048h61.134V62.319z"/>
		<path style="fill:#FFFFFF;" d="M275.398,64.706v33.253c0,15.361-7.886,28.253-28.333,28.253c-20.2,0-28.051-12.611-28.051-28.253
			V64.706h14.028v33.253c0,9.864,3.48,16.653,13.991,16.653c10.439,0,14.336-6.718,14.336-16.653V64.706H275.398z"/>
		<path style="fill:#FFFFFF;" d="M298.699,95.388c0,10.581,6.232,18.554,18.947,18.554c5.895,0,11.401-1.571,16.322-4.921h0.138
			l3.822,11.777c-5.13,2.72-12.53,5.414-21.864,5.414c-20.781,0-31.742-13.996-31.742-31.209c0-17.037,10.788-31.347,33.281-31.347
			c8.521,0,14.947,1.956,19.59,4.296l-4.099,12.16h-0.104c-4.711-3.07-10.255-4.255-15.099-4.255
			C305.419,75.856,298.699,84.318,298.699,95.388z"/>
		<path style="fill:#FFFFFF;" d="M390.426,79.508c-6.323-3.423-11.282-5.132-17.074-5.132c-7.377,0-11.734,2.687-11.734,6.889
			c0.036,11.491,34.223,5.492,34.223,26.612c0,11.598-10.325,18.508-27.15,18.508c-8.958,0-16.804-2.045-23.475-6.177l3.534-11.559
			h0.174c5.789,4.724,11.476,6.842,19.445,6.842c8.59,0,13.165-2.659,13.165-7.341c-0.035-12.464-34.328-4.935-34.328-26.614
			c0-10.893,8.801-18.018,25.756-18.018c7.444,0,13.208,1.361,21.171,4.921l-3.498,11.069H390.426z"/>
		<path style="fill:#FFFFFF;" d="M469.044,94.691c0,19.024-13.333,31.521-33.136,31.521c-19.594,0-32.442-12.183-32.442-31.068
			c0-19.059,12.985-31.488,32.79-31.488C455.956,63.656,469.044,75.876,469.044,94.691z M454.632,94.796
			c0.105-12.401-7.272-19.504-18.271-19.504c-11.105,0-18.411,7.278-18.446,19.747c-0.069,12.227,6.82,19.574,17.959,19.574
			C446.942,114.612,454.562,107.37,454.632,94.796z"/>
		<path style="fill:#FFFFFF;" d="M536.738,64.706v60.491h-11.71l-20.708-24.525c-4.814-5.605-10.481-13.07-13.353-16.913
			c0.234,4.9,0.647,14.555,0.647,21.989v19.449h-12.731V64.706h11.505l20.983,24.454c4.861,5.587,10.542,13.252,13.355,17.124
			c-0.276-4.903-0.682-14.857-0.682-22.129V64.706H536.738z"/>
	</g>
	<g>
		<path style="fill:#FFFFFF;" d="M174.167,22.924c0.148,0,0.296,0.028,0.445,0.084c0.148,0.055,0.29,0.152,0.426,0.288l2.484,2.614
			c-1.086,1.421-2.45,2.493-4.088,3.217s-3.575,1.085-5.812,1.085c-2.053,0-3.891-0.349-5.516-1.048
			c-1.625-0.698-3.004-1.663-4.135-2.892c-1.131-1.23-2-2.689-2.605-4.376s-0.909-3.52-0.909-5.498c0-2.015,0.346-3.866,1.038-5.553
			c0.692-1.688,1.659-3.143,2.901-4.367c1.242-1.224,2.729-2.176,4.46-2.856c1.731-0.68,3.64-1.02,5.729-1.02
			c1.014,0,1.968,0.09,2.865,0.269c0.896,0.179,1.734,0.427,2.512,0.742c0.78,0.315,1.495,0.692,2.152,1.131
			c0.654,0.439,1.236,0.925,1.743,1.456l-2.113,2.837c-0.136,0.173-0.297,0.331-0.483,0.473c-0.185,0.142-0.445,0.213-0.779,0.213
			c-0.223,0-0.432-0.049-0.631-0.148c-0.198-0.099-0.408-0.219-0.631-0.362s-0.467-0.297-0.733-0.463
			c-0.265-0.167-0.58-0.322-0.946-0.464c-0.364-0.142-0.79-0.263-1.278-0.362c-0.489-0.099-1.061-0.148-1.715-0.148
			c-1.138,0-2.177,0.201-3.117,0.602c-0.939,0.402-1.745,0.977-2.419,1.724c-0.674,0.748-1.199,1.654-1.575,2.717
			c-0.378,1.063-0.567,2.256-0.567,3.578c0,1.385,0.189,2.614,0.567,3.69c0.376,1.075,0.889,1.981,1.538,2.716
			c0.65,0.735,1.406,1.295,2.271,1.678c0.866,0.383,1.793,0.575,2.782,0.575c0.569,0,1.088-0.028,1.557-0.083
			c0.47-0.056,0.905-0.151,1.308-0.288c0.4-0.136,0.784-0.312,1.148-0.528c0.365-0.216,0.733-0.485,1.103-0.807
			c0.149-0.124,0.309-0.225,0.482-0.306S173.982,22.924,174.167,22.924z"/>
		<path style="fill:#FFFFFF;" d="M193.325,29.915h-6.305V2.899h6.305V29.915z"/>
		<path style="fill:#FFFFFF;" d="M223.885,2.899v4.969h-7.602v22.046h-6.267V7.869h-7.603V2.899H223.885z"/>
		<path style="fill:#FFFFFF;" d="M247.534,19.643v10.272h-6.267V19.643l-9.791-16.743h5.526c0.543,0,0.976,0.127,1.297,0.38
			s0.582,0.578,0.78,0.974l3.82,7.862c0.309,0.63,0.592,1.212,0.852,1.743c0.26,0.532,0.489,1.057,0.686,1.576
			c0.185-0.532,0.409-1.063,0.668-1.595c0.26-0.532,0.538-1.106,0.834-1.724l3.783-7.862c0.075-0.161,0.176-0.322,0.306-0.483
			c0.13-0.16,0.278-0.306,0.445-0.436c0.167-0.129,0.359-0.234,0.574-0.315c0.217-0.08,0.455-0.12,0.714-0.12h5.563L247.534,19.643z
			"/>
		<path style="fill:#FFFFFF;" d="M306.941,16.398c0,1.953-0.337,3.771-1.01,5.451c-0.674,1.681-1.623,3.143-2.846,4.385
			c-1.225,1.242-2.699,2.216-4.422,2.921c-1.726,0.705-3.638,1.057-5.739,1.057c-2.103,0-4.018-0.352-5.749-1.057
			c-1.731-0.705-3.211-1.678-4.441-2.921c-1.23-1.242-2.181-2.704-2.856-4.385c-0.674-1.681-1.011-3.498-1.011-5.451
			c0-1.953,0.337-3.77,1.011-5.451c0.674-1.681,1.625-3.139,2.856-4.376c1.229-1.236,2.71-2.206,4.441-2.911
			c1.731-0.705,3.646-1.057,5.749-1.057c2.1,0,4.013,0.356,5.739,1.066c1.723,0.711,3.198,1.685,4.422,2.92
			c1.223,1.237,2.172,2.695,2.846,4.376C306.604,12.646,306.941,14.457,306.941,16.398z M300.525,16.398
			c0-1.335-0.174-2.537-0.519-3.607c-0.347-1.069-0.844-1.974-1.493-2.716c-0.649-0.742-1.443-1.31-2.382-1.706
			c-0.941-0.396-2.009-0.593-3.208-0.593c-1.212,0-2.29,0.198-3.236,0.593c-0.946,0.396-1.743,0.964-2.392,1.706
			c-0.649,0.742-1.146,1.647-1.492,2.716c-0.346,1.069-0.519,2.271-0.519,3.607c0,1.347,0.173,2.556,0.519,3.625
			c0.346,1.069,0.844,1.975,1.492,2.716c0.65,0.742,1.446,1.307,2.392,1.697c0.946,0.389,2.024,0.584,3.236,0.584
			c1.199,0,2.268-0.195,3.208-0.584c0.938-0.389,1.733-0.955,2.382-1.697c0.65-0.741,1.146-1.647,1.493-2.716
			C300.352,18.954,300.525,17.745,300.525,16.398z"/>
		<path style="fill:#FFFFFF;" d="M334.219,2.899V7.72h-11.088v6.842h9.235v4.839h-9.235v10.513h-6.303V2.899H334.219z"/>
	</g>
</g>
<path style="fill:none;" d="M124.262,54.588c0.064,0.23,0.128,0.461,0.188,0.693C124.389,55.049,124.326,54.818,124.262,54.588z"/>
<path style="fill:none;" d="M124.529,55.602c0.044,0.176,0.088,0.352,0.129,0.529C124.617,55.954,124.573,55.778,124.529,55.602z"/>
<path style="fill:none;" d="M124.921,57.361c0.032,0.164,0.064,0.328,0.094,0.493C124.985,57.689,124.953,57.525,124.921,57.361z"/>
<path style="fill:none;" d="M123.978,53.621c0.074,0.239,0.145,0.479,0.214,0.72C124.123,54.1,124.052,53.86,123.978,53.621z"/>
<path style="fill:none;" d="M124.737,56.487c0.037,0.167,0.074,0.334,0.109,0.502C124.812,56.821,124.775,56.654,124.737,56.487z"/>
<path style="fill:none;" d="M122.805,50.388c0.056,0.134,0.111,0.27,0.165,0.405C122.916,50.658,122.861,50.523,122.805,50.388z"/>
<path style="fill:none;" d="M123.125,51.182c0.054,0.14,0.107,0.281,0.16,0.421C123.233,51.463,123.18,51.322,123.125,51.182z"/>
<path style="fill:none;" d="M122.467,49.604c0.058,0.13,0.115,0.26,0.171,0.391C122.582,49.864,122.525,49.734,122.467,49.604z"/>
<path style="fill:none;" d="M123.428,51.986c0.054,0.148,0.105,0.297,0.157,0.445C123.533,52.283,123.481,52.134,123.428,51.986z"/>
<path style="fill:none;" d="M123.712,52.799c0.055,0.163,0.107,0.328,0.16,0.492C123.819,53.127,123.767,52.963,123.712,52.799z"/>
<path style="fill:none;" d="M125.571,62.68c0.01,0.2,0.016,0.401,0.023,0.602C125.587,63.081,125.581,62.88,125.571,62.68z"/>
<path style="fill:none;" d="M125.604,63.584c0.007,0.302,0.012,0.606,0.012,0.91C125.616,64.19,125.612,63.887,125.604,63.584z"/>
<path style="fill:none;" d="M125.516,61.78c0.013,0.18,0.024,0.36,0.034,0.541C125.54,62.141,125.529,61.96,125.516,61.78z"/>
<path style="fill:none;" d="M125.082,58.237c0.028,0.163,0.055,0.327,0.081,0.49C125.138,58.563,125.11,58.4,125.082,58.237z"/>
<path style="fill:none;" d="M125.222,59.115c0.024,0.164,0.047,0.329,0.069,0.494C125.27,59.444,125.247,59.279,125.222,59.115z"/>
<path style="fill:none;" d="M125.439,60.887c0.017,0.172,0.031,0.344,0.046,0.516C125.471,61.23,125.456,61.058,125.439,60.887z"/>
<path style="fill:none;" d="M125.342,59.998c0.02,0.166,0.039,0.333,0.057,0.501C125.381,60.332,125.362,60.165,125.342,59.998z"/>
<path style="fill:none;" d="M120.584,45.941c0.045,0.077,0.092,0.154,0.137,0.232C120.676,46.095,120.63,46.018,120.584,45.941z"/>
<path style="fill:none;" d="M122.112,48.829c0.06,0.126,0.119,0.253,0.177,0.38C122.231,49.082,122.172,48.956,122.112,48.829z"/>
<path style="fill:none;" d="M120.957,46.591c0.061,0.108,0.122,0.216,0.181,0.325C121.079,46.807,121.018,46.699,120.957,46.591z"/>
<path style="fill:none;" d="M121.354,47.318c0.062,0.117,0.125,0.234,0.186,0.352C121.478,47.552,121.416,47.435,121.354,47.318z"/>
<path style="fill:none;" d="M121.74,48.067c0.061,0.122,0.122,0.244,0.182,0.367C121.863,48.311,121.801,48.189,121.74,48.067z"/>
<path style="fill:none;" d="M119.868,44.768c0.023,0.035,0.044,0.072,0.067,0.107C119.913,44.84,119.891,44.804,119.868,44.768z"/>
<polygon style="fill:none;" points="18.843,49.544 25.269,45.306 25.269,38.51 18.843,42.748 "/>
<polygon style="fill:none;" points="18.843,38.191 25.269,33.953 25.269,27.157 18.843,31.395 "/>
<g>
	<polygon style="fill:#FFFFFF;" points="8.705,44.865 15.131,40.627 15.131,33.831 8.705,38.068 	"/>
	<polygon style="fill:#FFFFFF;" points="18.843,38.191 25.269,33.953 25.269,27.157 18.843,31.395 	"/>
	<polygon style="fill:#FFFFFF;" points="8.705,56.248 15.131,52.011 15.131,45.214 8.705,49.452 	"/>
	<polygon style="fill:#FFFFFF;" points="8.705,67.647 15.131,63.409 15.131,56.613 8.705,60.851 	"/>
	<polygon style="fill:#FFFFFF;" points="18.843,49.544 25.269,45.306 25.269,38.51 18.843,42.748 	"/>
	<polygon style="fill:#FFFFFF;" points="18.843,60.986 25.269,56.748 25.269,49.952 18.843,54.189 	"/>
	<polygon style="fill:#FFFFFF;" points="28.982,42.896 35.407,38.658 35.407,31.862 28.982,36.099 	"/>
</g>
<polygon style="fill:none;" points="18.843,49.544 25.269,45.306 25.269,38.51 18.843,42.748 "/>
<polygon style="fill:none;" points="18.843,38.191 25.269,33.953 25.269,27.157 18.843,31.395 "/>
<polygon style="fill:none;" points="18.843,49.544 25.269,45.306 25.269,38.51 18.843,42.748 "/>
<polygon style="fill:none;" points="18.843,38.191 25.269,33.953 25.269,27.157 18.843,31.395 "/>
<polygon style="fill:none;" points="18.843,49.544 25.269,45.306 25.269,38.51 18.843,42.748 "/>
<polygon style="fill:none;" points="18.843,38.191 25.269,33.953 25.269,27.157 18.843,31.395 "/>
<path style="fill:none;" d="M117.415,41.373c0.064,0.079,0.128,0.158,0.191,0.237C117.543,41.531,117.479,41.452,117.415,41.373z"/>
<path style="fill:none;" d="M116.352,40.123c0.058,0.065,0.116,0.13,0.173,0.195C116.468,40.253,116.41,40.188,116.352,40.123z"/>
<path style="fill:none;" d="M115.818,39.535c0.048,0.052,0.097,0.103,0.144,0.155C115.915,39.638,115.866,39.587,115.818,39.535z"/>
<path style="fill:none;" d="M117.933,42.025c0.064,0.082,0.127,0.165,0.19,0.248C118.06,42.19,117.997,42.107,117.933,42.025z"/>
<path style="fill:none;" d="M115.315,39.003c0.023,0.024,0.047,0.048,0.071,0.072C115.362,39.051,115.338,39.027,115.315,39.003z"/>
<path style="fill:none;" d="M118.438,42.692c0.062,0.084,0.124,0.17,0.186,0.254C118.562,42.862,118.501,42.776,118.438,42.692z"/>
<path style="fill:none;" d="M116.887,40.738c0.062,0.073,0.124,0.146,0.186,0.22C117.011,40.884,116.949,40.811,116.887,40.738z"/>
<path style="fill:none;" d="M119.406,44.064c0.054,0.081,0.107,0.162,0.16,0.243C119.513,44.226,119.46,44.144,119.406,44.064z"/>
<path style="fill:none;" d="M118.929,43.371c0.06,0.086,0.119,0.172,0.179,0.258C119.048,43.543,118.989,43.456,118.929,43.371z"/>
<path style="fill:none;" d="M115.276,60.552c0.039,0.028,0.077,0.056,0.115,0.085C115.353,60.607,115.314,60.58,115.276,60.552z"/>
<path style="fill:none;" d="M115.643,60.839c0.041,0.035,0.081,0.071,0.12,0.107C115.723,60.911,115.684,60.874,115.643,60.839z"/>
<polygon style="fill:none;" points="114.205,59.937 114.205,59.937 114.206,59.937 "/>
<path style="fill:none;" d="M114.951,60.332c0.013,0.008,0.027,0.016,0.04,0.024C114.978,60.347,114.964,60.34,114.951,60.332z"/>
<path style="fill:none;" d="M115.994,61.163c0.034,0.034,0.065,0.071,0.098,0.106C116.059,61.234,116.028,61.198,115.994,61.163z"/>
<polygon style="fill:none;" points="25.269,38.51 18.843,42.748 18.843,49.544 25.269,45.306 "/>
<polygon style="fill:none;" points="25.269,27.157 18.843,31.395 18.843,38.191 25.269,33.953 "/>
<g>
	<polygon style="fill:#FFFFFF;" points="18.843,60.986 25.269,56.748 25.269,49.952 18.843,54.189 	"/>
	<polygon style="fill:#FFFFFF;" points="18.843,49.544 25.269,45.306 25.269,38.51 18.843,42.748 	"/>
	<polygon style="fill:#FFFFFF;" points="18.843,38.191 25.269,33.953 25.269,27.157 18.843,31.395 	"/>
	<polygon style="fill:#FFFFFF;" points="8.705,44.865 15.131,40.627 15.131,33.831 8.705,38.068 	"/>
	<polygon style="fill:#FFFFFF;" points="8.705,67.647 15.131,63.409 15.131,56.613 8.705,60.851 	"/>
	<polygon style="fill:#FFFFFF;" points="8.705,56.248 15.131,52.011 15.131,45.214 8.705,49.452 	"/>
	<path style="fill:#FFFFFF;" d="M126.586,55.872c-0.824-3.632-2.181-7.139-4.017-10.38c-1.723-3.041-3.865-5.841-6.336-8.312
		c-2.774-2.774-5.963-5.13-9.441-6.947c-1.725-0.901-3.519-1.67-5.361-2.299c-0.453-0.154-0.908-0.3-1.366-0.437
		c-0.186-0.056-0.459-0.085-0.622-0.187c-0.06-0.038-0.114-0.116-0.164-0.166c-0.787-0.801-1.574-1.602-2.361-2.403
		c-1.403-1.428-2.806-2.856-4.209-4.284c-1.633-1.662-3.266-3.324-4.899-4.987c-1.453-1.479-2.907-2.959-4.36-4.438
		c-0.888-0.904-1.775-1.807-2.663-2.711c-0.104-0.106-0.23-0.294-0.368-0.336c-0.102-0.032-0.264,0-0.371,0c-0.23,0-0.461,0-0.692,0
		c-0.562,0-1.125,0-1.687,0c-0.433,0-0.866,0-1.299,0c-0.143,0-0.138,0.001-0.243-0.072c-0.477-0.33-0.906-0.776-1.347-1.153
		c-1.666-1.426-3.333-2.852-4.999-4.278c-0.703-0.601-1.405-1.202-2.107-1.804c-0.203-0.174-0.406-0.347-0.609-0.521
		C67.031,0.128,66.927,0.003,66.88,0c-0.088-0.005-0.322,0.212-0.392,0.258c-0.345,0.227-0.689,0.453-1.034,0.68
		c-1.2,0.79-2.401,1.58-3.601,2.37c-1.683,1.107-3.365,2.214-5.048,3.321c-1.93,1.27-3.861,2.54-5.792,3.811
		c-1.917,1.261-3.833,2.522-5.75,3.783c-1.668,1.097-3.335,2.195-5.003,3.292c-1.179,0.776-2.359,1.552-3.538,2.328
		c-0.324,0.213-0.649,0.427-0.973,0.64c-0.079,0.052-0.24,0.21-0.337,0.22c-0.111,0.012-0.342-0.14-0.442-0.18
		c-0.349-0.143-0.699-0.285-1.048-0.428c-1.026-0.419-2.053-0.838-3.08-1.257c-0.923-0.377-1.846-0.753-2.769-1.13
		c-0.193-0.079-0.573-0.327-0.774-0.276c-0.207,0.053-0.462,0.303-0.638,0.419c-0.444,0.291-0.888,0.583-1.332,0.874
		c-1.409,0.925-2.819,1.85-4.228,2.774c-1.839,1.206-3.677,2.413-5.516,3.619c-1.952,1.281-3.905,2.562-5.857,3.843
		c-1.723,1.131-3.446,2.261-5.169,3.392c-1.178,0.773-2.356,1.546-3.535,2.319c-0.284,0.187-0.569,0.373-0.853,0.56
		c-0.063,0.041-0.12,0.064-0.145,0.124c-0.032,0.076,0,0.234,0,0.315c0,0.216,0,0.433,0,0.649c0,0.738,0,1.476,0,2.214
		c0,1.107,0,2.214,0,3.321c0,1.435,0,2.87,0,4.305c0,1.702,0,3.403,0,5.105c0,1.926,0,3.853,0,5.779c0,2.113,0,4.226,0,6.338
		c0,2.232,0,4.464,0,6.696c0,2.312,0,4.624,0,6.936c0,2.344,0,4.689,0,7.033c0,2.339,0,4.678,0,7.017c0,2.264,0,4.529,0,6.793
		c0,2.152,0,4.305,0,6.457c0,2.001,0,4.002,0,6.003c0,1.783,0,3.566,0,5.349c0,1.527,0,3.053,0,4.58c0,1.222,0,2.444,0,3.666
		c0,0.873,0,1.746,0,2.618c0,0.467,0,0.935,0,1.402c0,0.029-0.022,0.183,0,0.205c0.02,0.02,0.144,0.001,0.173,0.001
		c0.244,0,0.488,0,0.731,0c0.442,0,0.884,0,1.327,0c0.211,0,0.422,0,0.632,0c0.604,0,1.208,0,1.811,0c0.962,0,1.925,0,2.888,0
		c1.286,0,2.573,0,3.859,0c1.557,0,3.114,0,4.671,0c1.792,0,3.583,0,5.375,0c1.994,0,3.989,0,5.983,0c2.137,0,4.275,0,6.412,0
		c2.248,0,4.496,0,6.744,0c2.317,0,4.634,0,6.951,0c2.355,0,4.711,0,7.066,0c2.331,0,4.662,0,6.993,0c2.276,0,4.552,0,6.827,0
		c2.189,0,4.378,0,6.567,0c2.041,0,4.082,0,6.123,0c1.862,0,3.723,0,5.585,0c1.641,0,3.282,0,4.923,0c1.385,0,2.769,0,4.154,0
		c1.074,0,2.149,0,3.223,0c0.73,0,1.459,0,2.189,0c0.223,0,0.447,0,0.67,0c0.092,0,0.277,0.037,0.362,0
		c0.094-0.04,0.025,0.037,0.064-0.082c0.032-0.096,0.002-0.255,0.003-0.356c0.002-0.204,0.003-0.409,0.005-0.613
		c0.011-1.494,0.022-2.988,0.033-4.482c0.016-2.182,0.032-4.364,0.048-6.546c0.017-2.303,0.034-4.606,0.051-6.909
		c0.014-1.887,0.028-3.774,0.042-5.661c0.005-0.619,0.009-1.238,0.014-1.857c0.001-0.197,0.003-0.394,0.004-0.591
		c0.001-0.091-0.028-0.244,0.002-0.331c0.005-0.015-0.008-0.046,0-0.06c0.024-0.036,0.158-0.064,0.202-0.08
		c0.235-0.09,0.469-0.182,0.702-0.276c0.916-0.371,1.818-0.777,2.703-1.217c1.777-0.885,3.485-1.908,5.104-3.057
		c3.19-2.264,6.034-5.015,8.41-8.122c2.268-2.965,4.101-6.259,5.419-9.752c1.328-3.522,2.128-7.238,2.382-10.993
		C127.711,63.378,127.423,59.564,126.586,55.872z M20.812,80.324h-2.825v45.409H2.28v-89.19l25.304-16.604l8.078,3.297L66.704,2.811
		l8.676,7.425h4.133l15.886,16.17c-1.196-0.201-2.405-0.348-3.627-0.436L78.454,12.323l-4.434-0.033l-7.316-6.297l-3.398,10.855
		l3.511,4.089l-0.06,11.907c-1.821,1.281-3.545,2.728-5.152,4.335c-3.525,3.525-6.282,7.612-8.193,12.058h0
		c-3.91,2.766-6.916,6.724-8.483,11.35h-4.966v4.851h-5.248C34.715,73.338,28.577,79.799,20.812,80.324z M58.959,111.938
		c0.069,0.961,0.948,1.833,0.681,2.758c-0.191,0.663-0.891,1.021-1.523,1.299c-5.909,2.597-16.665,6.017-24.35,9.738h-7.642V86.837
		c8.231-0.046,14.894-6.717,14.941-14.961h5.325v-4.847h5.32c0.753-7.607,7.16-13.549,14.953-13.549
		c7.794,0,14.201,5.942,14.953,13.549h4.398l0.033,23.472c-0.326,0.034-0.641,0.056-0.925,0.056c-1.003,0-1.539-0.082-1.809-1.841
		l-0.007-0.047l-0.01-0.046l-1.802-8.606c-0.412-1.956-0.994-3.437-1.778-4.531c-1.107-1.544-2.659-2.36-4.49-2.36
		c-0.334,0-0.682,0.027-1.035,0.082c-2.153,0.331-4.099,1.551-5.34,3.349c-1.168,1.693-1.583,3.698-1.167,5.645l3.234,14.944
		c0.407,1.907,1.56,3.915,3.163,5.503c0.308,0.305,0.627,0.578,0.95,0.835c-4.678,1.855-10.232,3.34-14.239,5.886
		C59.86,109.963,58.881,110.834,58.959,111.938z M61.159,125.733c3-2.255,6.094-4.739,7.859-6.377
		c0.568-0.528,1.131-1.091,1.455-1.795c0.617-1.342,0.172-3.087-1.013-3.968c-0.664-0.494-1.611-0.871-1.695-1.694
		c-0.079-0.774,0.684-1.342,1.354-1.738c2.67-1.577,6.068-3.322,9.139-4.991c0.56,0.149,1.121,0.233,1.674,0.233
		c0.107,0,0.215-0.003,0.321-0.009c2.51-0.135,4.337-0.372,5.816-0.646l0.029,20.986H61.159z M100.928,86.697l-0.356,39.036H87.853
		L87.82,102.57c-1.96,0.485-4.116,0.881-7.661,1.072c-0.076,0.004-0.151,0.006-0.227,0.006c-3.252,0-6.618-3.696-7.297-6.874
		l-3.233-14.939c-0.694-3.252,1.771-6.389,5.058-6.894c0.269-0.041,0.525-0.061,0.769-0.061c2.734,0,3.921,2.509,4.551,5.496
		l1.802,8.606c0.404,2.629,1.68,3.328,3.542,3.328c0.795,0,1.696-0.127,2.681-0.287L87.75,52.563c0-3.71,3.035-6.745,6.745-6.745
		s6.745,3.035,6.745,6.745l-0.222,24.276c0.799,0.084,1.541,0.154,2.209,0.154c1.997,0,3.339-0.62,3.597-3.313l1.351-8.652
		c0.444-2.916,1.469-5.388,4.21-5.388c0.153,0,0.311,0.008,0.475,0.023c3.1,0.297,5.572,3.099,5.095,6.177l-2.352,14.648
		c-0.476,3.077-3.555,6.811-6.669,6.821c-0.075,0-0.15,0-0.224,0C105.184,87.31,103.014,87.049,100.928,86.697z M124.441,73.738
		c-1.444,5.564-4.22,10.754-8.028,15.058c-3.778,4.27-8.546,7.641-13.839,9.765l0.09-9.833c1.673,0.209,3.529,0.336,6.047,0.336
		l0.229,0c1.939-0.006,3.93-1.009,5.607-2.824c1.48-1.603,2.496-3.598,2.789-5.474l2.352-14.647l0.001-0.005l0.001-0.005
		c0.29-1.873-0.212-3.755-1.414-5.301c-1.274-1.639-3.187-2.692-5.248-2.89c-0.217-0.021-0.433-0.031-0.642-0.031
		c-1.858,0-3.389,0.824-4.427,2.382c-0.727,1.091-1.224,2.562-1.518,4.496l-1.35,8.645l-0.008,0.051l-0.005,0.052
		c-0.072,0.746-0.247,1.265-0.493,1.461c-0.221,0.176-0.678,0.265-1.358,0.265c-0.141,0-0.289-0.004-0.44-0.011l0.207-22.649v-0.008
		v-0.008c0-4.686-3.812-8.499-8.499-8.499s-8.499,3.813-8.499,8.499l0.003,2.182c-0.057-0.023-0.119-0.035-0.173-0.063
		c0.006,0.288,0.013,0.577,0.014,0.861c-1.24-1.923-2.768-3.658-4.518-5.131c-3.156-2.658-7.018-4.433-11.094-5.082
		c-4.683-0.746-9.556-0.011-13.802,2.104c0.375-0.712,0.769-1.412,1.19-2.098c3.301-5.374,7.98-9.865,13.492-12.932
		c5.281-2.938,11.265-4.522,17.307-4.603c6.615-0.089,13.22,1.629,18.938,4.958c5.372,3.128,9.923,7.626,13.105,12.968
		c3.213,5.393,4.995,11.582,5.147,17.858C125.688,67.002,125.3,70.429,124.441,73.738z"/>
	<polygon style="fill:#FFFFFF;" points="35.407,31.862 28.982,36.099 28.982,42.896 35.407,38.658 	"/>
</g>
</svg>
