<?xml version="1.0" encoding="iso-8859-1"?>
<!-- Generator: Adobe Illustrator 26.0.3, SVG Export Plug-In . SVG Version: 6.00 Build 0)  -->
<svg version="1.1" id="Logo" xmlns="http://www.w3.org/2000/svg" xmlns:xlink="http://www.w3.org/1999/xlink" x="0px" y="0px"
	 viewBox="0 0 683.902 186.042" style="enable-background:new 0 0 683.902 186.042;" xml:space="preserve">
<g>
	<path style="fill:#002669;" d="M155.638,177.715h-4.728v-20.26h4.728V177.715z"/>
	<path style="fill:#002669;" d="M179.906,157.455v20.26h-2.447c-0.362,0-0.666-0.058-0.911-0.174
		c-0.246-0.115-0.489-0.317-0.73-0.605l-9.553-12.083c0.037,0.361,0.062,0.712,0.077,1.05c0.014,0.339,0.021,0.656,0.021,0.953
		v10.859h-4.144v-20.26h2.475c0.204,0,0.376,0.01,0.515,0.027c0.139,0.02,0.265,0.054,0.376,0.104
		c0.11,0.052,0.217,0.123,0.319,0.216c0.102,0.093,0.218,0.218,0.348,0.375l9.637,12.168c-0.047-0.39-0.079-0.768-0.098-1.134
		s-0.028-0.712-0.028-1.036v-10.721H179.906z"/>
	<path style="fill:#002669;" d="M191.221,161.071v5.131h6.925v3.629h-6.925v7.885h-4.728v-20.26h13.043v3.615H191.221z"/>
	<path style="fill:#002669;" d="M224.104,167.578c0,1.465-0.252,2.827-0.758,4.088c-0.505,1.261-1.217,2.357-2.134,3.289
		c-0.918,0.932-2.023,1.661-3.316,2.189c-1.294,0.528-2.729,0.793-4.304,0.793c-1.576,0-3.013-0.265-4.311-0.793
		s-2.408-1.258-3.331-2.189c-0.922-0.932-1.636-2.028-2.141-3.289c-0.506-1.261-0.758-2.623-0.758-4.088s0.252-2.827,0.758-4.088
		c0.505-1.261,1.219-2.355,2.141-3.282c0.923-0.927,2.033-1.654,3.331-2.183c1.298-0.529,2.734-0.793,4.311-0.793
		c1.575,0,3.01,0.267,4.304,0.8c1.293,0.533,2.398,1.263,3.316,2.19c0.917,0.927,1.629,2.021,2.134,3.281
		C223.852,164.765,224.104,166.123,224.104,167.578z M219.294,167.578c0-1.001-0.13-1.902-0.39-2.705
		c-0.26-0.801-0.633-1.48-1.119-2.037c-0.487-0.556-1.083-0.982-1.787-1.279c-0.704-0.296-1.507-0.444-2.405-0.444
		c-0.909,0-1.718,0.148-2.427,0.444c-0.709,0.297-1.307,0.724-1.794,1.279c-0.486,0.557-0.859,1.236-1.119,2.037
		c-0.26,0.803-0.39,1.704-0.39,2.705c0,1.01,0.13,1.916,0.39,2.719c0.26,0.802,0.633,1.48,1.119,2.037
		c0.487,0.556,1.085,0.98,1.794,1.271c0.709,0.293,1.518,0.438,2.427,0.438c0.898,0,1.701-0.146,2.405-0.438
		c0.704-0.291,1.3-0.716,1.787-1.271c0.486-0.557,0.859-1.235,1.119-2.037C219.164,169.494,219.294,168.588,219.294,167.578z"/>
	<path style="fill:#002669;" d="M246.133,177.715h-4.255c-0.788,0-1.354-0.297-1.696-0.89l-3.365-5.882
		c-0.157-0.251-0.333-0.434-0.528-0.55c-0.194-0.115-0.473-0.174-0.834-0.174h-1.196v7.495h-4.699v-20.26h6.591
		c1.465,0,2.714,0.15,3.747,0.452c1.034,0.301,1.878,0.721,2.531,1.258c0.653,0.538,1.128,1.173,1.425,1.905
		s0.445,1.529,0.445,2.392c0,0.658-0.088,1.279-0.265,1.863c-0.176,0.584-0.436,1.124-0.778,1.62s-0.768,0.938-1.272,1.328
		c-0.505,0.389-1.087,0.709-1.745,0.959c0.306,0.158,0.594,0.354,0.862,0.592c0.269,0.236,0.51,0.517,0.723,0.841L246.133,177.715z
		 M236.149,166.981c0.64,0,1.184-0.082,1.634-0.244c0.449-0.162,0.818-0.387,1.105-0.674s0.496-0.623,0.626-1.008
		s0.194-0.8,0.194-1.245c0-0.89-0.29-1.585-0.869-2.086c-0.579-0.5-1.477-0.751-2.69-0.751h-1.892v6.008H236.149z"/>
	<path style="fill:#002669;" d="M273.219,157.455v20.26h-4.144v-11.652c0-0.27,0.007-0.561,0.021-0.876s0.039-0.635,0.077-0.96
		l-5.382,10.415c-0.167,0.325-0.392,0.57-0.675,0.737c-0.282,0.167-0.604,0.25-0.966,0.25h-0.64c-0.361,0-0.684-0.083-0.967-0.25
		c-0.282-0.167-0.507-0.412-0.674-0.737l-5.382-10.442c0.028,0.334,0.051,0.66,0.069,0.98c0.019,0.319,0.028,0.613,0.028,0.883
		v11.652h-4.144v-20.26h3.587c0.204,0,0.383,0.005,0.536,0.014c0.152,0.01,0.289,0.037,0.41,0.084
		c0.12,0.046,0.229,0.117,0.326,0.215c0.098,0.098,0.192,0.234,0.285,0.41l5.215,10.276c0.185,0.353,0.363,0.719,0.535,1.099
		c0.171,0.38,0.336,0.77,0.493,1.168c0.158-0.408,0.322-0.807,0.494-1.196c0.171-0.39,0.354-0.76,0.549-1.112l5.201-10.234
		c0.092-0.176,0.188-0.312,0.285-0.41c0.097-0.098,0.206-0.169,0.326-0.215c0.12-0.047,0.258-0.074,0.41-0.084
		c0.153-0.009,0.331-0.014,0.535-0.014H273.219z"/>
	<path style="fill:#002669;" d="M297.966,177.715h-3.644c-0.407,0-0.736-0.095-0.987-0.285c-0.25-0.189-0.44-0.434-0.569-0.73
		l-1.196-3.531h-7.703l-1.196,3.531c-0.102,0.26-0.285,0.494-0.549,0.703c-0.265,0.208-0.591,0.312-0.98,0.312h-3.671l7.843-20.26
		h4.811L297.966,177.715z M290.499,169.97l-1.878-5.548c-0.139-0.353-0.287-0.768-0.444-1.245c-0.158-0.478-0.315-0.994-0.473-1.55
		c-0.14,0.565-0.288,1.089-0.445,1.57c-0.158,0.482-0.306,0.9-0.445,1.252l-1.863,5.521H290.499z"/>
	<path style="fill:#002669;" d="M314.648,161.182h-5.701v16.533h-4.7v-16.533h-5.701v-3.727h16.103V161.182z"/>
	<path style="fill:#002669;" d="M324.017,177.715h-4.728v-20.26h4.728V177.715z"/>
	<path style="fill:#002669;" d="M350.559,167.578c0,1.465-0.252,2.827-0.758,4.088c-0.505,1.261-1.217,2.357-2.134,3.289
		c-0.918,0.932-2.023,1.661-3.316,2.189c-1.294,0.528-2.729,0.793-4.304,0.793c-1.576,0-3.013-0.265-4.311-0.793
		s-2.408-1.258-3.331-2.189c-0.922-0.932-1.636-2.028-2.141-3.289c-0.506-1.261-0.758-2.623-0.758-4.088s0.252-2.827,0.758-4.088
		c0.505-1.261,1.219-2.355,2.141-3.282c0.923-0.927,2.033-1.654,3.331-2.183c1.298-0.529,2.734-0.793,4.311-0.793
		c1.575,0,3.01,0.267,4.304,0.8c1.293,0.533,2.398,1.263,3.316,2.19c0.917,0.927,1.629,2.021,2.134,3.281
		C350.307,164.765,350.559,166.123,350.559,167.578z M345.749,167.578c0-1.001-0.13-1.902-0.39-2.705
		c-0.26-0.801-0.633-1.48-1.119-2.037c-0.487-0.556-1.083-0.982-1.787-1.279c-0.704-0.296-1.507-0.444-2.405-0.444
		c-0.909,0-1.718,0.148-2.427,0.444c-0.709,0.297-1.307,0.724-1.794,1.279c-0.486,0.557-0.859,1.236-1.119,2.037
		c-0.26,0.803-0.39,1.704-0.39,2.705c0,1.01,0.13,1.916,0.39,2.719c0.26,0.802,0.633,1.48,1.119,2.037
		c0.487,0.556,1.085,0.98,1.794,1.271c0.709,0.293,1.518,0.438,2.427,0.438c0.898,0,1.701-0.146,2.405-0.438
		c0.704-0.291,1.3-0.716,1.787-1.271c0.486-0.557,0.859-1.235,1.119-2.037C345.619,169.494,345.749,168.588,345.749,167.578z"/>
	<path style="fill:#002669;" d="M373.701,157.455v20.26h-2.447c-0.362,0-0.666-0.058-0.911-0.174
		c-0.246-0.115-0.489-0.317-0.73-0.605l-9.553-12.083c0.037,0.361,0.062,0.712,0.077,1.05c0.014,0.339,0.021,0.656,0.021,0.953
		v10.859h-4.144v-20.26h2.475c0.204,0,0.376,0.01,0.515,0.027c0.139,0.02,0.265,0.054,0.376,0.104
		c0.11,0.052,0.217,0.123,0.319,0.216c0.102,0.093,0.218,0.218,0.348,0.375l9.637,12.168c-0.047-0.39-0.079-0.768-0.098-1.134
		s-0.028-0.712-0.028-1.036v-10.721H373.701z"/>
	<path style="fill:#002669;" d="M404.167,161.182h-5.701v16.533h-4.7v-16.533h-5.701v-3.727h16.103V161.182z"/>
	<path style="fill:#002669;" d="M413.538,161.071v4.728h6.368v3.477h-6.368v4.825h8.315v3.615H408.81v-20.26h13.043v3.615H413.538z"
		/>
	<path style="fill:#002669;" d="M440.792,172.473c0.111,0,0.223,0.021,0.334,0.062s0.218,0.113,0.32,0.216l1.863,1.96
		c-0.816,1.066-1.838,1.871-3.066,2.413s-2.682,0.813-4.359,0.813c-1.539,0-2.918-0.262-4.137-0.786
		c-1.219-0.523-2.253-1.246-3.101-2.169c-0.849-0.922-1.5-2.016-1.954-3.281s-0.682-2.64-0.682-4.123
		c0-1.511,0.246-2.899,0.737-4.165c0.491-1.265,1.182-2.356,2.072-3.274c0.89-0.918,1.955-1.631,3.198-2.142
		c1.241-0.51,2.609-0.765,4.102-0.765c0.76,0,1.477,0.067,2.148,0.201c0.672,0.135,1.3,0.32,1.884,0.557s1.122,0.521,1.613,0.855
		s0.927,0.695,1.307,1.084l-1.585,2.128c-0.102,0.13-0.223,0.248-0.361,0.354s-0.334,0.16-0.584,0.16
		c-0.167,0-0.324-0.037-0.473-0.111s-0.306-0.164-0.473-0.271c-0.167-0.106-0.351-0.223-0.55-0.348s-0.436-0.24-0.709-0.348
		c-0.273-0.106-0.593-0.196-0.959-0.271s-0.795-0.111-1.286-0.111c-0.779,0-1.49,0.144-2.135,0.431s-1.201,0.707-1.669,1.259
		s-0.829,1.229-1.084,2.03c-0.256,0.802-0.383,1.717-0.383,2.746c0,1.038,0.142,1.961,0.424,2.768
		c0.283,0.806,0.668,1.485,1.154,2.037c0.486,0.551,1.055,0.971,1.703,1.258c0.649,0.287,1.345,0.432,2.086,0.432
		c0.427,0,0.815-0.021,1.168-0.063s0.682-0.11,0.987-0.208c0.307-0.098,0.594-0.228,0.862-0.39s0.542-0.368,0.82-0.618
		c0.111-0.093,0.231-0.17,0.361-0.23C440.518,172.503,440.653,172.473,440.792,172.473z"/>
	<path style="fill:#002669;" d="M465.549,157.455v20.26h-4.729v-8.565h-8.231v8.565h-4.728v-20.26h4.728v8.469h8.231v-8.469H465.549
		z"/>
	<path style="fill:#002669;" d="M489.825,157.455v20.26h-2.447c-0.362,0-0.666-0.058-0.911-0.174
		c-0.246-0.115-0.489-0.317-0.73-0.605l-9.553-12.083c0.037,0.361,0.062,0.712,0.077,1.05c0.014,0.339,0.021,0.656,0.021,0.953
		v10.859h-4.144v-20.26h2.475c0.204,0,0.376,0.01,0.515,0.027c0.139,0.02,0.265,0.054,0.376,0.104
		c0.11,0.052,0.217,0.123,0.319,0.216c0.102,0.093,0.218,0.218,0.348,0.375l9.637,12.168c-0.047-0.39-0.079-0.768-0.098-1.134
		s-0.028-0.712-0.028-1.036v-10.721H489.825z"/>
	<path style="fill:#002669;" d="M516.324,167.578c0,1.465-0.252,2.827-0.758,4.088c-0.505,1.261-1.217,2.357-2.134,3.289
		c-0.918,0.932-2.023,1.661-3.316,2.189c-1.294,0.528-2.729,0.793-4.304,0.793c-1.576,0-3.013-0.265-4.311-0.793
		s-2.408-1.258-3.331-2.189c-0.922-0.932-1.636-2.028-2.141-3.289c-0.506-1.261-0.758-2.623-0.758-4.088s0.252-2.827,0.758-4.088
		c0.505-1.261,1.219-2.355,2.141-3.282c0.923-0.927,2.033-1.654,3.331-2.183c1.298-0.529,2.734-0.793,4.311-0.793
		c1.575,0,3.01,0.267,4.304,0.8c1.293,0.533,2.398,1.263,3.316,2.19c0.917,0.927,1.629,2.021,2.134,3.281
		C516.072,164.765,516.324,166.123,516.324,167.578z M511.513,167.578c0-1.001-0.13-1.902-0.39-2.705
		c-0.26-0.801-0.633-1.48-1.119-2.037c-0.487-0.556-1.083-0.982-1.787-1.279c-0.704-0.296-1.507-0.444-2.405-0.444
		c-0.909,0-1.718,0.148-2.427,0.444c-0.709,0.297-1.307,0.724-1.794,1.279c-0.486,0.557-0.859,1.236-1.119,2.037
		c-0.26,0.803-0.39,1.704-0.39,2.705c0,1.01,0.13,1.916,0.39,2.719c0.26,0.802,0.633,1.48,1.119,2.037
		c0.487,0.556,1.085,0.98,1.794,1.271c0.709,0.293,1.518,0.438,2.427,0.438c0.898,0,1.701-0.146,2.405-0.438
		c0.704-0.291,1.3-0.716,1.787-1.271c0.486-0.557,0.859-1.235,1.119-2.037C511.383,169.494,511.513,168.588,511.513,167.578z"/>
	<path style="fill:#002669;" d="M533.986,173.961v3.754h-12.208v-20.26h4.699v16.506H533.986z"/>
	<path style="fill:#002669;" d="M558.215,167.578c0,1.465-0.252,2.827-0.758,4.088c-0.505,1.261-1.217,2.357-2.134,3.289
		c-0.918,0.932-2.023,1.661-3.316,2.189c-1.294,0.528-2.729,0.793-4.304,0.793c-1.576,0-3.013-0.265-4.311-0.793
		s-2.408-1.258-3.331-2.189c-0.922-0.932-1.636-2.028-2.141-3.289c-0.506-1.261-0.758-2.623-0.758-4.088s0.252-2.827,0.758-4.088
		c0.505-1.261,1.219-2.355,2.141-3.282c0.923-0.927,2.033-1.654,3.331-2.183c1.298-0.529,2.734-0.793,4.311-0.793
		c1.575,0,3.01,0.267,4.304,0.8c1.293,0.533,2.398,1.263,3.316,2.19c0.917,0.927,1.629,2.021,2.134,3.281
		C557.963,164.765,558.215,166.123,558.215,167.578z M553.404,167.578c0-1.001-0.13-1.902-0.39-2.705
		c-0.26-0.801-0.633-1.48-1.119-2.037c-0.487-0.556-1.083-0.982-1.787-1.279c-0.704-0.296-1.507-0.444-2.405-0.444
		c-0.909,0-1.718,0.148-2.427,0.444c-0.709,0.297-1.307,0.724-1.794,1.279c-0.486,0.557-0.859,1.236-1.119,2.037
		c-0.26,0.803-0.39,1.704-0.39,2.705c0,1.01,0.13,1.916,0.39,2.719c0.26,0.802,0.633,1.48,1.119,2.037
		c0.487,0.556,1.085,0.98,1.794,1.271c0.709,0.293,1.518,0.438,2.427,0.438c0.898,0,1.701-0.146,2.405-0.438
		c0.704-0.291,1.3-0.716,1.787-1.271c0.486-0.557,0.859-1.235,1.119-2.037C553.274,169.494,553.404,168.588,553.404,167.578z"/>
	<path style="fill:#002669;" d="M573.375,167.217h7.203v8.551c-1.039,0.761-2.145,1.312-3.316,1.655
		c-1.173,0.343-2.399,0.515-3.678,0.515c-1.669,0-3.188-0.262-4.555-0.786c-1.367-0.523-2.537-1.246-3.511-2.169
		c-0.974-0.922-1.725-2.016-2.253-3.281s-0.792-2.64-0.792-4.123c0-1.511,0.25-2.899,0.751-4.165c0.5-1.265,1.216-2.356,2.147-3.274
		s2.059-1.631,3.379-2.142c1.321-0.51,2.798-0.765,4.43-0.765c0.843,0,1.636,0.069,2.377,0.209c0.742,0.139,1.426,0.329,2.052,0.57
		c0.625,0.24,1.197,0.527,1.717,0.861s0.982,0.695,1.391,1.085l-1.362,2.071c-0.214,0.325-0.489,0.524-0.828,0.599
		c-0.338,0.074-0.702-0.009-1.091-0.251c-0.371-0.222-0.722-0.414-1.05-0.576c-0.329-0.162-0.666-0.295-1.009-0.396
		s-0.704-0.176-1.084-0.223c-0.381-0.047-0.807-0.069-1.279-0.069c-0.881,0-1.674,0.155-2.378,0.466
		c-0.705,0.311-1.305,0.748-1.801,1.313s-0.879,1.245-1.147,2.037c-0.269,0.793-0.403,1.676-0.403,2.649
		c0,1.075,0.148,2.03,0.445,2.864c0.297,0.835,0.716,1.539,1.259,2.113c0.542,0.575,1.19,1.013,1.946,1.314s1.592,0.452,2.51,0.452
		c0.565,0,1.078-0.056,1.537-0.167c0.458-0.111,0.905-0.26,1.342-0.445v-3.073h-2.003c-0.297,0-0.528-0.078-0.695-0.236
		c-0.167-0.157-0.25-0.356-0.25-0.598V167.217z"/>
	<path style="fill:#002669;" d="M595.966,170.012v7.703h-4.699v-7.703l-7.342-12.557h4.144c0.407,0,0.729,0.095,0.966,0.285
		c0.236,0.189,0.434,0.434,0.592,0.729l2.864,5.896c0.24,0.464,0.459,0.896,0.653,1.3s0.366,0.8,0.515,1.189
		c0.139-0.399,0.299-0.8,0.479-1.203s0.392-0.832,0.633-1.286l2.837-5.896c0.064-0.12,0.144-0.241,0.236-0.361
		c0.092-0.12,0.201-0.229,0.326-0.327c0.125-0.097,0.27-0.176,0.432-0.236c0.162-0.06,0.341-0.09,0.535-0.09h4.172L595.966,170.012z
		"/>
</g>
<path style="fill:#002669;" d="M210.835,62.897l-23.665-0.284v63.936h-14.662V62.437l-23.558-0.282v-11.68h61.885V62.897z"/>
<path style="fill:#002669;" d="M272.155,65.313v33.662c0,15.55-7.983,28.601-28.681,28.601c-20.449,0-28.396-12.766-28.396-28.601
	V65.313h14.2v33.662c0,9.985,3.523,16.858,14.163,16.858c10.568,0,14.512-6.801,14.512-16.858V65.313H272.155z"/>
<path style="fill:#002669;" d="M295.743,96.373c0,10.711,6.309,18.782,19.18,18.782c5.967,0,11.541-1.59,16.523-4.981h0.14
	l3.869,11.922c-5.193,2.754-12.684,5.481-22.133,5.481c-21.036,0-32.133-14.169-32.133-31.593c0-17.247,10.92-31.733,33.691-31.733
	c8.626,0,15.131,1.98,19.831,4.349l-4.149,12.31h-0.106c-4.769-3.107-10.381-4.308-15.285-4.308
	C302.545,76.6,295.743,85.166,295.743,96.373z"/>
<path style="fill:#002669;" d="M388.598,80.297c-6.4-3.465-11.421-5.195-17.284-5.195c-7.468,0-11.878,2.72-11.878,6.974
	c0.037,11.632,34.644,5.559,34.644,26.94c0,11.74-10.452,18.735-27.484,18.735c-9.068,0-17.01-2.07-23.763-6.253l3.578-11.701h0.176
	c5.86,4.783,11.617,6.927,19.684,6.927c8.696,0,13.327-2.691,13.327-7.432c-0.036-12.617-34.751-4.995-34.751-26.941
	c0-11.027,8.909-18.24,26.073-18.24c7.536,0,13.37,1.377,21.431,4.981l-3.541,11.206H388.598z"/>
<path style="fill:#002669;" d="M468.183,95.666c0,19.258-13.497,31.909-33.544,31.909c-19.835,0-32.841-12.333-32.841-31.451
	c0-19.293,13.145-31.875,33.194-31.875C454.934,64.25,468.183,76.62,468.183,95.666z M453.594,95.773
	c0.107-12.553-7.361-19.744-18.496-19.744c-11.242,0-18.637,7.367-18.673,19.99c-0.07,12.377,6.904,19.814,18.18,19.814
	C445.81,115.833,453.523,108.502,453.594,95.773z"/>
<path style="fill:#002669;" d="M536.71,65.313v61.235h-11.854l-20.963-24.826c-4.874-5.674-10.61-13.231-13.517-17.121
	c0.237,4.96,0.654,14.734,0.654,22.26v19.688h-12.887V65.313h11.646l21.241,24.755c4.921,5.656,10.671,13.415,13.519,17.334
	c-0.279-4.963-0.69-15.039-0.69-22.401V65.313H536.71z"/>
<path style="fill:#002669;" d="M169.68,23.017c0.15,0,0.3,0.029,0.451,0.085c0.15,0.056,0.293,0.154,0.431,0.291l2.514,2.647
	c-1.1,1.439-2.48,2.524-4.138,3.256c-1.658,0.732-3.619,1.098-5.884,1.098c-2.078,0-3.939-0.353-5.584-1.06
	c-1.645-0.707-3.041-1.683-4.186-2.928c-1.145-1.245-2.025-2.722-2.637-4.43c-0.612-1.708-0.92-3.563-0.92-5.565
	c0-2.039,0.35-3.913,1.051-5.621c0.701-1.708,1.68-3.182,2.937-4.42c1.257-1.239,2.762-2.202,4.515-2.891
	c1.752-0.688,3.684-1.032,5.8-1.032c1.026,0,1.993,0.091,2.9,0.272c0.907,0.182,1.755,0.432,2.542,0.751
	c0.789,0.319,1.514,0.701,2.178,1.145c0.662,0.444,1.251,0.936,1.764,1.473l-2.139,2.872c-0.138,0.175-0.301,0.335-0.488,0.479
	c-0.188,0.144-0.451,0.216-0.788,0.216c-0.225,0-0.438-0.05-0.638-0.15c-0.201-0.1-0.413-0.222-0.638-0.366s-0.472-0.3-0.742-0.469
	c-0.268-0.169-0.588-0.326-0.957-0.47c-0.369-0.143-0.8-0.266-1.294-0.366c-0.495-0.1-1.074-0.15-1.736-0.15
	c-1.152,0-2.204,0.203-3.155,0.61c-0.951,0.407-1.766,0.989-2.449,1.746c-0.683,0.757-1.214,1.674-1.595,2.75
	c-0.383,1.076-0.574,2.284-0.574,3.622c0,1.402,0.191,2.647,0.574,3.736c0.381,1.088,0.9,2.005,1.557,2.75
	c0.658,0.745,1.423,1.311,2.299,1.699c0.877,0.388,1.815,0.582,2.816,0.582c0.576,0,1.101-0.028,1.576-0.084
	c0.476-0.057,0.917-0.153,1.324-0.291c0.405-0.137,0.794-0.316,1.162-0.535c0.37-0.219,0.742-0.491,1.117-0.817
	c0.151-0.125,0.313-0.228,0.488-0.309C169.311,23.058,169.492,23.017,169.68,23.017z"/>
<path style="fill:#002669;" d="M189.073,30.094h-6.382V2.746h6.382V30.094z"/>
<path style="fill:#002669;" d="M220.008,2.746v5.031h-7.695v22.317h-6.344V7.777h-7.696V2.746H220.008z"/>
<path style="fill:#002669;" d="M243.949,19.695v10.399h-6.344V19.695l-9.911-16.949h5.594c0.55,0,0.988,0.128,1.313,0.385
	c0.326,0.257,0.589,0.585,0.789,0.986l3.867,7.958c0.313,0.638,0.6,1.226,0.863,1.764c0.263,0.539,0.495,1.07,0.694,1.596
	c0.188-0.538,0.414-1.076,0.676-1.614c0.263-0.538,0.545-1.12,0.844-1.746l3.83-7.958c0.075-0.163,0.178-0.326,0.309-0.488
	c0.132-0.162,0.281-0.309,0.451-0.441c0.169-0.131,0.363-0.237,0.581-0.319c0.22-0.081,0.46-0.122,0.722-0.122h5.632L243.949,19.695
	z"/>
<path style="fill:#002669;" d="M304.086,16.41c0,1.977-0.341,3.817-1.022,5.518c-0.683,1.702-1.643,3.181-2.881,4.439
	c-1.24,1.258-2.732,2.243-4.477,2.957c-1.747,0.713-3.683,1.07-5.81,1.07c-2.128,0-4.067-0.356-5.819-1.07s-3.251-1.699-4.495-2.957
	c-1.245-1.258-2.208-2.737-2.891-4.439c-0.683-1.701-1.023-3.541-1.023-5.518c0-1.977,0.341-3.816,1.023-5.518
	c0.683-1.701,1.645-3.178,2.891-4.429c1.244-1.251,2.743-2.234,4.495-2.947s3.691-1.07,5.819-1.07c2.126,0,4.063,0.36,5.81,1.079
	c1.745,0.72,3.237,1.705,4.477,2.956c1.238,1.252,2.199,2.728,2.881,4.43C303.745,12.613,304.086,14.446,304.086,16.41z
	 M297.592,16.41c0-1.352-0.176-2.568-0.525-3.651c-0.352-1.082-0.854-1.999-1.512-2.75c-0.657-0.751-1.461-1.326-2.411-1.727
	c-0.952-0.401-2.034-0.601-3.248-0.601c-1.227,0-2.318,0.2-3.276,0.601c-0.957,0.401-1.764,0.976-2.422,1.727
	c-0.657,0.751-1.16,1.667-1.511,2.75c-0.35,1.083-0.525,2.299-0.525,3.651c0,1.364,0.175,2.587,0.525,3.67
	c0.35,1.083,0.854,1.999,1.511,2.75c0.658,0.751,1.464,1.324,2.422,1.718c0.957,0.394,2.049,0.591,3.276,0.591
	c1.214,0,2.296-0.197,3.248-0.591c0.95-0.394,1.754-0.967,2.411-1.718c0.658-0.75,1.16-1.667,1.512-2.75
	C297.416,18.998,297.592,17.774,297.592,16.41z"/>
<path style="fill:#002669;" d="M331.7,2.746v4.88h-11.224v6.926h9.348v4.899h-9.348v10.643h-6.381V2.746H331.7z"/>
<path style="fill:#FFFFFF;" d="M128.189,56.586c-0.835-3.678-2.209-7.23-4.068-10.512c-1.745-3.08-3.915-5.915-6.417-8.418
	c-2.81-2.81-6.039-5.195-9.562-7.036c-1.747-0.913-3.564-1.692-5.429-2.328c-0.458-0.156-0.92-0.304-1.384-0.443
	c-0.188-0.056-0.465-0.086-0.63-0.19c-0.061-0.039-0.115-0.117-0.166-0.169c-0.797-0.811-1.594-1.623-2.391-2.434
	c-1.421-1.446-2.842-2.893-4.263-4.339c-1.654-1.683-3.308-3.367-4.962-5.05c-1.472-1.498-2.944-2.997-4.416-4.495
	c-0.899-0.915-1.798-1.83-2.697-2.745C81.7,8.32,81.572,8.13,81.432,8.087c-0.104-0.032-0.268,0-0.376,0c-0.233,0-0.467,0-0.7,0
	c-0.57,0-1.139,0-1.709,0c-0.438,0-0.877,0-1.315,0c-0.145,0-0.14,0.001-0.246-0.073c-0.483-0.335-0.918-0.786-1.364-1.167
	c-1.688-1.444-3.375-2.889-5.063-4.333c-0.711-0.609-1.423-1.218-2.134-1.827c-0.206-0.176-0.411-0.352-0.617-0.528
	C67.873,0.129,67.768,0.003,67.72,0c-0.089-0.006-0.326,0.215-0.397,0.261c-0.349,0.23-0.698,0.459-1.047,0.689
	c-1.216,0.8-2.432,1.6-3.648,2.4c-1.704,1.121-3.408,2.243-5.113,3.364c-1.955,1.286-3.91,2.573-5.866,3.859
	c-1.941,1.277-3.882,2.554-5.823,3.832c-1.689,1.111-3.378,2.223-5.067,3.334c-1.194,0.786-2.389,1.572-3.583,2.358
	c-0.328,0.216-0.657,0.432-0.985,0.648c-0.08,0.053-0.243,0.212-0.341,0.223c-0.112,0.012-0.346-0.141-0.447-0.183
	c-0.354-0.144-0.708-0.289-1.062-0.433c-1.04-0.424-2.079-0.849-3.119-1.273c-0.935-0.381-1.869-0.763-2.804-1.144
	c-0.196-0.08-0.58-0.331-0.784-0.279c-0.21,0.053-0.468,0.307-0.647,0.424c-0.45,0.295-0.899,0.59-1.349,0.885
	c-1.427,0.937-2.855,1.873-4.282,2.81c-1.862,1.222-3.724,2.444-5.586,3.666c-1.977,1.297-3.955,2.595-5.932,3.892
	c-1.745,1.145-3.49,2.29-5.235,3.435c-1.193,0.783-2.386,1.566-3.58,2.349c-0.288,0.189-0.576,0.378-0.864,0.567
	c-0.063,0.042-0.122,0.065-0.147,0.125c-0.032,0.077,0,0.237,0,0.319c0,0.219,0,0.438,0,0.657c0,0.747,0,1.495,0,2.242
	c0,1.121,0,2.242,0,3.363c0,1.453,0,2.907,0,4.36c0,1.723,0,3.447,0,5.17c0,1.951,0,3.902,0,5.853c0,2.14,0,4.28,0,6.419
	c0,2.26,0,4.521,0,6.781c0,2.342,0,4.683,0,7.025c0,2.374,0,4.749,0,7.123c0,2.369,0,4.738,0,7.107c0,2.293,0,4.587,0,6.88
	c0,2.18,0,4.36,0,6.539c0,2.026,0,4.053,0,6.079c0,1.806,0,3.612,0,5.417c0,1.546,0,3.092,0,4.638c0,1.238,0,2.476,0,3.713
	c0,0.884,0,1.768,0,2.652c0,0.473,0,0.947,0,1.42c0,0.029-0.022,0.185,0,0.208c0.02,0.02,0.145,0.001,0.175,0.001
	c0.247,0,0.494,0,0.741,0c0.448,0,0.896,0,1.344,0c0.213,0,0.427,0,0.64,0c0.611,0,1.223,0,1.835,0c0.975,0,1.95,0,2.924,0
	c1.303,0,2.606,0,3.909,0c1.577,0,3.154,0,4.731,0c1.815,0,3.629,0,5.444,0c2.02,0,4.04,0,6.06,0c2.165,0,4.33,0,6.494,0
	c2.277,0,4.553,0,6.83,0c2.347,0,4.693,0,7.04,0c2.385,0,4.771,0,7.156,0c2.361,0,4.721,0,7.082,0c2.305,0,4.61,0,6.915,0
	c2.217,0,4.434,0,6.651,0c2.067,0,4.134,0,6.201,0c1.885,0,3.771,0,5.656,0c1.662,0,3.324,0,4.986,0c1.402,0,2.805,0,4.207,0
	c1.088,0,2.176,0,3.264,0c0.739,0,1.478,0,2.217,0c0.226,0,0.452,0,0.679,0c0.093,0,0.28,0.037,0.367,0
	c0.095-0.041,0.025,0.037,0.064-0.083c0.032-0.098,0.002-0.258,0.003-0.36c0.002-0.207,0.003-0.414,0.005-0.621
	c0.011-1.513,0.022-3.026,0.033-4.539c0.016-2.21,0.033-4.42,0.049-6.63c0.017-2.332,0.034-4.665,0.052-6.997
	c0.014-1.911,0.028-3.822,0.042-5.733c0.005-0.627,0.009-1.254,0.014-1.881c0.001-0.199,0.003-0.399,0.004-0.598
	c0.001-0.092-0.029-0.247,0.002-0.335c0.005-0.015-0.008-0.047,0-0.06c0.024-0.037,0.16-0.064,0.204-0.081
	c0.238-0.091,0.475-0.184,0.711-0.28c0.928-0.375,1.842-0.787,2.738-1.233c1.8-0.896,3.53-1.932,5.17-3.096
	c3.23-2.293,6.111-5.079,8.517-8.226c2.297-3.003,4.154-6.339,5.488-9.877c1.345-3.567,2.155-7.33,2.412-11.133
	C129.329,64.188,129.038,60.325,128.189,56.586z M55.256,49.089c-0.032,0.02-0.065,0.039-0.097,0.059
	C55.192,49.128,55.224,49.109,55.256,49.089z"/>
<polygon style="fill:none;" points="19.07,50.177 25.577,45.885 25.577,39.002 19.07,43.294 "/>
<polygon style="fill:none;" points="19.07,38.679 25.577,34.387 25.577,27.504 19.07,31.796 "/>
<polygon style="fill:#FFFFFF;" points="8.802,45.438 15.31,41.146 15.31,34.263 8.802,38.555 "/>
<polygon style="fill:#FFFFFF;" points="19.07,38.679 25.577,34.387 25.577,27.504 19.07,31.796 "/>
<polygon style="fill:#FFFFFF;" points="8.802,56.967 15.31,52.676 15.31,45.792 8.802,50.084 "/>
<polygon style="fill:#FFFFFF;" points="8.802,68.512 15.31,64.22 15.31,57.337 8.802,61.629 "/>
<polygon style="fill:#FFFFFF;" points="19.07,50.177 25.577,45.885 25.577,39.002 19.07,43.294 "/>
<polygon style="fill:#FFFFFF;" points="19.07,61.765 25.577,57.473 25.577,50.59 19.07,54.882 "/>
<polygon style="fill:#FFFFFF;" points="29.338,43.444 35.845,39.152 35.845,32.269 29.338,36.561 "/>
<polygon style="fill:none;" points="19.07,50.177 25.577,45.885 25.577,39.002 19.07,43.294 "/>
<polygon style="fill:none;" points="19.07,38.679 25.577,34.387 25.577,27.504 19.07,31.796 "/>
<polygon style="fill:none;" points="19.07,50.177 25.577,45.885 25.577,39.002 19.07,43.294 "/>
<polygon style="fill:none;" points="19.07,38.679 25.577,34.387 25.577,27.504 19.07,31.796 "/>
<polygon style="fill:none;" points="19.07,50.177 25.577,45.885 25.577,39.002 19.07,43.294 "/>
<polygon style="fill:none;" points="19.07,38.679 25.577,34.387 25.577,27.504 19.07,31.796 "/>
<path style="fill:none;" d="M118.901,41.902c0.065,0.08,0.129,0.16,0.193,0.24C119.031,42.062,118.966,41.982,118.901,41.902z"/>
<path style="fill:none;" d="M117.825,40.635c0.059,0.066,0.118,0.132,0.176,0.198C117.942,40.767,117.883,40.701,117.825,40.635z"/>
<path style="fill:none;" d="M117.284,40.041c0.049,0.052,0.098,0.104,0.146,0.157C117.382,40.145,117.333,40.093,117.284,40.041z"/>
<path style="fill:none;" d="M119.426,42.562c0.065,0.083,0.129,0.167,0.193,0.251C119.555,42.73,119.491,42.646,119.426,42.562z"/>
<path style="fill:none;" d="M116.775,39.502c0.024,0.025,0.048,0.049,0.072,0.073C116.822,39.55,116.798,39.526,116.775,39.502z"/>
<path style="fill:none;" d="M119.938,43.238c0.063,0.085,0.125,0.172,0.188,0.258C120.063,43.409,120.001,43.323,119.938,43.238z"/>
<path style="fill:none;" d="M118.367,41.259c0.063,0.074,0.126,0.148,0.188,0.223C118.493,41.407,118.43,41.333,118.367,41.259z"/>
<path style="fill:none;" d="M120.918,44.627c0.055,0.082,0.108,0.164,0.162,0.246C121.026,44.791,120.973,44.708,120.918,44.627z"/>
<path style="fill:none;" d="M120.435,43.925c0.061,0.087,0.121,0.174,0.181,0.261C120.556,44.099,120.496,44.012,120.435,43.925z"/>
<path style="fill:none;" d="M116.735,61.326c0.039,0.028,0.078,0.056,0.117,0.086C116.813,61.382,116.774,61.354,116.735,61.326z"/>
<path style="fill:none;" d="M117.107,61.617c0.041,0.035,0.082,0.072,0.122,0.109C117.188,61.689,117.148,61.652,117.107,61.617z"/>
<polygon style="fill:none;" points="115.651,60.703 115.651,60.703 115.651,60.703 "/>
<path style="fill:none;" d="M116.406,61.103c0.013,0.008,0.027,0.016,0.041,0.024C116.433,61.119,116.419,61.111,116.406,61.103z"/>
<path style="fill:none;" d="M117.462,61.945c0.034,0.035,0.066,0.072,0.1,0.107C117.528,62.017,117.497,61.98,117.462,61.945z"/>
<polygon style="fill:none;" points="25.577,39.002 19.07,43.294 19.07,50.177 25.577,45.885 "/>
<polygon style="fill:none;" points="25.577,27.504 19.07,31.796 19.07,38.679 25.577,34.387 "/>
<path style="fill:#002669;" d="M21.063,81.35c7.865-0.531,14.081-7.075,14.081-15.075h5.315v-4.913h5.03
	c1.586-4.685,4.631-8.693,8.591-11.495h0c1.936-4.503,4.728-8.642,8.298-12.212c1.628-1.628,3.374-3.094,5.218-4.391l0.061-12.06
	l-3.556-4.141l3.441-10.993l7.409,6.377l4.491,0.033l13.489,13.821c1.237,0.09,2.462,0.239,3.673,0.442L80.514,10.367h-4.186
	l-8.787-7.52L36.103,23.533l-8.181-3.339L2.294,37.01v90.33h15.908V81.35H21.063z M29.338,36.561l6.508-4.292v6.883l-6.508,4.292
	V36.561z M19.07,31.796l6.508-4.292v6.883l-6.508,4.292V31.796z M19.07,43.294l6.508-4.292v6.883l-6.508,4.292V43.294z
	 M19.07,54.882l6.508-4.292v6.883l-6.508,4.292V54.882z M15.31,64.22l-6.508,4.292v-6.883l6.508-4.292V64.22z M15.31,52.676
	l-6.508,4.292v-6.883l6.508-4.292V52.676z M15.31,41.146l-6.508,4.292v-6.883l6.508-4.292V41.146z"/>
<path style="fill:#C24200;" d="M75.017,103.961c-1.623-1.609-2.791-3.642-3.203-5.574l-3.276-15.135
	c-0.421-1.971-0.001-4.002,1.182-5.717c1.256-1.821,3.227-3.057,5.408-3.392c0.357-0.055,0.71-0.083,1.049-0.083
	c1.854,0,3.427,0.827,4.547,2.39c0.794,1.108,1.383,2.608,1.8,4.589l1.825,8.716l0.01,0.047l0.007,0.047
	c0.273,1.781,0.816,1.864,1.832,1.864c0.287,0,0.606-0.022,0.937-0.057l-0.033-23.772h-4.454
	c-0.762-7.704-7.251-13.722-15.145-13.722c-7.894,0-14.382,6.018-15.145,13.722H46.97v4.909h-5.393
	c-0.048,8.348-6.796,15.105-15.132,15.152v39.394h7.74c7.783-3.768,18.677-7.232,24.662-9.862c0.64-0.281,1.349-0.644,1.543-1.315
	c0.27-0.938-0.62-1.82-0.69-2.794c-0.08-1.119,0.912-2,1.859-2.602c4.058-2.578,9.683-4.082,14.421-5.961
	C75.651,104.546,75.329,104.27,75.017,103.961z"/>
<path style="fill:#C24200;" d="M81.265,106.741c-0.108,0.006-0.217,0.009-0.325,0.009c-0.56,0-1.128-0.085-1.695-0.236
	c-3.11,1.691-6.552,3.459-9.256,5.055c-0.679,0.401-1.451,0.976-1.372,1.76c0.085,0.834,1.043,1.216,1.716,1.716
	c1.2,0.892,1.652,2.66,1.026,4.019c-0.328,0.714-0.898,1.284-1.474,1.818c-1.788,1.659-4.921,4.175-7.959,6.458h25.258l-0.03-21.254
	C85.657,106.364,83.806,106.604,81.265,106.741z"/>
<path style="fill:#FFDB22;" d="M121.983,46.31c-3.223-5.41-7.831-9.965-13.272-13.133c-5.79-3.372-12.481-5.112-19.18-5.022
	c-6.119,0.082-12.179,1.686-17.528,4.662c-5.583,3.106-10.322,7.654-13.665,13.097c-0.426,0.694-0.826,1.403-1.206,2.124
	c4.3-2.142,9.235-2.886,13.978-2.131c4.128,0.657,8.04,2.455,11.236,5.147c1.772,1.492,3.32,3.25,4.576,5.197
	c-0.001-0.287-0.008-0.58-0.014-0.872c0.055,0.028,0.118,0.04,0.175,0.064l-0.003-2.209c0-4.746,3.861-8.608,8.607-8.608
	c4.746,0,8.607,3.861,8.607,8.608v0.008v0.008l-0.209,22.939c0.154,0.007,0.303,0.011,0.446,0.011c0.689,0,1.152-0.09,1.376-0.268
	c0.25-0.199,0.427-0.724,0.499-1.48l0.005-0.052l0.008-0.052l1.367-8.755c0.298-1.959,0.801-3.448,1.537-4.553
	c1.051-1.578,2.602-2.412,4.483-2.412c0.211,0,0.43,0.011,0.65,0.032c2.087,0.2,4.024,1.267,5.315,2.927
	c1.217,1.565,1.725,3.472,1.432,5.369l-0.001,0.005l-0.001,0.005l-2.382,14.834c-0.296,1.901-1.326,3.921-2.824,5.544
	c-1.698,1.838-3.714,2.854-5.679,2.86l-0.232,0c-2.55,0-4.43-0.129-6.124-0.34l-0.091,9.959c5.361-2.15,10.189-5.565,14.016-9.889
	c3.857-4.359,6.668-9.615,8.131-15.25c0.87-3.352,1.262-6.823,1.178-10.284C127.042,58.04,125.236,51.773,121.983,46.31z"/>
<path style="fill:#83AC16;" d="M114.289,60.426c-0.166-0.016-0.326-0.024-0.481-0.024c-2.777,0-3.815,2.503-4.264,5.456
	l-1.368,8.762c-0.262,2.727-1.621,3.355-3.643,3.355c-0.677,0-1.428-0.07-2.237-0.156l0.224-24.586c0-3.757-3.074-6.831-6.831-6.831
	c-3.757,0-6.831,3.074-6.831,6.831l0.056,39.966c-0.998,0.161-1.911,0.291-2.715,0.291c-1.886,0-3.179-0.709-3.587-3.371
	l-1.825-8.716c-0.638-3.025-1.841-5.566-4.609-5.566c-0.247,0-0.506,0.02-0.779,0.062c-3.329,0.511-5.826,3.688-5.123,6.982
	l3.275,15.13c0.687,3.219,4.097,6.962,7.39,6.962c0.077,0,0.153-0.002,0.23-0.006c3.59-0.193,5.774-0.594,7.759-1.085l0.033,23.459
	h12.882l0.361-39.535c2.113,0.356,4.31,0.62,7.882,0.62c0.075,0,0.15,0,0.227,0c3.154-0.01,6.272-3.791,6.754-6.908l2.382-14.836
	C119.932,63.565,117.428,60.727,114.289,60.426z"/>
</svg>
