<?xml version="1.0" encoding="iso-8859-1"?>
<!-- Generator: Adobe Illustrator 26.0.3, SVG Export Plug-In . SVG Version: 6.00 Build 0)  -->
<svg version="1.1" id="Logo" xmlns="http://www.w3.org/2000/svg" xmlns:xlink="http://www.w3.org/1999/xlink" x="0px" y="0px"
	 viewBox="0 0 440.251 459.628" style="enable-background:new 0 0 440.251 459.628;" xml:space="preserve">
<g>
	<g>
		<path style="fill:#FFFFFF;" d="M130.991,424.839h-3.944v-16.901h3.944V424.839z"/>
		<path style="fill:#FFFFFF;" d="M151.261,407.938v16.901h-2.042c-0.301,0-0.555-0.048-0.76-0.145s-0.407-0.266-0.608-0.505
			l-7.97-10.081c0.031,0.302,0.053,0.594,0.064,0.876s0.018,0.548,0.018,0.795v9.06h-3.457v-16.901h2.064
			c0.17,0,0.313,0.008,0.43,0.023c0.115,0.016,0.221,0.045,0.312,0.087c0.094,0.043,0.182,0.103,0.268,0.18
			c0.084,0.077,0.182,0.182,0.289,0.313l8.039,10.149c-0.039-0.324-0.065-0.64-0.081-0.945c-0.016-0.305-0.022-0.593-0.022-0.864
			v-8.943H151.261z"/>
		<path style="fill:#FFFFFF;" d="M160.728,410.954v4.28h5.777v3.027h-5.777v6.577h-3.943v-16.901h10.881v3.017H160.728z"/>
		<path style="fill:#FFFFFF;" d="M188.193,416.383c0,1.222-0.211,2.358-0.633,3.41s-1.016,1.966-1.78,2.743
			c-0.766,0.777-1.688,1.387-2.767,1.827s-2.275,0.661-3.59,0.661s-2.514-0.221-3.597-0.661s-2.009-1.05-2.778-1.827
			s-1.365-1.691-1.786-2.743c-0.422-1.052-0.632-2.188-0.632-3.41s0.21-2.359,0.632-3.411c0.421-1.051,1.017-1.964,1.786-2.737
			s1.695-1.38,2.778-1.821c1.083-0.44,2.281-0.661,3.597-0.661c1.314,0,2.511,0.223,3.59,0.667c1.078,0.445,2.001,1.054,2.767,1.827
			c0.765,0.773,1.358,1.686,1.78,2.737S188.193,415.168,188.193,416.383z M184.18,416.383c0-0.836-0.109-1.588-0.325-2.257
			c-0.217-0.669-0.528-1.235-0.935-1.699c-0.405-0.464-0.902-0.819-1.49-1.067c-0.588-0.247-1.256-0.371-2.006-0.371
			c-0.759,0-1.434,0.124-2.025,0.371c-0.591,0.248-1.09,0.604-1.496,1.067s-0.717,1.03-0.934,1.699s-0.324,1.421-0.324,2.257
			c0,0.843,0.107,1.599,0.324,2.268s0.527,1.235,0.934,1.699s0.905,0.817,1.496,1.062c0.592,0.243,1.267,0.365,2.025,0.365
			c0.75,0,1.418-0.122,2.006-0.365c0.588-0.244,1.085-0.598,1.49-1.062c0.406-0.464,0.718-1.03,0.935-1.699
			C184.07,417.982,184.18,417.226,184.18,416.383z"/>
		<path style="fill:#FFFFFF;" d="M206.6,424.839h-3.55c-0.657,0-1.129-0.247-1.415-0.742l-2.807-4.907
			c-0.133-0.209-0.279-0.361-0.441-0.458s-0.395-0.145-0.695-0.145h-0.998v6.252h-3.921v-16.901h5.498
			c1.222,0,2.265,0.126,3.126,0.377c0.863,0.252,1.566,0.602,2.111,1.05c0.545,0.449,0.941,0.979,1.189,1.59
			c0.247,0.61,0.371,1.275,0.371,1.995c0,0.549-0.074,1.066-0.221,1.554s-0.363,0.938-0.649,1.352s-0.64,0.783-1.062,1.108
			c-0.422,0.324-0.906,0.591-1.455,0.8c0.255,0.132,0.494,0.296,0.719,0.493s0.426,0.432,0.604,0.702L206.6,424.839z
			 M198.27,415.884c0.534,0,0.987-0.067,1.363-0.203c0.375-0.135,0.683-0.323,0.923-0.562c0.238-0.239,0.413-0.521,0.521-0.841
			c0.107-0.321,0.162-0.667,0.162-1.038c0-0.743-0.242-1.323-0.725-1.74c-0.484-0.418-1.232-0.627-2.245-0.627h-1.577v5.012
			L198.27,415.884L198.27,415.884z"/>
		<path style="fill:#FFFFFF;" d="M229.224,407.938v16.901h-3.456v-9.721c0-0.225,0.006-0.468,0.017-0.73
			c0.012-0.264,0.033-0.53,0.063-0.801l-4.488,8.688c-0.14,0.271-0.327,0.476-0.562,0.614c-0.236,0.14-0.505,0.209-0.807,0.209
			h-0.533c-0.303,0-0.57-0.069-0.807-0.209c-0.236-0.139-0.424-0.344-0.562-0.614l-4.489-8.712c0.022,0.278,0.042,0.551,0.058,0.818
			c0.016,0.267,0.023,0.512,0.023,0.736v9.721h-3.457v-16.901h2.993c0.17,0,0.319,0.004,0.446,0.012
			c0.128,0.008,0.242,0.031,0.342,0.069c0.102,0.039,0.191,0.099,0.273,0.18c0.081,0.082,0.16,0.196,0.238,0.343l4.35,8.572
			c0.154,0.294,0.303,0.6,0.446,0.916c0.144,0.317,0.28,0.643,0.412,0.975c0.132-0.34,0.269-0.673,0.411-0.997
			c0.144-0.325,0.297-0.635,0.459-0.929l4.338-8.537c0.077-0.146,0.156-0.261,0.238-0.343c0.081-0.081,0.172-0.141,0.272-0.18
			c0.101-0.038,0.214-0.062,0.342-0.069s0.276-0.012,0.446-0.012h2.994V407.938z"/>
		<path style="fill:#FFFFFF;" d="M249.894,424.839h-3.039c-0.34,0-0.615-0.079-0.823-0.238c-0.209-0.158-0.368-0.361-0.476-0.608
			l-0.998-2.946h-6.426l-0.998,2.946c-0.085,0.217-0.238,0.412-0.458,0.586s-0.493,0.261-0.817,0.261h-3.062l6.542-16.901h4.014
			L249.894,424.839z M243.666,418.378l-1.566-4.629c-0.115-0.294-0.24-0.64-0.371-1.038s-0.264-0.829-0.395-1.293
			c-0.115,0.472-0.24,0.908-0.371,1.311s-0.256,0.75-0.371,1.044l-1.555,4.605L243.666,418.378L243.666,418.378z"/>
		<path style="fill:#FFFFFF;" d="M263.853,411.047h-4.756v13.792h-3.92v-13.792h-4.756v-3.109h13.432V411.047z"/>
		<path style="fill:#FFFFFF;" d="M271.703,424.839h-3.944v-16.901h3.944V424.839z"/>
		<path style="fill:#FFFFFF;" d="M293.87,416.383c0,1.222-0.211,2.358-0.632,3.41c-0.422,1.052-1.016,1.966-1.781,2.743
			s-1.688,1.387-2.766,1.827c-1.08,0.44-2.276,0.661-3.591,0.661s-2.514-0.221-3.597-0.661c-1.082-0.44-2.008-1.05-2.777-1.827
			s-1.365-1.691-1.787-2.743s-0.632-2.188-0.632-3.41s0.21-2.359,0.632-3.411c0.422-1.051,1.018-1.964,1.787-2.737
			s1.695-1.38,2.777-1.821c1.083-0.44,2.281-0.661,3.597-0.661c1.314,0,2.511,0.223,3.591,0.667c1.078,0.445,2,1.054,2.766,1.827
			s1.359,1.686,1.781,2.737C293.659,414.035,293.87,415.168,293.87,416.383z M289.856,416.383c0-0.836-0.108-1.588-0.325-2.257
			s-0.527-1.235-0.934-1.699s-0.902-0.819-1.49-1.067c-0.588-0.247-1.257-0.371-2.007-0.371c-0.759,0-1.433,0.124-2.024,0.371
			c-0.592,0.248-1.09,0.604-1.496,1.067s-0.718,1.03-0.934,1.699c-0.217,0.669-0.325,1.421-0.325,2.257
			c0,0.843,0.108,1.599,0.325,2.268c0.216,0.669,0.527,1.235,0.934,1.699s0.904,0.817,1.496,1.062
			c0.592,0.243,1.266,0.365,2.024,0.365c0.75,0,1.419-0.122,2.007-0.365c0.588-0.244,1.084-0.598,1.49-1.062s0.717-1.03,0.934-1.699
			S289.856,417.226,289.856,416.383z"/>
		<path style="fill:#FFFFFF;" d="M313.205,407.938v16.901h-2.042c-0.302,0-0.555-0.048-0.76-0.145s-0.407-0.266-0.608-0.505
			l-7.97-10.081c0.03,0.302,0.052,0.594,0.063,0.876s0.018,0.548,0.018,0.795v9.06h-3.457v-16.901h2.064
			c0.171,0,0.314,0.008,0.43,0.023c0.116,0.016,0.221,0.045,0.313,0.087c0.093,0.043,0.182,0.103,0.267,0.18s0.182,0.182,0.29,0.313
			l8.039,10.149c-0.039-0.324-0.065-0.64-0.081-0.945s-0.023-0.593-0.023-0.864v-8.943H313.205z"/>
		<path style="fill:#FFFFFF;" d="M143.975,438.887h-4.756v13.792h-3.921v-13.792h-4.756v-3.109h13.433V438.887z"/>
		<path style="fill:#FFFFFF;" d="M151.823,438.794v3.943h5.313v2.9h-5.313v4.025h6.937v3.016h-10.881v-16.901h10.881v3.017
			L151.823,438.794L151.823,438.794z"/>
		<path style="fill:#FFFFFF;" d="M174.59,448.306c0.092,0,0.186,0.018,0.277,0.052c0.094,0.035,0.182,0.095,0.268,0.18l1.555,1.636
			c-0.682,0.89-1.533,1.561-2.559,2.013c-1.024,0.452-2.236,0.679-3.637,0.679c-1.283,0-2.434-0.219-3.451-0.655
			c-1.017-0.437-1.879-1.04-2.586-1.81c-0.708-0.77-1.252-1.682-1.631-2.737s-0.568-2.202-0.568-3.439
			c0-1.261,0.205-2.419,0.615-3.475s0.986-1.966,1.729-2.731s1.632-1.361,2.668-1.787c1.036-0.425,2.177-0.638,3.422-0.638
			c0.635,0,1.232,0.057,1.793,0.168c0.561,0.112,1.084,0.268,1.571,0.464c0.487,0.197,0.936,0.436,1.346,0.714
			c0.409,0.278,0.772,0.58,1.091,0.905l-1.322,1.774c-0.086,0.108-0.186,0.207-0.303,0.296c-0.115,0.089-0.277,0.133-0.486,0.133
			c-0.14,0-0.271-0.03-0.395-0.093c-0.124-0.062-0.256-0.137-0.395-0.226s-0.292-0.186-0.459-0.29
			c-0.166-0.104-0.363-0.201-0.591-0.29c-0.229-0.089-0.495-0.164-0.8-0.227c-0.307-0.062-0.664-0.093-1.074-0.093
			c-0.648,0-1.242,0.12-1.78,0.359c-0.538,0.24-1.001,0.59-1.392,1.05c-0.391,0.461-0.692,1.025-0.904,1.694
			c-0.213,0.669-0.32,1.433-0.32,2.291c0,0.866,0.119,1.636,0.354,2.308c0.235,0.673,0.557,1.24,0.963,1.7
			c0.405,0.46,0.88,0.81,1.421,1.05c0.541,0.239,1.121,0.359,1.74,0.359c0.355,0,0.68-0.018,0.975-0.053
			c0.293-0.034,0.568-0.093,0.823-0.174s0.495-0.189,0.72-0.324c0.224-0.136,0.451-0.308,0.684-0.517
			c0.093-0.077,0.193-0.141,0.302-0.191C174.361,448.331,174.473,448.306,174.59,448.306z"/>
		<path style="fill:#FFFFFF;" d="M195.271,435.778v16.901h-3.943v-7.146h-6.867v7.146h-3.944v-16.901h3.944v7.064h6.867v-7.064
			H195.271z"/>
		<path style="fill:#FFFFFF;" d="M215.551,435.778v16.901h-2.042c-0.302,0-0.555-0.048-0.76-0.145s-0.407-0.266-0.608-0.505
			l-7.97-10.081c0.03,0.302,0.052,0.594,0.063,0.876s0.018,0.548,0.018,0.795v9.06h-3.457v-16.901h2.064
			c0.171,0,0.314,0.008,0.43,0.023c0.116,0.016,0.221,0.045,0.313,0.087c0.093,0.043,0.182,0.103,0.267,0.18s0.182,0.182,0.29,0.313
			l8.039,10.149c-0.039-0.324-0.065-0.64-0.081-0.945c-0.016-0.305-0.023-0.593-0.023-0.864v-8.943H215.551z"/>
		<path style="fill:#FFFFFF;" d="M237.685,444.223c0,1.222-0.211,2.358-0.633,3.41c-0.421,1.052-1.015,1.966-1.779,2.743
			c-0.766,0.777-1.688,1.387-2.768,1.827c-1.078,0.44-2.275,0.661-3.59,0.661s-2.514-0.221-3.596-0.661
			c-1.083-0.44-2.01-1.05-2.779-1.827s-1.364-1.691-1.785-2.743c-0.422-1.052-0.633-2.188-0.633-3.41s0.211-2.359,0.633-3.411
			c0.421-1.051,1.016-1.964,1.785-2.737s1.696-1.38,2.779-1.821c1.082-0.44,2.281-0.661,3.596-0.661s2.512,0.223,3.59,0.667
			c1.079,0.445,2.002,1.054,2.768,1.827c0.765,0.773,1.358,1.686,1.779,2.737C237.475,441.875,237.685,443.008,237.685,444.223z
			 M233.672,444.223c0-0.836-0.108-1.588-0.324-2.257c-0.217-0.669-0.528-1.235-0.935-1.699c-0.405-0.464-0.903-0.819-1.49-1.067
			c-0.588-0.247-1.257-0.371-2.007-0.371c-0.758,0-1.433,0.124-2.024,0.371c-0.591,0.248-1.091,0.604-1.496,1.067
			c-0.406,0.464-0.718,1.03-0.935,1.699c-0.216,0.669-0.324,1.421-0.324,2.257c0,0.843,0.108,1.599,0.324,2.268
			c0.217,0.669,0.528,1.235,0.935,1.699c0.405,0.464,0.905,0.817,1.496,1.062c0.592,0.243,1.267,0.365,2.024,0.365
			c0.75,0,1.419-0.122,2.007-0.365c0.587-0.244,1.085-0.598,1.49-1.062c0.406-0.464,0.718-1.03,0.935-1.699
			C233.563,445.822,233.672,445.066,233.672,444.223z"/>
		<path style="fill:#FFFFFF;" d="M252.45,449.547v3.132h-10.185v-16.901h3.921v13.77L252.45,449.547L252.45,449.547z"/>
		<path style="fill:#FFFFFF;" d="M272.694,444.223c0,1.222-0.211,2.358-0.632,3.41c-0.422,1.052-1.016,1.966-1.781,2.743
			s-1.688,1.387-2.766,1.827c-1.08,0.44-2.276,0.661-3.591,0.661s-2.514-0.221-3.597-0.661c-1.082-0.44-2.008-1.05-2.777-1.827
			s-1.365-1.691-1.787-2.743c-0.422-1.052-0.632-2.188-0.632-3.41s0.21-2.359,0.632-3.411c0.422-1.051,1.018-1.964,1.787-2.737
			s1.695-1.38,2.777-1.821c1.083-0.44,2.281-0.661,3.597-0.661c1.314,0,2.511,0.223,3.591,0.667c1.078,0.445,2,1.054,2.766,1.827
			s1.359,1.686,1.781,2.737C272.483,441.875,272.694,443.008,272.694,444.223z M268.681,444.223c0-0.836-0.108-1.588-0.325-2.257
			s-0.527-1.235-0.934-1.699s-0.902-0.819-1.49-1.067c-0.588-0.247-1.257-0.371-2.007-0.371c-0.759,0-1.433,0.124-2.024,0.371
			c-0.592,0.248-1.09,0.604-1.496,1.067s-0.718,1.03-0.934,1.699c-0.217,0.669-0.325,1.421-0.325,2.257
			c0,0.843,0.108,1.599,0.325,2.268c0.216,0.669,0.527,1.235,0.934,1.699s0.904,0.817,1.496,1.062
			c0.592,0.243,1.266,0.365,2.024,0.365c0.75,0,1.419-0.122,2.007-0.365c0.588-0.244,1.084-0.598,1.49-1.062s0.717-1.03,0.934-1.699
			S268.681,445.066,268.681,444.223z"/>
		<path style="fill:#FFFFFF;" d="M285.368,443.921h6.009v7.134c-0.865,0.634-1.788,1.095-2.767,1.381
			c-0.978,0.285-2.001,0.429-3.067,0.429c-1.393,0-2.659-0.219-3.8-0.655s-2.116-1.04-2.929-1.81s-1.438-1.682-1.879-2.737
			c-0.441-1.056-0.662-2.202-0.662-3.439c0-1.261,0.209-2.419,0.627-3.475s1.016-1.966,1.792-2.731
			c0.777-0.766,1.717-1.361,2.819-1.787c1.102-0.425,2.333-0.638,3.694-0.638c0.704,0,1.364,0.059,1.983,0.174
			c0.619,0.116,1.189,0.274,1.711,0.476s1,0.441,1.433,0.72s0.819,0.58,1.16,0.904l-1.137,1.729
			c-0.179,0.271-0.408,0.438-0.69,0.499s-0.586-0.008-0.91-0.209c-0.31-0.186-0.602-0.346-0.876-0.481
			c-0.274-0.135-0.556-0.245-0.841-0.33c-0.287-0.085-0.588-0.147-0.905-0.186s-0.673-0.059-1.067-0.059
			c-0.734,0-1.396,0.13-1.983,0.389c-0.587,0.26-1.089,0.625-1.502,1.097c-0.414,0.472-0.733,1.038-0.957,1.699
			c-0.225,0.661-0.337,1.397-0.337,2.21c0,0.896,0.124,1.693,0.371,2.39c0.248,0.695,0.598,1.283,1.051,1.763
			c0.452,0.479,0.993,0.845,1.623,1.097c0.631,0.251,1.328,0.377,2.094,0.377c0.473,0,0.899-0.047,1.282-0.14
			s0.756-0.216,1.12-0.371v-2.563h-1.671c-0.247,0-0.44-0.065-0.58-0.197s-0.209-0.298-0.209-0.499L285.368,443.921L285.368,443.921
			z"/>
		<path style="fill:#FFFFFF;" d="M304.246,446.252v6.427h-3.921v-6.427l-6.124-10.475h3.456c0.341,0,0.608,0.079,0.806,0.238
			c0.197,0.158,0.361,0.361,0.494,0.608l2.389,4.919c0.201,0.387,0.383,0.748,0.545,1.084c0.163,0.337,0.307,0.667,0.43,0.992
			c0.116-0.332,0.25-0.667,0.4-1.004c0.15-0.336,0.326-0.693,0.527-1.072l2.367-4.919c0.054-0.101,0.119-0.201,0.197-0.302
			c0.076-0.1,0.168-0.191,0.271-0.272c0.105-0.081,0.225-0.146,0.36-0.197c0.136-0.05,0.284-0.075,0.446-0.075h3.48L304.246,446.252
			z"/>
	</g>
	<g>
		<g>
			<path style="fill:#FFFFFF;" d="M116.777,344.148l-17.12-0.206v46.253H89.05v-46.38l-17.043-0.204v-8.45h44.77
				C116.777,335.161,116.777,344.148,116.777,344.148z"/>
			<path style="fill:#FFFFFF;" d="M161.139,345.896v24.352c0,11.25-5.775,20.691-20.749,20.691
				c-14.793,0-20.543-9.236-20.543-20.691v-24.352h10.273v24.352c0,7.224,2.548,12.196,10.246,12.196
				c7.645,0,10.499-4.92,10.499-12.196v-24.352H161.139z"/>
			<path style="fill:#FFFFFF;" d="M178.203,368.366c0,7.749,4.564,13.587,13.875,13.587c4.317,0,8.35-1.15,11.953-3.604h0.101
				l2.799,8.624c-3.757,1.992-9.176,3.965-16.012,3.965c-15.219,0-23.246-10.25-23.246-22.855c0-12.477,7.9-22.957,24.373-22.957
				c6.24,0,10.946,1.433,14.346,3.146l-3.002,8.905h-0.076c-3.45-2.248-7.51-3.116-11.058-3.116
				C183.124,354.062,178.203,360.259,178.203,368.366z"/>
			<path style="fill:#FFFFFF;" d="M245.378,356.736c-4.63-2.507-8.262-3.759-12.504-3.759c-5.403,0-8.593,1.968-8.593,5.045
				c0.027,8.415,25.063,4.022,25.063,19.489c0,8.493-7.562,13.554-19.883,13.554c-6.56,0-12.306-1.497-17.191-4.524l2.588-8.465
				h0.127c4.24,3.46,8.404,5.011,14.24,5.011c6.291,0,9.641-1.947,9.641-5.376c-0.026-9.128-25.14-3.614-25.14-19.49
				c0-7.977,6.445-13.195,18.862-13.195c5.452,0,9.672,0.997,15.504,3.604l-2.562,8.107h-0.152V356.736z"/>
			<path style="fill:#FFFFFF;" d="M302.953,367.855c0,13.932-9.764,23.084-24.267,23.084c-14.35,0-23.758-8.922-23.758-22.753
				c0-13.957,9.509-23.059,24.013-23.059C293.368,345.127,302.953,354.076,302.953,367.855z M292.398,367.932
				c0.077-9.082-5.325-14.284-13.381-14.284c-8.133,0-13.483,5.33-13.509,14.461c-0.051,8.954,4.995,14.334,13.152,14.334
				C286.767,382.444,292.347,377.14,292.398,367.932z"/>
			<path style="fill:#FFFFFF;" d="M352.527,345.896v44.3h-8.576l-15.165-17.96c-3.526-4.105-7.676-9.571-9.779-12.386
				c0.172,3.589,0.474,10.659,0.474,16.103v14.243h-9.323v-44.3h8.425l15.367,17.909c3.56,4.092,7.72,9.705,9.78,12.54
				c-0.202-3.591-0.499-10.88-0.499-16.206v-14.243L352.527,345.896L352.527,345.896z"/>
		</g>
		<g>
			<path style="fill:#FFFFFF;" d="M158.224,318.917c0.114,0,0.228,0.022,0.343,0.064c0.114,0.043,0.223,0.117,0.328,0.221
				l1.913,2.014c-0.837,1.095-1.887,1.92-3.148,2.477c-1.262,0.557-2.753,0.836-4.477,0.836c-1.581,0-2.997-0.269-4.249-0.807
				s-2.313-1.281-3.185-2.228c-0.871-0.947-1.541-2.071-2.007-3.37c-0.466-1.299-0.7-2.711-0.7-4.234c0-1.552,0.267-2.977,0.8-4.277
				c0.533-1.3,1.278-2.421,2.235-3.363c0.957-0.943,2.102-1.676,3.435-2.199s2.803-0.785,4.413-0.785
				c0.781,0,1.516,0.069,2.207,0.207c0.69,0.138,1.335,0.329,1.934,0.571c0.6,0.242,1.152,0.533,1.657,0.871
				c0.504,0.338,0.952,0.712,1.342,1.121l-1.628,2.185c-0.105,0.133-0.229,0.255-0.372,0.364c-0.143,0.109-0.343,0.164-0.6,0.164
				c-0.171,0-0.333-0.038-0.486-0.114c-0.153-0.076-0.314-0.169-0.486-0.279c-0.171-0.109-0.359-0.228-0.564-0.357
				c-0.204-0.129-0.447-0.248-0.728-0.357c-0.281-0.109-0.609-0.202-0.984-0.279c-0.377-0.076-0.817-0.114-1.321-0.114
				c-0.876,0-1.677,0.155-2.4,0.464c-0.724,0.31-1.344,0.752-1.863,1.328c-0.519,0.576-0.924,1.274-1.213,2.092
				c-0.291,0.819-0.436,1.737-0.436,2.756c0,1.066,0.145,2.013,0.436,2.842c0.29,0.828,0.685,1.525,1.185,2.092
				c0.5,0.566,1.083,0.998,1.749,1.292c0.667,0.295,1.381,0.443,2.143,0.443c0.438,0,0.838-0.021,1.199-0.064
				c0.362-0.043,0.697-0.116,1.007-0.221c0.308-0.105,0.604-0.24,0.884-0.407c0.281-0.167,0.564-0.374,0.85-0.621
				c0.115-0.095,0.238-0.173,0.372-0.235C157.943,318.949,158.081,318.917,158.224,318.917z"/>
			<path style="fill:#FFFFFF;" d="M172.979,324.301h-4.856v-20.807h4.856V324.301z"/>
			<path style="fill:#FFFFFF;" d="M196.515,303.495v3.827h-5.855v16.979h-4.827v-16.979h-5.856v-3.827H196.515z"/>
			<path style="fill:#FFFFFF;" d="M214.729,316.39v7.911h-4.827v-7.911l-7.541-12.895h4.256c0.418,0,0.751,0.098,0.999,0.293
				c0.248,0.195,0.448,0.445,0.6,0.75l2.942,6.055c0.238,0.485,0.456,0.933,0.656,1.342c0.2,0.41,0.377,0.814,0.528,1.214
				c0.143-0.409,0.315-0.819,0.514-1.228c0.2-0.409,0.414-0.852,0.642-1.328l2.914-6.055c0.057-0.124,0.135-0.248,0.235-0.372
				c0.1-0.123,0.214-0.235,0.343-0.336c0.129-0.1,0.276-0.18,0.442-0.243c0.167-0.062,0.35-0.093,0.55-0.093h4.285L214.729,316.39z"
				/>
			<path style="fill:#FFFFFF;" d="M260.482,313.891c0,1.504-0.259,2.904-0.778,4.198c-0.519,1.295-1.25,2.42-2.192,3.377
				c-0.943,0.957-2.079,1.707-3.406,2.249c-1.329,0.543-2.802,0.814-4.42,0.814c-1.619,0-3.094-0.271-4.427-0.814
				c-1.333-0.543-2.473-1.292-3.42-2.249c-0.947-0.957-1.68-2.082-2.199-3.377c-0.519-1.294-0.779-2.694-0.779-4.198
				s0.259-2.904,0.779-4.198c0.519-1.294,1.252-2.418,2.199-3.37s2.087-1.699,3.42-2.242s2.808-0.814,4.427-0.814
				c1.618,0,3.091,0.274,4.42,0.821c1.327,0.548,2.463,1.297,3.406,2.249c0.942,0.952,1.673,2.076,2.192,3.37
				C260.223,311.002,260.482,312.396,260.482,313.891z M255.541,313.891c0-1.028-0.134-1.954-0.4-2.778
				c-0.267-0.823-0.65-1.52-1.15-2.092c-0.5-0.571-1.112-1.009-1.834-1.314c-0.724-0.305-1.547-0.457-2.471-0.457
				c-0.934,0-1.764,0.152-2.492,0.457s-1.342,0.742-1.842,1.314c-0.5,0.571-0.883,1.269-1.149,2.092
				c-0.267,0.824-0.4,1.749-0.4,2.778c0,1.038,0.133,1.968,0.4,2.792s0.65,1.521,1.149,2.092c0.5,0.571,1.114,1.007,1.842,1.307
				c0.728,0.3,1.559,0.45,2.492,0.45c0.924,0,1.746-0.15,2.471-0.45c0.723-0.3,1.335-0.735,1.834-1.307
				c0.5-0.571,0.883-1.268,1.15-2.092C255.407,315.859,255.541,314.928,255.541,313.891z"/>
			<path style="fill:#FFFFFF;" d="M281.491,303.495v3.713h-8.54v5.269h7.112v3.727h-7.112v8.097h-4.855v-20.807L281.491,303.495
				L281.491,303.495z"/>
		</g>
	</g>
	<g>
		<polygon style="fill:#FFFFFF;" points="113.466,134.302 127.616,124.969 127.616,110.003 113.466,119.335 		"/>
		<polygon style="fill:#FFFFFF;" points="113.466,109.105 127.616,99.773 127.616,84.806 113.466,94.138 		"/>
		<polygon style="fill:#FFFFFF;" points="113.466,84.103 127.616,74.771 127.616,59.804 113.466,69.137 		"/>
		<polygon style="fill:#FFFFFF;" points="91.14,98.8 105.29,89.468 105.29,74.501 91.14,83.833 		"/>
		<polygon style="fill:#FFFFFF;" points="91.14,148.971 105.29,139.639 105.29,124.672 91.14,134.004 		"/>
		<polygon style="fill:#FFFFFF;" points="91.14,123.869 105.29,114.537 105.29,99.57 91.14,108.902 		"/>
		<path style="fill:#FFFFFF;" d="M350.734,123.039c-1.815-7.998-4.803-15.722-8.846-22.858c-3.795-6.697-8.512-12.862-13.954-18.304
			c-6.109-6.109-13.132-11.297-20.791-15.299c-3.799-1.985-7.749-3.679-11.806-5.062c-0.997-0.34-2-0.661-3.008-0.963
			c-0.409-0.123-1.012-0.186-1.369-0.413c-0.133-0.084-0.251-0.255-0.36-0.367c-1.733-1.764-3.466-3.528-5.199-5.292
			c-3.09-3.145-6.179-6.29-9.269-9.435c-3.596-3.66-7.192-7.321-10.788-10.981c-3.201-3.258-6.401-6.516-9.602-9.773
			c-1.955-1.99-3.909-3.979-5.864-5.969c-0.229-0.233-0.507-0.646-0.811-0.74c-0.226-0.07-0.582,0-0.817,0c-0.508,0-1.015,0-1.523,0
			c-1.238,0-2.477,0-3.716,0c-0.953,0-1.907,0-2.86,0c-0.315,0-0.304,0.001-0.534-0.158c-1.051-0.727-1.996-1.708-2.966-2.538
			c-3.67-3.141-7.339-6.281-11.008-9.422c-1.547-1.324-3.094-2.648-4.641-3.972c-0.447-0.382-0.894-0.765-1.341-1.147
			c-0.077-0.066-0.305-0.34-0.409-0.347c-0.194-0.012-0.709,0.467-0.863,0.568c-0.759,0.499-1.517,0.998-2.276,1.497
			c-2.644,1.74-5.287,3.479-7.931,5.219c-3.706,2.438-7.411,4.876-11.117,7.315c-4.251,2.797-8.503,5.595-12.754,8.392
			c-4.221,2.777-8.441,5.554-12.662,8.331c-3.673,2.416-7.345,4.833-11.018,7.249c-2.597,1.709-5.194,3.418-7.791,5.127
			c-0.714,0.47-1.428,0.94-2.142,1.41c-0.174,0.114-0.529,0.462-0.742,0.485c-0.244,0.026-0.753-0.307-0.973-0.397
			c-0.77-0.314-1.539-0.628-2.309-0.942c-2.26-0.923-4.521-1.845-6.782-2.768c-2.032-0.829-4.065-1.659-6.097-2.489
			c-0.426-0.174-1.261-0.72-1.705-0.607c-0.455,0.116-1.018,0.668-1.406,0.922c-0.978,0.642-1.955,1.283-2.933,1.924
			c-3.104,2.037-6.207,4.073-9.311,6.11c-4.049,2.657-8.098,5.314-12.147,7.97c-4.299,2.821-8.599,5.642-12.898,8.463
			c-3.794,2.49-7.588,4.979-11.382,7.469c-2.595,1.702-5.189,3.405-7.784,5.108c-0.626,0.411-1.252,0.822-1.878,1.232
			c-0.138,0.09-0.264,0.141-0.319,0.272c-0.069,0.168,0,0.516,0,0.694c0,0.477,0,0.953,0,1.43c0,1.625,0,3.25,0,4.876
			c0,2.437,0,4.875,0,7.312c0,3.16,0,6.32,0,9.48c0,3.748,0,7.495,0,11.243c0,4.242,0,8.484,0,12.726c0,4.653,0,9.306,0,13.958
			c0,4.915,0,9.83,0,14.745c0,5.092,0,10.184,0,15.275c0,5.163,0,10.325,0,15.488c0,5.151,0,10.302,0,15.453
			c0,4.987,0,9.973,0,14.96c0,4.74,0,9.479,0,14.219c0,4.406,0,8.812,0,13.219c0,3.926,0,7.853,0,11.779c0,3.362,0,6.724,0,10.085
			c0,2.691,0,5.383,0,8.074c0,1.922,0,3.844,0,5.766c0,1.029,0,2.058,0,3.087c0,0.064-0.048,0.403,0,0.452
			c0.044,0.044,0.316,0.003,0.38,0.003c0.537,0,1.074,0,1.61,0c0.974,0,1.948,0,2.921,0c0.464,0,0.928,0,1.393,0
			c1.33,0,2.659,0,3.989,0c2.12,0,4.239,0,6.359,0c2.833,0,5.666,0,8.499,0c3.429,0,6.858,0,10.287,0c3.946,0,7.891,0,11.837,0
			c4.392,0,8.784,0,13.176,0c4.707,0,9.414,0,14.121,0c4.95,0,9.9,0,14.85,0c5.102,0,10.204,0,15.307,0c5.187,0,10.374,0,15.561,0
			c5.133,0,10.266,0,15.399,0c5.012,0,10.023,0,15.035,0c4.821,0,9.641,0,14.462,0c4.494,0,8.989,0,13.483,0c4.1,0,8.199,0,12.299,0
			c3.614,0,7.228,0,10.841,0c3.049,0,6.099,0,9.148,0c2.366,0,4.732,0,7.098,0c1.607,0,3.214,0,4.82,0c0.492,0,0.984,0,1.476,0
			c0.202,0,0.609,0.081,0.798,0c0.207-0.089,0.054,0.081,0.14-0.181c0.069-0.212,0.004-0.562,0.006-0.783
			c0.003-0.45,0.007-0.9,0.01-1.35c0.024-3.29,0.049-6.579,0.073-9.869c0.035-4.805,0.071-9.611,0.106-14.417
			c0.037-5.072,0.075-10.143,0.112-15.214c0.031-4.155,0.061-8.31,0.092-12.466c0.01-1.363,0.02-2.727,0.03-4.09
			c0.003-0.434,0.006-0.867,0.01-1.301c0.001-0.201-0.062-0.538,0.005-0.729c0.012-0.034-0.018-0.102,0.001-0.131
			c0.053-0.08,0.347-0.14,0.444-0.177c0.518-0.198,1.033-0.4,1.547-0.608c2.018-0.816,4.005-1.711,5.953-2.681
			c3.914-1.948,7.675-4.201,11.241-6.732c7.024-4.985,13.288-11.044,18.519-17.886c4.994-6.53,9.032-13.783,11.933-21.476
			c2.925-7.756,4.686-15.939,5.245-24.208C353.213,139.57,352.578,131.17,350.734,123.039z M117.8,176.887h-6.221v100H76.99V80.475
			l55.723-36.565l17.789,7.26l68.361-44.98l19.105,16.351h9.102l34.984,35.61c-2.633-0.442-5.297-0.766-7.986-0.961l-29.33-30.053
			l-9.765-0.072L218.863,13.2l-7.483,23.904l7.732,9.005L218.98,72.33c-4.01,2.821-7.807,6.009-11.346,9.547
			c-7.763,7.763-13.834,16.764-18.043,26.555l0,0c-8.61,6.091-15.231,14.808-18.68,24.994h-10.936v10.683h-11.557
			C148.417,161.503,134.901,175.732,117.8,176.887z M201.809,246.508c0.151,2.116,2.088,4.036,1.5,6.074
			c-0.422,1.461-1.962,2.249-3.354,2.86c-13.012,5.718-36.7,13.25-53.624,21.444h-16.829V191.23
			c18.126-0.101,32.799-14.793,32.903-32.946h11.726V147.61h11.716c1.657-16.752,15.767-29.837,32.93-29.837
			s31.273,13.085,32.93,29.837h9.686l0.073,51.689c-0.719,0.076-1.413,0.124-2.037,0.124c-2.208,0-3.388-0.18-3.983-4.054
			l-0.016-0.103l-0.022-0.102l-3.968-18.952c-0.908-4.307-2.188-7.569-3.915-9.977c-2.437-3.4-5.856-5.197-9.888-5.197
			c-0.736,0-1.503,0.06-2.28,0.18c-4.741,0.728-9.027,3.417-11.759,7.376c-2.573,3.729-3.486,8.144-2.571,12.431l7.122,32.909
			c0.897,4.2,3.436,8.621,6.965,12.119c0.678,0.672,1.38,1.272,2.091,1.839c-10.301,4.086-22.533,7.356-31.356,12.962
			C203.793,242.159,201.635,244.076,201.809,246.508z M206.653,276.887c6.606-4.966,13.42-10.436,17.307-14.043
			c1.252-1.162,2.49-2.402,3.204-3.954c1.36-2.954,0.378-6.798-2.232-8.738c-1.463-1.088-3.547-1.918-3.732-3.732
			c-0.174-1.705,1.506-2.955,2.982-3.826c5.879-3.472,13.363-7.315,20.126-10.992c1.233,0.327,2.468,0.513,3.686,0.513
			c0.235,0,0.473-0.006,0.707-0.019c5.527-0.297,9.551-0.819,12.809-1.423l0.065,46.214L206.653,276.887L206.653,276.887z
			 M294.232,190.923l-0.784,85.964h-28.01l-0.072-51.008c-4.316,1.068-9.064,1.94-16.871,2.36c-0.167,0.009-0.333,0.013-0.5,0.013
			c-7.161,0-14.575-8.139-16.069-15.137l-7.121-32.898c-1.529-7.162,3.901-14.07,11.139-15.182c0.593-0.091,1.156-0.135,1.694-0.135
			c6.02,0.001,8.635,5.525,10.022,12.104l3.968,18.953c0.889,5.789,3.7,7.33,7.8,7.33c1.75,0,3.734-0.281,5.905-0.632l-0.123-86.902
			c0-8.17,6.684-14.854,14.854-14.854s14.854,6.684,14.854,14.854l-0.488,53.46c1.76,0.186,3.393,0.339,4.865,0.339
			c4.398,0,7.354-1.366,7.922-7.295l2.974-19.052c0.977-6.422,3.235-11.864,9.272-11.864c0.337,0,0.685,0.017,1.045,0.051
			c6.826,0.655,12.27,6.825,11.221,13.602l-5.18,32.258c-1.049,6.777-7.829,15-14.687,15.021c-0.166,0.001-0.33,0.001-0.493,0.001
			C303.604,192.272,298.826,191.697,294.232,190.923z M346.012,162.385c-3.18,12.253-9.292,23.681-17.679,33.16
			c-8.321,9.404-18.821,16.828-30.477,21.504l0.198-21.654c3.683,0.461,7.772,0.74,13.316,0.74l0.504-0.001
			c4.271-0.013,8.655-2.222,12.347-6.219c3.259-3.529,5.497-7.922,6.141-12.055l5.18-32.255l0.002-0.011l0.002-0.011
			c0.639-4.124-0.467-8.27-3.113-11.673c-2.806-3.609-7.018-5.929-11.556-6.364c-0.477-0.046-0.953-0.069-1.413-0.069
			c-4.091,0-7.463,1.814-9.748,5.245c-1.601,2.404-2.695,5.642-3.343,9.901l-2.972,19.037l-0.018,0.113l-0.011,0.114
			c-0.158,1.643-0.543,2.786-1.086,3.218c-0.486,0.387-1.492,0.583-2.991,0.583c-0.311,0-0.636-0.008-0.97-0.023l0.455-49.877
			v-0.018v-0.018c0-10.32-8.396-18.716-18.716-18.716s-18.716,8.396-18.716,18.716l0.007,4.804c-0.125-0.051-0.261-0.077-0.38-0.138
			c0.013,0.635,0.029,1.271,0.03,1.896c-2.731-4.234-6.096-8.055-9.95-11.3c-6.951-5.853-15.456-9.762-24.432-11.191
			c-10.313-1.642-21.044-0.024-30.395,4.633c0.825-1.568,1.694-3.11,2.621-4.619c7.27-11.835,17.573-21.725,29.713-28.479
			c11.63-6.47,24.808-9.957,38.113-10.137c14.567-0.196,29.114,3.588,41.705,10.919c11.831,6.889,21.852,16.794,28.859,28.557
			c7.075,11.877,11.001,25.505,11.335,39.328C348.757,147.55,347.904,155.097,346.012,162.385z"/>
		<polygon style="fill:#FFFFFF;" points="149.942,70.165 135.792,79.497 135.792,94.464 149.942,85.132 		"/>
	</g>
</g>
</svg>
