<svg id="Logo" xmlns="http://www.w3.org/2000/svg" viewBox="0 0 491.66 118.9"><defs><style>.cls-1{fill:#fff;}.cls-2{fill:none;}.cls-3{fill:#002669;}.cls-4{fill:#c24200;}.cls-5{fill:#ffdb22;}.cls-6{fill:#83ac16;}</style></defs><path class="cls-1" d="M193.14,57.62l-21.68-.26v58.57H158V57.2l-21.58-.26V46.24h56.69Z"/><path class="cls-1" d="M249.31,59.83V90.67c0,14.24-7.31,26.2-26.27,26.2-18.74,0-26-11.7-26-26.2V59.83h13V90.67c0,9.14,3.23,15.44,13,15.44s13.29-6.23,13.29-15.44V59.83Z"/><path class="cls-1" d="M270.92,88.28c0,9.81,5.78,17.21,17.57,17.21a26.33,26.33,0,0,0,15.13-4.57h.13l3.55,10.93a43.09,43.09,0,0,1-20.28,5c-19.27,0-29.43-13-29.43-28.94,0-15.8,10-29.07,30.86-29.07a39.81,39.81,0,0,1,18.16,4l-3.8,11.28h-.09a25.91,25.91,0,0,0-14-4C277.15,70.17,270.92,78,270.92,88.28Z"/><path class="cls-1" d="M356,73.56c-5.86-3.18-10.46-4.76-15.83-4.76-6.85,0-10.89,2.49-10.89,6.39,0,10.65,31.74,5.09,31.74,24.67,0,10.76-9.57,17.17-25.18,17.17-8.3,0-15.58-1.9-21.77-5.73l3.28-10.72h.16a26.26,26.26,0,0,0,18,6.35c8,0,12.21-2.47,12.21-6.81,0-11.56-31.83-4.58-31.83-24.68,0-10.1,8.16-16.71,23.88-16.71,6.91,0,12.25,1.26,19.64,4.56l-3.25,10.27Z"/><path class="cls-1" d="M428.88,87.64c0,17.64-12.36,29.23-30.73,29.23-18.17,0-30.08-11.3-30.08-28.81,0-17.68,12-29.2,30.41-29.2S428.88,70.19,428.88,87.64Zm-13.36.09c.1-11.5-6.75-18.08-16.95-18.08S381.5,76.4,381.47,88c-.07,11.34,6.32,18.15,16.65,18.15S415.45,99.39,415.52,87.73Z"/><path class="cls-1" d="M491.66,59.83v56.1H480.8L461.59,93.18c-4.46-5.19-9.71-12.12-12.38-15.68.22,4.54.6,13.5.6,20.39v18H438V59.83h10.66l19.46,22.68c4.51,5.18,9.78,12.29,12.39,15.88-.26-4.55-.63-13.78-.63-20.52v-18Z"/><path class="cls-1" d="M155.44,21.09a1.22,1.22,0,0,1,.41.07,1,1,0,0,1,.39.27l2.31,2.42a9.56,9.56,0,0,1-3.79,3,13.3,13.3,0,0,1-5.39,1,12.81,12.81,0,0,1-5.12-1,11.07,11.07,0,0,1-3.83-2.68A11.73,11.73,0,0,1,138,20.13a15,15,0,0,1-.84-5.1,13.49,13.49,0,0,1,1-5.15A11.81,11.81,0,0,1,145,3.19a14.38,14.38,0,0,1,5.31-.95,13.28,13.28,0,0,1,2.66.25,13.48,13.48,0,0,1,2.33.69,10.74,10.74,0,0,1,2,1.05,8.93,8.93,0,0,1,1.62,1.35l-2,2.63a3.13,3.13,0,0,1-.45.44,1.16,1.16,0,0,1-.72.19,1.34,1.34,0,0,1-.59-.13l-.58-.34-.68-.43a5.56,5.56,0,0,0-.88-.43,7.33,7.33,0,0,0-1.18-.33A7.58,7.58,0,0,0,150.23,7a7.13,7.13,0,0,0-2.89.56,6.3,6.3,0,0,0-2.25,1.6,7.48,7.48,0,0,0-1.46,2.51,9.93,9.93,0,0,0-.52,3.32,10.24,10.24,0,0,0,.52,3.42A7.51,7.51,0,0,0,145.06,21a6,6,0,0,0,2.1,1.56,6.27,6.27,0,0,0,2.58.53,12.92,12.92,0,0,0,1.45-.07,6.31,6.31,0,0,0,1.21-.27,6.08,6.08,0,0,0,1.07-.49,6.64,6.64,0,0,0,1-.75,2.11,2.11,0,0,1,.45-.28A1.08,1.08,0,0,1,155.44,21.09Z"/><path class="cls-1" d="M173.2,27.57h-5.84v-25h5.84Z"/><path class="cls-1" d="M201.54,2.52v4.6h-7V27.57h-5.81V7.12h-7.05V2.52Z"/><path class="cls-1" d="M223.47,18v9.53h-5.81V18L208.58,2.52h5.12a1.87,1.87,0,0,1,1.21.35,2.48,2.48,0,0,1,.72.9l3.54,7.29.79,1.62c.24.49.46,1,.64,1.46a13.3,13.3,0,0,1,.62-1.48l.77-1.6,3.51-7.29a2.21,2.21,0,0,1,.28-.45,2.28,2.28,0,0,1,.42-.4,1.8,1.8,0,0,1,.53-.29,1.76,1.76,0,0,1,.66-.11h5.16Z"/><path class="cls-1" d="M278.56,15a13.4,13.4,0,0,1-.94,5.06,12,12,0,0,1-6.74,6.77,15,15,0,0,1-10.65,0,11.93,11.93,0,0,1-6.76-6.77,13.4,13.4,0,0,1-.94-5.06,13.34,13.34,0,0,1,.94-5,12,12,0,0,1,2.64-4.06,12.19,12.19,0,0,1,4.12-2.7,14.09,14.09,0,0,1,5.33-1,13.81,13.81,0,0,1,5.32,1A12.18,12.18,0,0,1,275,5.94,11.88,11.88,0,0,1,277.62,10,13.24,13.24,0,0,1,278.56,15Zm-5.95,0a10.82,10.82,0,0,0-.48-3.34,7.13,7.13,0,0,0-1.38-2.52,5.94,5.94,0,0,0-2.21-1.58,8.4,8.4,0,0,0-6,0,5.9,5.9,0,0,0-2.22,1.58A7.13,7.13,0,0,0,259,11.69a10.82,10.82,0,0,0-.48,3.34,10.9,10.9,0,0,0,.48,3.36,7,7,0,0,0,1.38,2.52,5.9,5.9,0,0,0,2.22,1.58,8.55,8.55,0,0,0,6,0,5.94,5.94,0,0,0,2.21-1.58,7,7,0,0,0,1.38-2.52A10.9,10.9,0,0,0,272.61,15Z"/><path class="cls-1" d="M303.86,2.52V7H293.57v6.34h8.57v4.49h-8.57v9.75h-5.84v-25Z"/><path class="cls-1" d="M117.43,51.84a35.38,35.38,0,0,0-3.73-9.63A36.1,36.1,0,0,0,99.06,28.05a34.58,34.58,0,0,0-5-2.13c-.42-.15-.84-.28-1.27-.41a2.69,2.69,0,0,1-.57-.17,1.21,1.21,0,0,1-.16-.16L89.9,23,86,19l-4.55-4.63-4-4.12L74.94,7.72c-.1-.1-.22-.27-.34-.31a1.37,1.37,0,0,0-.35,0H70.84c-.13,0-.13,0-.22-.07a12.81,12.81,0,0,1-1.25-1.07q-2.33-2-4.64-4l-2-1.67L62.21.15S62.08,0,62,0s-.3.2-.37.24l-1,.63-3.34,2.2L52.69,6.15,47.32,9.69,42,13.2l-4.64,3.05-3.28,2.16c-.3.2-.6.4-.91.59-.07.05-.22.2-.31.21s-.32-.13-.41-.17l-1-.4L28.6,17.48,26,16.43c-.18-.07-.53-.3-.72-.26a2.74,2.74,0,0,0-.59.39l-1.23.81L19.56,20,14.45,23.3,9,26.87,4.22,30,.94,32.17l-.79.52c-.06,0-.11.06-.14.11a.94.94,0,0,0,0,.29v85.6s0,.17,0,.19.14,0,.16,0H94.53c.09,0,.26,0,.34,0s0,0,.06-.07a1.22,1.22,0,0,0,0-.33v-.57l0-4.16c0-2,0-4,.05-6.07s0-4.28,0-6.41c0-1.75,0-3.5,0-5.25,0-.58,0-1.15,0-1.73v-.55a1.5,1.5,0,0,1,0-.3s0,0,0-.06a.62.62,0,0,1,.19-.07l.65-.26c.85-.34,1.69-.72,2.51-1.13A35.71,35.71,0,0,0,118.24,62.3,36.4,36.4,0,0,0,117.43,51.84ZM50.62,45l-.09.05Z"/><polygon class="cls-2" points="17.47 45.97 23.43 42.03 23.43 35.73 17.47 39.66 17.47 45.97"/><polygon class="cls-2" points="17.47 35.43 23.43 31.5 23.43 25.2 17.47 29.13 17.47 35.43"/><polygon class="cls-1" points="8.06 41.62 14.02 37.69 14.02 31.39 8.06 35.32 8.06 41.62"/><polygon class="cls-1" points="17.47 35.43 23.43 31.5 23.43 25.2 17.47 29.13 17.47 35.43"/><polygon class="cls-1" points="8.06 52.19 14.02 48.25 14.02 41.95 8.06 45.88 8.06 52.19"/><polygon class="cls-1" points="8.06 62.76 14.02 58.83 14.02 52.52 8.06 56.45 8.06 62.76"/><polygon class="cls-1" points="17.47 45.97 23.43 42.03 23.43 35.73 17.47 39.66 17.47 45.97"/><polygon class="cls-1" points="17.47 56.58 23.43 52.65 23.43 46.34 17.47 50.27 17.47 56.58"/><polygon class="cls-1" points="26.88 39.8 32.84 35.87 32.84 29.56 26.88 33.49 26.88 39.8"/><polygon class="cls-2" points="17.47 45.97 23.43 42.03 23.43 35.73 17.47 39.66 17.47 45.97"/><polygon class="cls-2" points="17.47 35.43 23.43 31.5 23.43 25.2 17.47 29.13 17.47 35.43"/><polygon class="cls-2" points="17.47 45.97 23.43 42.03 23.43 35.73 17.47 39.66 17.47 45.97"/><polygon class="cls-2" points="17.47 35.43 23.43 31.5 23.43 25.2 17.47 29.13 17.47 35.43"/><polygon class="cls-2" points="17.47 45.97 23.43 42.03 23.43 35.73 17.47 39.66 17.47 45.97"/><polygon class="cls-2" points="17.47 35.43 23.43 31.5 23.43 25.2 17.47 29.13 17.47 35.43"/><path class="cls-2" d="M108.92,38.38l.18.22Z"/><path class="cls-2" d="M107.93,37.22a1.46,1.46,0,0,1,.16.19A1.46,1.46,0,0,0,107.93,37.22Z"/><path class="cls-2" d="M107.44,36.68l.13.14Z"/><path class="cls-2" d="M109.4,39l.18.23Z"/><path class="cls-2" d="M107,36.19l.07.06Z"/><path class="cls-2" d="M109.87,39.61c.06.08.11.16.17.23S109.93,39.69,109.87,39.61Z"/><path class="cls-2" d="M108.43,37.8a1.63,1.63,0,0,1,.17.2A1.63,1.63,0,0,0,108.43,37.8Z"/><path class="cls-2" d="M110.77,40.88l.15.23Z"/><path class="cls-2" d="M110.33,40.24l.16.24Z"/><path class="cls-2" d="M106.94,56.18l.1.08Z"/><path class="cls-2" d="M107.28,56.44a.52.52,0,0,0,.11.1A.52.52,0,0,1,107.28,56.44Z"/><polygon class="cls-2" points="105.94 55.61 105.94 55.61 105.94 55.61 105.94 55.61"/><path class="cls-2" d="M106.63,56l0,0Z"/><path class="cls-2" d="M107.6,56.75l.09.09Z"/><polygon class="cls-2" points="23.43 35.73 17.47 39.66 17.47 45.97 23.43 42.03 23.43 35.73"/><polygon class="cls-2" points="23.43 25.2 17.47 29.13 17.47 35.43 23.43 31.5 23.43 25.2"/><path class="cls-3" d="M19.3,74.52A13.84,13.84,0,0,0,32.19,60.71h4.87v-4.5h4.61a21.27,21.27,0,0,1,7.87-10.53h0a35.81,35.81,0,0,1,7.6-11.19,36.35,36.35,0,0,1,4.78-4l.06-11-3.26-3.8L61.87,5.56l6.79,5.84,4.11,0L85.13,24.09c1.13.09,2.26.22,3.36.41L73.76,9.5H69.92L61.87,2.61l-28.8,19L25.58,18.5,2.1,33.9v82.75H16.67V74.52Zm7.58-41,6-3.93v6.31l-6,3.93Zm-9.41-4.36,6-3.93v6.3l-6,3.93Zm0,10.53,6-3.93V42l-6,3.94Zm0,10.62,6-3.94v6.31l-6,3.93ZM14,58.83l-6,3.93v-6.3l6-3.94Zm0-10.58-6,3.94V45.88L14,42Zm0-10.56-6,3.93v-6.3l6-3.93Z"/><path class="cls-4" d="M68.72,95.23a10.49,10.49,0,0,1-2.93-5.1l-3-13.87A6.68,6.68,0,0,1,63.87,71a7.4,7.4,0,0,1,4.95-3.11,6.43,6.43,0,0,1,1-.08A5,5,0,0,1,74,70a11.2,11.2,0,0,1,1.65,4.21l1.67,8v.09C77.53,83.94,78,84,79,84a6.55,6.55,0,0,0,.86-.06l0-21.77H75.71a13.94,13.94,0,0,0-27.75,0H43v4.49H38.09A14,14,0,0,1,24.22,80.56v36.09h7.09c7.13-3.45,17.11-6.62,22.6-9,.58-.26,1.23-.59,1.41-1.21.25-.86-.57-1.67-.63-2.56s.83-1.83,1.7-2.38c3.72-2.36,8.87-3.74,13.21-5.46A10.47,10.47,0,0,1,68.72,95.23Z"/><path class="cls-4" d="M74.44,97.78h-.29a6,6,0,0,1-1.56-.22c-2.85,1.55-6,3.17-8.48,4.63-.62.37-1.33.9-1.25,1.62s1,1.11,1.57,1.57a3.11,3.11,0,0,1,.94,3.68A5.39,5.39,0,0,1,64,110.73c-1.64,1.52-4.51,3.83-7.29,5.92H79.87l0-19.47A39.51,39.51,0,0,1,74.44,97.78Z"/><path class="cls-5" d="M111.74,42.42a34,34,0,0,0-58.3-.36c-.39.64-.76,1.29-1.1,1.95a21.25,21.25,0,0,1,27.29,7.52c0-.26,0-.53,0-.8a1,1,0,0,0,.16.06v-2a7.89,7.89,0,1,1,15.77,0h0l-.19,21h.41A2.26,2.26,0,0,0,97,69.56a2.14,2.14,0,0,0,.46-1.36v-.09l1.25-8a10.18,10.18,0,0,1,1.41-4.18,4.74,4.74,0,0,1,4.1-2.2c.2,0,.4,0,.6,0a7,7,0,0,1,4.87,2.69A6.37,6.37,0,0,1,111,61.33h0l-2.18,13.59A10.1,10.1,0,0,1,106.26,80a7.33,7.33,0,0,1-5.2,2.62h-.21a44.66,44.66,0,0,1-5.61-.31l-.09,9.12a34,34,0,0,0,16.59-49Z"/><path class="cls-6" d="M104.7,55.35l-.45,0c-2.54,0-3.49,2.3-3.9,5l-1.25,8c-.24,2.5-1.49,3.07-3.34,3.07a19.62,19.62,0,0,1-2.05-.14l.2-22.52a6.26,6.26,0,1,0-12.51,0l0,36.61a17.15,17.15,0,0,1-2.49.26c-1.73,0-2.91-.65-3.28-3.08l-1.68-8c-.58-2.77-1.68-5.1-4.22-5.1a4.53,4.53,0,0,0-.71.06,5.51,5.51,0,0,0-4.69,6.39l3,13.86c.63,3,3.75,6.38,6.77,6.38h.21a35.57,35.57,0,0,0,7.1-1l0,21.49h11.8l.33-36.22a39.71,39.71,0,0,0,7.23.57h.2c2.89,0,5.75-3.47,6.19-6.33l2.18-13.59A5.17,5.17,0,0,0,104.7,55.35Z"/></svg>