<svg xmlns="http://www.w3.org/2000/svg" viewBox="0 0 448 752" preserveAspectRatio="xMidYMid meet">
<rect x="0" y="0" width="100" height="100" rx="14" ry="14" fill="#83AC16"/>
<rect x="116" y="0" width="100" height="100" rx="14" ry="14" fill="#0088FF"/>
<rect x="232" y="0" width="100" height="100" rx="14" ry="14" fill="#C24200"/>
<rect x="348" y="0" width="100" height="100" rx="14" ry="14" fill="#002669"/>
<rect x="0" y="116" width="100" height="100" rx="14" ry="14" fill="#002669"/>
<rect x="116" y="116" width="100" height="100" rx="14" ry="14" fill="#9E0059"/>
<rect x="232" y="116" width="100" height="100" rx="14" ry="14" fill="#FFDB22"/>
<rect x="348" y="116" width="100" height="100" rx="14" ry="14" fill="#83AC16"/>
<rect x="0" y="232" width="100" height="100" rx="14" ry="14" fill="#83AC16"/>
<rect x="116" y="232" width="100" height="100" rx="14" ry="14" fill="#002669"/>
<rect x="232" y="232" width="100" height="100" rx="14" ry="14" fill="#0088FF"/>
<rect x="348" y="232" width="100" height="100" rx="14" ry="14" fill="#FFDB22"/>
<rect x="0" y="348" width="100" height="100" rx="14" ry="14" fill="#FFDB22"/>
<rect x="116" y="348" width="100" height="100" rx="14" ry="14" fill="#C24200"/>
<rect x="232" y="348" width="100" height="100" rx="14" ry="14" fill="#9E0059"/>
<rect x="348" y="348" width="100" height="100" rx="14" ry="14" fill="#C24200"/>
<text x="224.0" y="598" font-family="Lato, Arial, sans-serif" font-weight="400" font-size="100" letter-spacing="6" text-anchor="middle" fill="#002669">TUCSON</text>
<text x="224.0" y="744" font-family="Lato, Arial, sans-serif" font-weight="900" font-size="130" letter-spacing="6" text-anchor="middle" fill="#002669">DATA</text>
</svg>